<svg xmlns="http://www.w3.org/2000/svg" viewBox="0 0 80.193 84.725">
  <g id="Group_2443" data-name="Group 2443" transform="translate(-1387.353 -3175.682)">
    <path id="Path_2690" data-name="Path 2690" d="M47.553,82.954l-9.3-3.575a2.738,2.738,0,0,1-1.745-2.541V73.45a13.3,13.3,0,0,0,3.315-6.621l0,0a3.636,3.636,0,0,0,1.057-.093A3.794,3.794,0,0,0,43.7,63.014V62.07a3.821,3.821,0,0,0-1.151-2.739c1.157-6.23.223-11.3-2.713-14.694-2.83-3.268-7.394-4.831-13.2-4.516A17.272,17.272,0,0,0,16.7,43.8c-1.5.195-5.774,1.275-5.774,7.253a32.248,32.248,0,0,0,.915,7.589,3.774,3.774,0,0,0-2.128,3.445v.93a3.8,3.8,0,0,0,2.814,3.718,3.64,3.64,0,0,0,1.057.093l0,0A13.3,13.3,0,0,0,16.9,73.45v3.388a2.739,2.739,0,0,1-1.745,2.541L5.863,82.954A9.137,9.137,0,0,0,.009,91.887L1.08,116.531a1.234,1.234,0,0,0,1.232,1.18h.054a1.234,1.234,0,0,0,1.179-1.286L2.474,91.78a6.677,6.677,0,0,1,.3-2.3l3.956,3.956A6,6,0,0,1,8.5,97.706v18.771a1.234,1.234,0,0,0,2.468,0V97.707a8.451,8.451,0,0,0-2.492-6.016L4.008,87.221a6.669,6.669,0,0,1,2.74-1.965l7.116-2.737a13.9,13.9,0,0,0,4.6,6.081,13.765,13.765,0,0,0,16.555-.059,13.893,13.893,0,0,0,4.528-6.021l7.115,2.736a6.669,6.669,0,0,1,2.74,1.965l-4.469,4.469a8.451,8.451,0,0,0-2.492,6.016v18.771a1.234,1.234,0,0,0,2.468,0V97.707a6,6,0,0,1,1.769-4.271l3.956-3.956a6.677,6.677,0,0,1,.3,2.3L49.87,116.423a1.234,1.234,0,0,0,1.179,1.286H51.1a1.234,1.234,0,0,0,1.232-1.18l1.071-24.643a9.136,9.136,0,0,0-5.854-8.933M16.012,66.367a2.462,2.462,0,0,0-2.559-2.006,1.181,1.181,0,0,1-.357-.03,1.328,1.328,0,0,1-.914-1.317v-.93a1.291,1.291,0,0,1,.966-1.294,1.188,1.188,0,0,1,1.169.448,1.745,1.745,0,0,0,2.4.377,9.483,9.483,0,0,0,3.131-4.263,1.234,1.234,0,1,0-2.348-.76,7.114,7.114,0,0,1-1.73,2.606,3.649,3.649,0,0,0-1.43-.764,29.812,29.812,0,0,1-.945-7.384c0-2.01.623-3.422,1.851-4.2a4.269,4.269,0,0,1,1.966-.628,1.233,1.233,0,0,0,.855-.344,14.466,14.466,0,0,1,8.708-3.294c5.013-.271,8.886,1,11.2,3.668,2.343,2.706,3.115,6.863,2.252,12.064a5.256,5.256,0,0,0-.778.024l-.08-1.073A1.234,1.234,0,0,0,39,56.472a24.949,24.949,0,0,0-6.455-4.229,20.869,20.869,0,0,0-15.84-.968,1.234,1.234,0,0,0,.812,2.33,18.2,18.2,0,0,1,13.923.845,23.786,23.786,0,0,1,5.507,3.492l.153,2.051a1.234,1.234,0,0,0,1.851.975,2.909,2.909,0,0,1,1.319-.176,1.285,1.285,0,0,1,.969,1.277v.945a1.328,1.328,0,0,1-.915,1.317,1.175,1.175,0,0,1-.357.03A2.461,2.461,0,0,0,37.4,66.367a10.875,10.875,0,0,1-21.392,0m10.7,22.5A11.234,11.234,0,0,1,16.165,81.63a5.22,5.22,0,0,0,3.206-4.792v-1.3a13.333,13.333,0,0,0,14.675,0v1.3a5.219,5.219,0,0,0,3.207,4.792,11.364,11.364,0,0,1-10.544,7.24" transform="translate(1387.607 3142.446)" fill="#285c55" stroke="#285c55" stroke-width="0.5"/>
    <path id="Path_2691" data-name="Path 2691" d="M260.974,0a22.2,22.2,0,0,0-15.7,6.453,1.234,1.234,0,0,0,1.735,1.754,19.865,19.865,0,1,1,.681,28.891,1.234,1.234,0,1,0-1.651,1.834A22.332,22.332,0,1,0,260.974,0" transform="translate(1183.991 3175.932)" fill="#285c55" stroke="#285c55" stroke-width="0.5"/>
  </g>
  <g id="check" transform="translate(40.183 9.577)">
    <path id="Path_2693" data-name="Path 2693" d="M25.362,6.269A1.391,1.391,0,0,1,27.3,6.21a1.348,1.348,0,0,1,.019,1.907L16.314,20.963A1.348,1.348,0,0,1,14.373,21L9.619,16.243a1.348,1.348,0,1,1,1.9-1.9L15.288,18.1,25.362,6.269c.011-.014-.011.013,0,0Z" fill="#f7ce46" fill-rule="evenodd"/>
  </g>
</svg>
