<svg xmlns="http://www.w3.org/2000/svg" xmlns:xlink="http://www.w3.org/1999/xlink" viewBox="0 0 110.609 70.895">
  <defs>
    <clipPath id="clip-path">
      <rect id="Rectangle_786" data-name="Rectangle 786" width="110.609" height="70.779" fill="#285c55"/>
    </clipPath>
  </defs>
  <g id="Group_2438" data-name="Group 2438" transform="translate(0 0.115)">
    <g id="Group_2437" data-name="Group 2437" clip-path="url(#clip-path)">
      <path id="Path_2676" data-name="Path 2676" d="M187.482,39.874l-9.415-4.185A1.845,1.845,0,0,1,176.972,34V31.419a13.721,13.721,0,0,0,5.2-10.749V17.03c.818-.452,1.732-2.666,1.732-2.934,0-7.931-29.37,4.776-29.217,4.858v1.716a13.721,13.721,0,0,0,5.2,10.749V34a1.845,1.845,0,0,1-1.095,1.684l-9.415,4.185a8.555,8.555,0,0,0-5.076,7.81V69.159a1.62,1.62,0,0,0,3.241,0V47.684a5.3,5.3,0,0,1,.033-.557l4.338,4.338a3.552,3.552,0,0,1,1.047,2.528V69.159a1.62,1.62,0,0,0,3.241,0V53.993a6.771,6.771,0,0,0-2-4.819L149.023,44a5.293,5.293,0,0,1,1.661-1.167l9.256-4.114,6.864,6.864V69.159a1.62,1.62,0,0,0,3.241,0V45.585l6.864-6.864,9.256,4.114A5.29,5.29,0,0,1,187.827,44l-5.172,5.172a6.771,6.771,0,0,0-2,4.819V69.159a1.62,1.62,0,0,0,3.241,0V53.993a3.552,3.552,0,0,1,1.047-2.528l4.338-4.338a5.291,5.291,0,0,1,.033.557V69.159a1.62,1.62,0,1,0,3.241,0V47.684a8.556,8.556,0,0,0-5.076-7.81m-19.057,2.749L162.4,36.6A5.075,5.075,0,0,0,163.118,34v-.659a13.731,13.731,0,0,0,10.613,0V34a5.074,5.074,0,0,0,.717,2.6Zm0-11.451c-5.791,0-10.5-4.711-10.5-11.231-.1-1.084,22.736-11.989,22.736-5.845,0,.052-14.642-1.589-16.284-3.231a1.62,1.62,0,0,0-2.291,2.291c5.031,5.031,12.373,5.122,16.843,4.585v2.928a10.514,10.514,0,0,1-10.5,10.5" transform="translate(-113.12)" fill="#f7ce46"/>
      <path id="Path_2677" data-name="Path 2677" d="M29.217,62.483V59.019A12.008,12.008,0,0,0,23.71,48.93a6.815,6.815,0,1,0-13.009,0A12.008,12.008,0,0,0,5.2,59.019v3.463a12,12,0,0,0,5.2,9.882v3.563a1.833,1.833,0,0,1-1.019,1.649l-5.6,2.8A6.779,6.779,0,0,0,0,86.474v14.107a1.62,1.62,0,1,0,3.241,0V87.175l2.64,2.64a3.552,3.552,0,0,1,1.047,2.528v8.238a1.62,1.62,0,1,0,3.241,0V92.343a6.771,6.771,0,0,0-2-4.819L4.5,83.85c-.018-.018-.037-.033-.055-.05a3.613,3.613,0,0,1,.774-.523l5.6-2.8a5.16,5.16,0,0,0,.8-.5l3.961,3.962v16.646a1.62,1.62,0,1,0,3.241,0V83.935l3.962-3.962a5.138,5.138,0,0,0,.8.5l1.545.773a1.62,1.62,0,1,0,1.449-2.9l-1.545-.773a1.833,1.833,0,0,1-1.019-1.649V72.365a12,12,0,0,0,5.2-9.882M17.206,43.322A3.579,3.579,0,0,1,20.781,46.9a3.631,3.631,0,0,1-.057.638,12.01,12.01,0,0,0-7.032,0,3.553,3.553,0,0,1,3.513-4.212m0,6.927a8.78,8.78,0,0,1,8.77,8.77v.587a10.171,10.171,0,0,1-10.938-3.291,1.62,1.62,0,0,0-2.442-.173,10.6,10.6,0,0,1-4.155,2.653,8.779,8.779,0,0,1,8.764-8.546m0,30.723-3.744-3.744a5.131,5.131,0,0,0,.169-1.3V73.95a12.033,12.033,0,0,0,7.15,0v1.978a5.129,5.129,0,0,0,.169,1.3Zm0-9.719a8.78,8.78,0,0,1-8.77-8.77v-.336a12.991,12.991,0,0,0,5.206-2.594,14.619,14.619,0,0,0,3,2.187,12.887,12.887,0,0,0,6.192,1.6,13.575,13.575,0,0,0,3.124-.374,8.781,8.781,0,0,1-8.757,8.288" transform="translate(0 -31.422)" fill="#285c55"/>
      <path id="Path_2678" data-name="Path 2678" d="M389.639,89.484l-9.068-4.534a1.833,1.833,0,0,1-1.019-1.649v-2.3a10.255,10.255,0,0,0,3.463-7.685V71.476h.111a1.62,1.62,0,0,0,1.62-1.62V66.393a10.291,10.291,0,0,0-10.279-10.279h-3.463a10.291,10.291,0,0,0-10.279,10.279v3.463a1.62,1.62,0,0,0,1.62,1.62l.111,0V73.32a10.255,10.255,0,0,0,3.464,7.686v2.3A1.833,1.833,0,0,1,364.9,84.95a1.62,1.62,0,1,0,1.449,2.9,5.16,5.16,0,0,0,.8-.5l3.962,3.962v21.842a1.62,1.62,0,0,0,3.241,0V91.309l3.961-3.962a5.138,5.138,0,0,0,.8.5l8.774,4.387L385.235,94.9a6.772,6.772,0,0,0-2,4.819V113.15a1.62,1.62,0,1,0,3.241,0V99.716a3.552,3.552,0,0,1,1.047-2.528l2.521-2.521a3.612,3.612,0,0,1,.118.913v17.57a1.62,1.62,0,1,0,3.241,0V95.58a6.778,6.778,0,0,0-3.767-6.1M363.966,67.9v-1.51h0a7.047,7.047,0,0,1,7.039-7.039h3.463a7.047,7.047,0,0,1,7.039,7.039v1.8a24.781,24.781,0,0,1-11.335-3.148,1.62,1.62,0,0,0-2.045.2,10.612,10.612,0,0,1-4.161,2.656m8.771,20.443L368.993,84.6a5.132,5.132,0,0,0,.169-1.3v-.345a10.27,10.27,0,0,0,7.15,0V83.3a5.121,5.121,0,0,0,.169,1.3Zm0-7.987A7.047,7.047,0,0,1,365.7,73.32V70.708a13.711,13.711,0,0,0,3.8-2.321,28.785,28.785,0,0,0,10.275,2.921V73.32a7.047,7.047,0,0,1-7.039,7.039" transform="translate(-282.797 -43.991)" fill="#285c55"/>
    </g>
  </g>
  <path id="Path_2694" data-name="Path 2694" d="M-12250.379-21403.332s-1.527,3.92-4.736,2.244c-1.17-.705-2.83-15.678,13.125-16.576,10.258-.439,15.526,8.973,13.473,13.371-1.738,2.73-14.467,2.158-18.488-2.8" transform="translate(12297 21419.182)" fill="none" stroke="#f7ce46" stroke-linecap="round" stroke-width="3"/>
</svg>
