<svg xmlns="http://www.w3.org/2000/svg" xmlns:xlink="http://www.w3.org/1999/xlink" viewBox="0 0 70 90">
  <defs>
    <clipPath id="clip-path">
      <rect id="Rectangle_787" data-name="Rectangle 787" width="70" height="90" transform="translate(0.298 -0.411)" fill="#285c55"/>
    </clipPath>
  </defs>
  <g id="Group_2439" data-name="Group 2439" transform="translate(-0.298 0.411)" clip-path="url(#clip-path)">
    <path id="Path_2679" data-name="Path 2679" d="M185.471,8.825a1.471,1.471,0,0,0,1.471-1.471V1.471a1.471,1.471,0,0,0-2.942,0V7.354a1.471,1.471,0,0,0,1.471,1.471" transform="translate(-150.173 0.463)" fill="#285c55"/>
    <path id="Path_2680" data-name="Path 2680" d="M92.174,26.823l2.942,5.094a1.471,1.471,0,1,0,2.557-1.454l-.01-.017-2.942-5.094a1.471,1.471,0,1,0-2.557,1.454l.01.017" transform="translate(-75.065 -19.621)" fill="#285c55"/>
    <path id="Path_2681" data-name="Path 2681" d="M25.336,94.712l.017.01,5.094,2.942a1.471,1.471,0,0,0,1.488-2.538l-.017-.01-5.094-2.942a1.471,1.471,0,1,0-1.488,2.538" transform="translate(-20.086 -74.6)" fill="#285c55"/>
    <path id="Path_2682" data-name="Path 2682" d="M8.825,185.471A1.471,1.471,0,0,0,7.354,184H1.471a1.471,1.471,0,0,0,0,2.942H7.354a1.471,1.471,0,0,0,1.471-1.471" transform="translate(-0.002 -149.707)" fill="#285c55"/>
    <path id="Path_2683" data-name="Path 2683" d="M30.463,260.164l-.017.01-5.094,2.942a1.471,1.471,0,0,0,1.454,2.557l.017-.01,5.094-2.942a1.471,1.471,0,1,0-1.454-2.557" transform="translate(-20.086 -211.711)" fill="#285c55"/>
    <path id="Path_2684" data-name="Path 2684" d="M322.918,263.126l-.017-.01-5.094-2.942a1.471,1.471,0,1,0-1.488,2.538l.017.01,5.094,2.942a1.471,1.471,0,0,0,1.488-2.538" transform="translate(-257.57 -211.711)" fill="#285c55"/>
    <path id="Path_2685" data-name="Path 2685" d="M343.354,184h-5.883a1.471,1.471,0,0,0,0,2.942h5.883a1.471,1.471,0,0,0,0-2.942" transform="translate(-274.226 -149.707)" fill="#285c55"/>
    <path id="Path_2686" data-name="Path 2686" d="M317.117,97.86a1.471,1.471,0,0,0,.735-.2l5.094-2.942a1.471,1.471,0,1,0-1.454-2.557l-.017.01-5.094,2.942a1.471,1.471,0,0,0,.736,2.745" transform="translate(-257.615 -74.599)" fill="#285c55"/>
    <path id="Path_2687" data-name="Path 2687" d="M260.729,32.455h0a1.471,1.471,0,0,0,2.009-.539h0l2.942-5.094a1.471,1.471,0,0,0-2.538-1.488l-.01.017-2.942,5.094a1.471,1.471,0,0,0,.537,2.01" transform="translate(-212.195 -19.62)" fill="#285c55"/>
    <path id="Path_2688" data-name="Path 2688" d="M136.179,189.417a1.471,1.471,0,0,0,1.471-1.471V171.767h2.942a5.883,5.883,0,1,0-5.883-5.883v2.942h-2.942v-2.942a5.883,5.883,0,1,0-5.883,5.883h2.942v16.179a1.471,1.471,0,1,0,2.942,0V171.767h2.942v16.179a1.471,1.471,0,0,0,1.471,1.471m1.471-23.534a2.942,2.942,0,1,1,2.942,2.942H137.65Zm-8.825,2.942h-2.942a2.942,2.942,0,1,1,2.942-2.942Z" transform="translate(-97.939 -130.12)" fill="#f7ce46"/>
    <path id="Path_2689" data-name="Path 2689" d="M88.736,64.029a23.534,23.534,0,0,0-16.06,41.7,4.383,4.383,0,0,1,1.68,3.364v3.449a4.413,4.413,0,0,0,2.942,4.142v1.741a4.385,4.385,0,0,0,1.147,2.942,4.345,4.345,0,0,0,0,5.883A4.393,4.393,0,0,0,81.71,134.6a1.434,1.434,0,0,0,1.209-2.261,1.56,1.56,0,0,0-.165-.254,1.52,1.52,0,0,0-.409-.268c-.043-.022-.085-.04-.129-.057a1.559,1.559,0,0,0-.463-.093c-.015,0-.028-.009-.043-.009a1.471,1.471,0,1,1,0-2.942h5.883a1.471,1.471,0,1,0,0-2.942H81.71a1.471,1.471,0,1,1,0-2.942h5.883a1.471,1.471,0,1,0,0-2.942H81.71a1.471,1.471,0,0,1-1.471-1.471v-1.471h7.354a1.471,1.471,0,0,0,0-2.942H78.768A1.471,1.471,0,0,1,77.3,112.54v-3.449a7.312,7.312,0,0,0-2.758-5.641A20.592,20.592,0,0,1,88.6,66.973,20.829,20.829,0,0,1,108.185,87.41a20.471,20.471,0,0,1-7.641,16.125,7.291,7.291,0,0,0-2.655,5.726v3.279a1.471,1.471,0,0,1-1.471,1.471H92.006a1.471,1.471,0,0,0,0,2.942h2.942v1.471a1.471,1.471,0,0,1-1.471,1.471H92.006a1.471,1.471,0,0,0,0,2.942h1.471a1.471,1.471,0,1,1,0,2.942H92.006a1.471,1.471,0,0,0,0,2.942h1.471a1.471,1.471,0,1,1,0,2.942H86.123a1.471,1.471,0,0,0,0,2.942h5.632a4.413,4.413,0,0,1-7.459,1.461,1.471,1.471,0,1,0-2.2,1.956,7.338,7.338,0,0,0,12.724-3.649,4.37,4.37,0,0,0,1.919-7.122,4.345,4.345,0,0,0,0-5.883,4.385,4.385,0,0,0,1.147-2.942v-1.741a4.413,4.413,0,0,0,2.942-4.142v-3.279a4.422,4.422,0,0,1,1.561-3.437,23.394,23.394,0,0,0,8.735-18.436A23.807,23.807,0,0,0,88.736,64.029" transform="translate(-52.295 -51.772)" fill="#285c55"/>
  </g>
</svg>
