<svg xmlns="http://www.w3.org/2000/svg" viewBox="0 0 22.646 22.643">
  <g id="arrow-down-short" transform="translate(-10.124 -10.125)">
    <path id="Path_2475" data-name="Path 2475" d="M10.6,17.348a1.617,1.617,0,0,1,2.29,0l8.557,8.562L30,17.348a1.619,1.619,0,1,1,2.29,2.29l-9.7,9.7a1.617,1.617,0,0,1-2.29,0l-9.7-9.7a1.617,1.617,0,0,1,0-2.29Z" transform="translate(0 2.952)" fill-rule="evenodd" fill="#F7CE46"/>
    <path id="Path_2476" data-name="Path 2476" d="M18.492,10.125a1.617,1.617,0,0,1,1.617,1.617V27.914a1.617,1.617,0,1,1-3.234,0V11.742A1.617,1.617,0,0,1,18.492,10.125Z" transform="translate(2.954)" fill-rule="evenodd" fill="#F7CE46"/>
  </g>
</svg>
