<?xml version="1.0" encoding="utf-8"?>
<!-- Generator: Adobe Illustrator 26.4.1, SVG Export Plug-In . SVG Version: 6.00 Build 0)  -->
<svg version="1.1" id="Layer_1" xmlns="http://www.w3.org/2000/svg" xmlns:xlink="http://www.w3.org/1999/xlink" x="0px" y="0px"
	 viewBox="0 0 211 211" style="enable-background:new 0 0 211 211;" xml:space="preserve">
<style type="text/css">
	.st0{clip-path:url(#SVGID_00000072249099986766378880000004849285643418532259_);}
	.st1{clip-path:url(#SVGID_00000074428118608343102880000015165034303924680577_);}
	.st2{fill:#FFFFFF;}
</style>
<g>
	<g>
		<defs>
			<rect id="SVGID_1_" x="0" y="0" transform="matrix(0.9846 -0.1746 0.1746 0.9846 -16.7991 20.0412)" width="211" height="211"/>
		</defs>
		<clipPath id="SVGID_00000004507174055372636100000006362222476469444261_">
			<use xlink:href="#SVGID_1_"  style="overflow:visible;"/>
		</clipPath>
		<g id="Everyday_for_future" style="clip-path:url(#SVGID_00000004507174055372636100000006362222476469444261_);">
			<g>
				<g>
					<defs>
						
							<rect id="SVGID_00000052827205921069184600000000530305258196054922_" x="-0.1" y="0.1" transform="matrix(0.9846 -0.1746 0.1746 0.9846 -16.7549 19.9507)" width="210.2" height="210.2"/>
					</defs>
					<clipPath id="SVGID_00000129920060109130016090000001595846956643056565_">
						<use xlink:href="#SVGID_00000052827205921069184600000000530305258196054922_"  style="overflow:visible;"/>
					</clipPath>
					
						<g id="Gruppe_2601" transform="translate(0)" style="clip-path:url(#SVGID_00000129920060109130016090000001595846956643056565_);">
						<g id="Gruppe_2583" transform="translate(0 -0.002)">
							<path id="Pfad_2991" class="st2" d="M99.8,206.9c-0.6,0-1.2,0-1.8-0.1c-0.6-0.1-1.2-0.1-1.8-0.2c-1.2-0.1-2.3-0.2-3.5-0.3
								l-3.5-0.5c-38.5-6-70.3-33.5-81.7-70.8c-1.6-5.1-2.7-10.3-3.5-15.6c-0.7-5.3-1-10.6-1-16l0,0c0-1.1,0.1-2.1,0.1-3.2
								c0-1.1,0.1-2.1,0.2-3.2C4,90.7,5.1,84.4,6.8,78.2c1.7-6.2,4-12.2,6.8-17.9C25,37,44.9,19,69.1,9.8c0,0,0.7-0.3,2.2-0.8
								c0.8-0.3,1.7-0.6,2.9-0.9c0.6-0.2,1.2-0.4,1.9-0.6c0.7-0.2,1.4-0.4,2.2-0.6c0.8-0.2,1.6-0.4,2.5-0.7c0.9-0.2,1.8-0.4,2.8-0.6
								s2-0.4,3.1-0.6s2.2-0.4,3.4-0.6c5.5-0.8,11.1-1.2,16.7-1.1c5.4,0.1,10.8,0.6,16.2,1.6c2.3,0.5,4.4,0.8,6.2,1.3
								c0.9,0.2,1.8,0.5,2.7,0.7c0.8,0.2,1.6,0.5,2.4,0.7c3,0.8,5.1,1.7,6.6,2.2c0.7,0.2,1.3,0.5,1.6,0.6c0.4,0.2,0.5,0.2,0.5,0.2
								c11.5,4.6,22.1,11.3,31.2,19.7c9.1,8.4,16.6,18.4,22.1,29.5s9,23.1,10.2,35.5c0.1,0.9,0.2,1.9,0.2,2.9s0.1,1.9,0.2,2.9
								c0.1,1.9,0,3.8,0.1,5.8l0,0c-0.2,8.5-1.4,17-3.6,25.3c-3.3,12-8.8,23.2-16.1,33.2c-7.3,10-16.4,18.6-26.8,25.4
								c-10.4,6.7-22,11.5-34.1,14.1c-7.5,1.6-15.2,2.3-22.9,2.2l0,0C102.2,207,101,206.9,99.8,206.9 M89.5,1.3L86,1.8
								c-1.1,0.2-2.2,0.5-3.2,0.7c-1,0.2-2,0.4-2.9,0.6l-2.5,0.7c-0.8,0.2-1.6,0.4-2.2,0.6l-2,0.6C72,5.4,71,5.7,70.3,6
								C68.7,6.6,68,6.8,68,6.8C36.5,18.7,12.6,44.9,3.7,77.4C2,83.8,0.8,90.3,0.3,96.9c-0.1,1.1-0.1,2.2-0.2,3.3L0,103.4l0,0
								c-0.1,5.5,0.3,11,1,16.5c0.8,5.4,2,10.8,3.6,16.1c11.8,38.5,44.5,66.8,84.3,73c1.2,0.2,2.4,0.3,3.6,0.5
								c1.2,0.1,2.4,0.2,3.6,0.3c0.6,0.1,1.2,0.1,1.8,0.2l1.8,0.1l3.6,0.2l0,0c7.9,0.1,15.8-0.7,23.6-2.3
								c12.5-2.6,24.5-7.6,35.2-14.5c10.7-7,20.1-15.8,27.7-26.2c7.6-10.3,13.2-21.9,16.6-34.3c2.3-8.5,3.5-17.3,3.7-26.1l0,0
								c0-2,0-4-0.1-5.9c-0.1-1-0.1-2-0.2-3c-0.1-1-0.1-2-0.2-3c-1.2-12.7-4.8-25.2-10.5-36.6C193.4,47,185.7,36.7,176.3,28
								S156,12.4,144.1,7.7c0,0-0.2-0.1-0.5-0.2s-0.9-0.4-1.7-0.6c-1.5-0.5-3.7-1.4-6.8-2.3c-0.8-0.2-1.6-0.5-2.4-0.7
								c-0.9-0.2-1.8-0.4-2.8-0.7c-1.9-0.5-4.1-0.9-6.4-1.4c-5.5-0.9-11.1-1.5-16.7-1.6C101,0,95.2,0.4,89.5,1.3"/>
						</g>
						<g id="Gruppe_2584" transform="translate(55.008 66.721)">
							<path id="Pfad_2992" class="st2" d="M7.6,22.8c0,0.6-0.2,0.8-0.8,0.8l-3.1-0.1c-0.2,0-0.3,0.1-0.3,0.3l-0.1,5.7
								c0,0.2,0.1,0.3,0.3,0.3L7.8,30c0.6,0,0.8,0.2,0.8,0.8l0,2.9c0,0.6-0.2,0.8-0.8,0.8l-8.6-0.1c-0.6,0-0.8-0.2-0.8-0.8l0.1-1.8
								l0.3-20.5l0-1.8c0-0.6,0.2-0.8,0.8-0.8L8,8.6c0.6,0,0.8,0.2,0.8,0.8l0,2.8C8.8,12.8,8.6,13,8,13l-4.1-0.1
								c-0.2,0-0.3,0.1-0.3,0.3l-0.1,5.2c0,0.2,0.1,0.3,0.3,0.3l3.1,0c0.6,0,0.8,0.2,0.8,0.8L7.6,22.8z"/>
						</g>
						<g id="Gruppe_2585" transform="translate(70.156 68.756)">
							<path id="Pfad_2993" class="st2" d="M-0.5,32.5c-0.4,0.1-0.9-0.3-0.9-0.7v-0.1L-5.7,7.4C-5.8,6.8-5.5,6.6-5,6.6l3.2,0.1
								C-1.4,6.6-1,6.9-0.9,7.3c0,0.1,0,0.1,0,0.2L0.5,18c0.2,1,0.3,2.4,0.4,3.1H1C1.1,20.3,1.3,19,1.5,18L3.3,7.5
								c0-0.4,0.3-0.8,0.7-0.8c0.1,0,0.1,0,0.2,0l2.9,0c0.5,0,0.8,0.3,0.6,0.8l-5,24.2c0,0.5-0.4,0.8-0.8,0.8H1.8L-0.5,32.5z"/>
						</g>
						<g id="Gruppe_2586" transform="translate(80.074 71.593)">
							<path id="Pfad_2994" class="st2" d="M8,18.4c0,0.6-0.2,0.8-0.8,0.8l-3.1-0.1c-0.2,0-0.3,0.1-0.3,0.3l-0.1,5.7
								c0,0.2,0.1,0.3,0.3,0.3l4.2,0.1c0.6,0,0.8,0.2,0.8,0.8l0,2.9C9,29.8,8.8,30,8.2,30l-8.6-0.1c-0.6,0-0.8-0.2-0.8-0.8l0.1-1.8
								l0.3-20.5l0-1.8c0-0.8,0.2-1,0.8-1l8.5,0.1c0.6,0,0.8,0.2,0.8,0.8l0,2.8c0,0.6-0.2,0.8-0.8,0.8l-4.2,0C4.1,8.4,4,8.5,4,8.7
								l0,5.2c0,0.2,0.1,0.3,0.3,0.3l3.1,0c0.6,0,0.8,0.2,0.8,0.8L8,18.4z"/>
						</g>
						<g id="Gruppe_2587" transform="translate(91.614 73.837)">
							<path id="Pfad_2995" class="st2" d="M4.4,17.4H4.2c-0.1,0-0.1,0-0.1,0.1L4,25.1L4,27c0,0.6-0.2,0.8-0.8,0.8l-3.4-0.1
								c-0.6,0-0.8-0.2-0.8-0.8l0.1-1.8l0.3-20.5l0-1.8C-0.6,2.2-0.4,2,0.2,2l4.7,0c5.5,0.1,7,3.3,7,7.1v0.1
								c-0.1,4.5-1.7,5.5-3.6,6.1v0.2c1.5,0.5,3.3,1.5,3.3,5.7c-0.1,2,0,4,0.4,6c0,0.2,0.1,0.3,0.1,0.5l0,0c0,0.1-0.1,0.2-0.2,0.2
								c0,0,0,0-0.1,0l-3.8,0c-0.5,0.1-0.9-0.3-1-0.8l0,0c-0.4-2.2-0.5-4.5-0.4-6.8C6.6,18.6,5.9,17.5,4.4,17.4 M4.4,6.3
								c-0.1,0-0.2,0.1-0.2,0.2l0,0l-0.1,6.3c0,0.1,0,0.2,0.2,0.2h0.2c1.8,0,2.3-1.3,2.4-3.2V9.7c0-1.9-0.4-3.3-2.2-3.4H4.4z"/>
						</g>
						<g id="Gruppe_2588" transform="translate(108.501 76.313)">
							<path id="Pfad_2996" class="st2" d="M1.5,6.3c0.2,1,0.4,1.8,0.5,2.6h0.1c0.2-0.8,0.4-1.7,0.6-2.5l1.4-5.7
								c0.1-0.5,0.5-0.8,1-0.7l0,0l3.2,0.1c0.5,0,0.7,0.3,0.6,0.8L4.5,15.1c0,0.2-0.1,0.4-0.1,0.5L4.3,23l0,1.8
								c0,0.6-0.2,0.8-0.8,0.8l-3.4,0c-0.6,0-0.8-0.2-0.8-0.8l0.1-1.8l0.1-7.4c0-0.2,0-0.4-0.1-0.5L-4.4,0.4c-0.1-0.5,0-0.8,0.6-0.7
								l3.3,0.1C0-0.3,0.4,0,0.5,0.5v0.1L1.5,6.3z"/>
						</g>
						<g id="Gruppe_2589" transform="translate(118.805 79.121)">
							<path id="Pfad_2997" class="st2" d="M5.7-2.8C7.4-2.9,9-2.3,10.3-1.2c1.4,1.3,2.2,3.5,2.1,7.2l-0.1,8.4
								c-0.1,3.8-0.9,5.9-2.4,7.2c-1.3,1-2.9,1.5-4.6,1.4l-5-0.1c-0.6,0-0.8-0.2-0.8-0.8l0.1-1.8l0.3-20.5l0-1.8
								c0-0.6,0.2-0.8,0.8-0.8L5.7-2.8z M5.4,1.5l-0.3,0c-0.2,0-0.3,0.1-0.3,0.2L4.5,18.4c0,0.2,0.1,0.3,0.3,0.3h0.3
								c2,0,2.2-1.9,2.2-3.9l0.2-9.3C7.5,3.7,7.5,1.6,5.4,1.5"/>
						</g>
						<g id="Gruppe_2590" transform="translate(131.716 82.672)">
							<path id="Pfad_2998" class="st2" d="M5.3,16C5.1,16,5,16.1,5,16.3l-0.5,2.6c0,0.4-0.4,0.8-0.8,0.8H3.6l-3.1,0
								c-0.5,0-0.8-0.3-0.6-0.8L5.4-5.4c0.1-0.5,0.5-0.8,1-0.7l0,0l2.3,0c0.5-0.1,0.9,0.3,1,0.8l0,0l4.9,24.4
								c0.1,0.5-0.1,0.8-0.6,0.7l-3.4-0.1c-0.4,0.1-0.9-0.3-0.9-0.7v-0.1l-0.4-2.6C9.3,16.1,9.2,16,9,16L5.3,16z M6.7,6.9l-0.9,4.5
								c0,0.2,0,0.3,0.2,0.3l2,0c0.2,0,0.3-0.1,0.3-0.3L7.7,6.9c-0.2-1-0.3-2.4-0.4-3.1l-0.1,0C7.1,4.5,7,5.9,6.7,6.9"/>
						</g>
						<g id="Gruppe_2591" transform="translate(148.509 84.089)">
							<path id="Pfad_2999" class="st2" d="M2.2-0.8c0.2,1,0.4,1.8,0.5,2.6h0.1C3,1,3.2,0.1,3.5-0.8l1.4-5.7C5-7,5.4-7.3,5.9-7.2
								l0,0l3.1,0c0.5,0,0.7,0.3,0.6,0.8L5.2,8c0,0.2-0.1,0.4-0.1,0.5L5,15.9l0,1.8c0,0.6-0.2,0.8-0.8,0.8l-3.4-0.1
								c-0.6,0-0.8-0.2-0.8-0.8l0.1-1.8l0.1-7.4c0-0.2,0-0.4-0.1-0.5L-3.6-6.7c-0.1-0.5,0-0.8,0.6-0.7l3.3,0.1
								C0.7-7.4,1.2-7,1.2-6.6v0.1L2.2-0.8z"/>
						</g>
						<g id="Gruppe_2592" transform="translate(38.622 96.201)">
							<path id="Pfad_3000" class="st2" d="M13,25.6c0,0.6-0.2,0.8-0.8,0.8l-3.1-0.1c-0.2,0-0.3,0.1-0.3,0.3l-0.1,7.5l0,1.8
								c0,0.6-0.2,0.8-0.8,0.8l-3.4-0.1c-0.6,0-0.8-0.2-0.8-0.8L3.8,34l0.3-20.5l0-1.8c0-0.6,0.2-0.8,0.8-0.8l8.4,0.1
								c0.6,0,0.8,0.2,0.8,0.8l0,2.8c0,0.6-0.2,0.8-0.8,0.8l-3.9-0.1C9,15.3,9,15.4,9,15.6l-0.1,5.5c0,0.2,0.1,0.3,0.3,0.3h3.1
								c0.6,0,0.8,0.2,0.8,0.8L13,25.6z"/>
						</g>
						<g id="Gruppe_2593" transform="translate(50.636 98.839)">
							<path id="Pfad_3001" class="st2" d="M9.3,34.7c-1.7,0.1-3.3-0.5-4.6-1.6c-1.2-1.4-1.9-3.2-1.8-8.4L3,17.9
								c0.1-5.2,0.8-7,2.1-8.3C6.4,8.5,8,8,9.7,8.1C11.4,8,13,8.6,14.3,9.7c1.2,1.4,1.9,3.2,1.8,8.4L16,24.9c-0.1,5.2-0.8,7-2.1,8.3
								C12.6,34.4,11,34.9,9.3,34.7 M8.1,17L8,25.8c0,3,0,4.5,1.4,4.5c1.4,0,1.5-1.5,1.6-4.5l0.2-8.8c0-3-0.1-4.5-1.4-4.5
								C8.2,12.5,8.1,13.9,8.1,17"/>
						</g>
						<g id="Gruppe_2594" transform="translate(64.395 101.21)">
							<path id="Pfad_3002" class="st2" d="M9.6,21.8H9.4c-0.1,0-0.1,0-0.1,0.1l-0.1,7.6v1.8c0,0.6-0.2,0.8-0.8,0.8l-3.4,0
								c-0.6,0-0.8-0.2-0.8-0.8l0.1-1.8L4.6,8.9l0-1.8c0-0.6,0.2-0.8,0.8-0.8l4.7,0.1c5.5,0.1,7,3.3,7,7.1v0.1
								c-0.1,4.5-1.7,5.5-3.6,6.1v0.2c1.5,0.5,3.3,1.5,3.3,5.7c-0.1,2,0,4,0.4,6c0,0.2,0.1,0.3,0.1,0.5l0,0c0,0.1-0.1,0.2-0.2,0.3
								c0,0,0,0-0.1,0l-3.9-0.1c-0.5,0.1-0.9-0.3-1-0.7l0,0c-0.4-2.2-0.5-4.5-0.4-6.8C11.8,23,11.1,21.8,9.6,21.8 M9.6,10.6
								c-0.1,0-0.2,0.1-0.2,0.2l0,0l-0.1,6.3c0,0.1,0,0.2,0.2,0.2h0.2c1.8,0,2.3-1.3,2.4-3.2V14c0-1.9-0.4-3.3-2.2-3.4H9.6z"/>
						</g>
						<g id="Gruppe_2595" transform="translate(84.257 105.071)">
							<path id="Pfad_3003" class="st2" d="M13.9,17.5c0,0.6-0.2,0.8-0.8,0.8L10,18.2c-0.2,0-0.3,0.1-0.3,0.3L9.5,26v1.8
								c0,0.6-0.2,0.8-0.8,0.8l-3.4-0.1c-0.6,0-0.8-0.2-0.8-0.8l0.1-1.8L4.9,5.4l0-1.8C5,3,5.2,2.8,5.8,2.8l8.4,0.1
								c0.6,0,0.8,0.2,0.8,0.8l0,2.8c0,0.6-0.2,0.8-0.8,0.8l-3.9-0.1c-0.2,0-0.3,0.1-0.3,0.3L9.7,13c0,0.2,0.1,0.3,0.3,0.3l3.1,0
								c0.6,0,0.8,0.2,0.8,0.8L13.9,17.5z"/>
						</g>
						<g id="Gruppe_2596" transform="translate(96.171 107.203)">
							<path id="Pfad_3004" class="st2" d="M11.9,1.7c0-0.6,0.2-0.8,0.8-0.8L16.1,1c0.6,0,0.8,0.2,0.8,0.8l-0.1,1.8l-0.3,16.7
								c-0.1,4.4-2.5,6.8-6.4,6.7c-4-0.1-6.2-2.6-6.2-7L4.2,3.4l0-1.8C4.2,1,4.4,0.8,5,0.8l3.4,0.1c0.6,0,0.8,0.2,0.8,0.8L9.1,3.5
								L8.8,20.4c0,1.5,0.3,2.3,1.3,2.3s1.4-0.8,1.4-2.3L11.9,1.7z"/>
						</g>
						<g id="Gruppe_2597" transform="translate(112.369 109.874)">
							<path id="Pfad_3005" class="st2" d="M13.8,2.1c0,0.6-0.2,0.8-0.8,0.8l-2.3,0c-0.2,0-0.3,0.1-0.3,0.3L10,21.7l0,1.8
								c0,0.6-0.2,0.8-0.8,0.8l-3.4-0.1C5.2,24.2,5,24,5,23.4l0.1-1.8L5.4,3.1c0-0.2-0.1-0.3-0.3-0.3l-2.4,0C2.2,2.7,1.9,2.5,2,1.9
								l0-2.8c0-0.6,0.2-0.8,0.8-0.8L13-1.5c0.6,0,0.8,0.2,0.8,0.8L13.8,2.1z"/>
						</g>
						<g id="Gruppe_2598" transform="translate(122.829 112.385)">
							<path id="Pfad_3006" class="st2" d="M12.4-3c0-0.6,0.2-0.8,0.8-0.8l3.4,0.1c0.6,0,0.8,0.2,0.8,0.8l-0.1,1.8L17,15.6
								c-0.1,4.4-2.5,6.8-6.4,6.7c-4-0.1-6.2-2.6-6.2-7L4.7-1.3l0-1.8c0-0.6,0.2-0.8,0.8-0.8l3.4,0.1c0.6,0,0.8,0.2,0.8,0.8L9.6-1.2
								L9.3,15.7c0,1.5,0.3,2.3,1.3,2.3s1.4-0.8,1.4-2.3L12.4-3z"/>
						</g>
						<g id="Gruppe_2599" transform="translate(136.408 115.207)">
							<path id="Pfad_3007" class="st2" d="M11,9h-0.2c-0.1,0-0.1,0-0.1,0.1l-0.1,7.6l0,1.8c0,0.6-0.2,0.8-0.8,0.8l-3.4-0.1
								c-0.6,0-0.8-0.2-0.8-0.8l0.1-1.8L5.9-3.9l0-1.8c0-0.6,0.2-0.8,0.8-0.8l4.7,0.1c5.5,0.1,7,3.3,7,7.1v0.1
								c-0.1,4.5-1.7,5.5-3.6,6.1v0.2c1.5,0.5,3.3,1.5,3.3,5.7c-0.1,2,0,4,0.4,6c0,0.2,0.1,0.3,0.1,0.5l0,0c0,0.1-0.1,0.2-0.2,0.3
								c0,0,0,0-0.1,0l-3.9-0.1c-0.5,0.1-0.9-0.3-1-0.7l0,0C13,16.6,12.9,14.3,13,12C13.2,10.2,12.5,9,11,9 M11-2.2
								c-0.1,0-0.2,0.1-0.2,0.2l0,0l-0.1,6.3c0,0.1,0,0.2,0.2,0.2h0.2c1.8,0,2.3-1.3,2.4-3.2V1.2c0-1.9-0.4-3.3-2.2-3.4L11-2.2z"/>
						</g>
						<g id="Gruppe_2600" transform="translate(150.817 118.008)">
							<path id="Pfad_3008" class="st2" d="M15,5.3c0,0.6-0.2,0.8-0.8,0.8L11.1,6c-0.2,0-0.3,0.1-0.3,0.3L10.7,12
								c0,0.2,0.1,0.3,0.3,0.3l4.2,0.1c0.6,0,0.8,0.2,0.8,0.8l0,2.9c0,0.6-0.2,0.8-0.8,0.8l-8.6-0.1c-0.6,0-0.8-0.2-0.8-0.8l0.1-1.8
								L6.2-6.4l0-1.8C6.2-8.8,6.4-9.1,7-9l8.5,0.1c0.6,0,0.8,0.2,0.8,0.8v2.8c0,0.6-0.2,0.8-0.8,0.8l-4.1-0.1
								c-0.2,0-0.3,0.1-0.3,0.3L11,0.9c0,0.2,0.1,0.3,0.3,0.3l3.1,0c0.6,0,0.8,0.2,0.8,0.8L15,5.3z"/>
						</g>
					</g>
				</g>
			</g>
		</g>
	</g>
</g>
</svg>
