<?xml version="1.0" encoding="utf-8"?>
<!-- Generator: Adobe Illustrator 26.5.0, SVG Export Plug-In . SVG Version: 6.00 Build 0)  -->
<svg version="1.1" id="Ebene_1" xmlns="http://www.w3.org/2000/svg" xmlns:xlink="http://www.w3.org/1999/xlink" x="0px" y="0px"
	 viewBox="0 0 602 471" style="enable-background:new 0 0 602 471;" xml:space="preserve">
<style type="text/css">
	.st0{clip-path:url(#SVGID_00000077315123272462097790000017203764773379970710_);}
	.st1{clip-path:url(#SVGID_00000183208496904645142670000000482280570240389504_);}
	.st2{fill:#53C7A8;}
	.st3{enable-background:new    ;}
	.st4{fill:#FFFFFF;}
	.st5{fill:#F7CE46;}
</style>
<g>
	<defs>
		<rect id="SVGID_1_" y="0" width="602" height="471"/>
	</defs>
	<clipPath id="SVGID_00000126293201664590659130000016228627101210324401_">
		<use xlink:href="#SVGID_1_"  style="overflow:visible;"/>
	</clipPath>
	<g id="Zitat_DE" style="clip-path:url(#SVGID_00000126293201664590659130000016228627101210324401_);">
		<g id="Gruppe_2496" transform="translate(-1080.482 -1180.021)">
			<g id="Gruppe_2432" transform="translate(1080.482 1180.021)">
				<g>
					<defs>
						<rect id="SVGID_00000031169117908995183790000002842476485530401411_" y="0" width="601.6" height="470.9"/>
					</defs>
					<clipPath id="SVGID_00000031928187378482380840000006469326318414709933_">
						<use xlink:href="#SVGID_00000031169117908995183790000002842476485530401411_"  style="overflow:visible;"/>
					</clipPath>
					
						<g id="Gruppe_2431" transform="translate(0 0)" style="clip-path:url(#SVGID_00000031928187378482380840000006469326318414709933_);">
						<path id="Pfad_2671" class="st2" d="M577.5,233.2C658.1,100.8,520.8-1.6,404.8,0c-85.1,1.2-171.6-3.6-256.2,8.3
							C47.4,22.6-2.9,77,0.1,180.5C2.5,261.8,41.7,360.8,116.9,403c81.6,45.8,173.8,40.3,257,5.2c24.9,24.4,71.9,58.5,142.7,62.6
							c0,0-35.6-62.1-36.8-126.9C519.1,311.9,552.8,273.8,577.5,233.2"/>
					</g>
				</g>
			</g>
			<g id="Gruppe_2434" transform="translate(19 -21)">
				<g class="st3">
					<path class="st4" d="M1177.8,1522h-1.6l-3.8-5.1l-1.1,1v4.2h-1.4v-10.7h1.4v5.3c0.3-0.3,0.6-0.7,0.9-1c0.3-0.3,0.6-0.7,0.9-1
						l2.9-3.2h1.6l-4.2,4.7L1177.8,1522z"/>
					<path class="st4" d="M1182.1,1513.8c1,0,1.7,0.2,2.2,0.6c0.5,0.4,0.7,1.1,0.7,2.1v5.5h-1l-0.3-1.1h-0.1c-0.4,0.4-0.7,0.8-1.1,1
						s-0.9,0.3-1.6,0.3c-0.7,0-1.3-0.2-1.8-0.6c-0.5-0.4-0.7-1-0.7-1.8c0-0.8,0.3-1.4,0.9-1.9c0.6-0.4,1.6-0.7,2.9-0.7l1.4,0v-0.5
						c0-0.7-0.1-1.1-0.4-1.4s-0.7-0.4-1.2-0.4c-0.4,0-0.8,0.1-1.2,0.2c-0.4,0.1-0.7,0.3-1.1,0.4l-0.4-1c0.3-0.2,0.8-0.4,1.2-0.5
						S1181.6,1513.8,1182.1,1513.8z M1183.7,1518.1l-1.2,0c-1,0-1.7,0.2-2.1,0.5c-0.4,0.3-0.6,0.7-0.6,1.2c0,0.5,0.1,0.8,0.4,1
						c0.3,0.2,0.6,0.3,1.1,0.3c0.7,0,1.2-0.2,1.7-0.6s0.7-1,0.7-1.7V1518.1z"/>
					<path class="st4" d="M1191.2,1513.8c0.1,0,0.3,0,0.5,0c0.2,0,0.3,0,0.5,0.1l-0.2,1.2c-0.1,0-0.3-0.1-0.4-0.1
						c-0.2,0-0.3,0-0.4,0c-0.4,0-0.8,0.1-1.2,0.3c-0.4,0.2-0.6,0.5-0.9,0.9c-0.2,0.4-0.3,0.9-0.3,1.4v4.3h-1.3v-8h1.1l0.1,1.5h0.1
						c0.2-0.4,0.6-0.8,1-1.1S1190.6,1513.8,1191.2,1513.8z"/>
					<path class="st4" d="M1195,1522h-1.3v-11.4h1.3V1522z"/>
					<path class="st4" d="M1204.4,1511.3c1.4,0,2.4,0.3,3.1,0.8c0.6,0.5,1,1.3,1,2.3c0,0.6-0.1,1.1-0.4,1.7
						c-0.3,0.5-0.7,0.9-1.3,1.3c-0.6,0.3-1.5,0.5-2.5,0.5h-1.2v4.2h-1.4v-10.7H1204.4z M1204.3,1512.5h-1.4v4.2h1.1
						c1,0,1.8-0.2,2.3-0.5s0.8-0.9,0.8-1.7c0-0.7-0.2-1.2-0.7-1.5C1205.9,1512.6,1205.3,1512.5,1204.3,1512.5z"/>
					<path class="st4" d="M1217.5,1518c0,1.3-0.3,2.4-1,3.1c-0.7,0.7-1.6,1.1-2.7,1.1c-0.7,0-1.3-0.2-1.9-0.5
						c-0.6-0.3-1-0.8-1.3-1.4c-0.3-0.6-0.5-1.4-0.5-2.3c0-1.3,0.3-2.4,1-3.1c0.7-0.7,1.6-1.1,2.7-1.1c0.7,0,1.4,0.2,1.9,0.5
						s1,0.8,1.3,1.4C1217.3,1516.3,1217.5,1517.1,1217.5,1518z M1211.4,1518c0,1,0.2,1.7,0.6,2.3s1,0.8,1.8,0.8
						c0.8,0,1.4-0.3,1.8-0.8c0.4-0.6,0.6-1.3,0.6-2.3s-0.2-1.7-0.6-2.2c-0.4-0.5-1-0.8-1.8-0.8s-1.4,0.3-1.8,0.8
						C1211.6,1516.3,1211.4,1517,1211.4,1518z"/>
					<path class="st4" d="M1223.4,1513.8c1,0,1.8,0.3,2.4,1c0.6,0.7,0.9,1.7,0.9,3.1c0,1.4-0.3,2.4-0.9,3.1
						c-0.6,0.7-1.4,1.1-2.4,1.1c-0.6,0-1.1-0.1-1.5-0.3c-0.4-0.2-0.7-0.5-1-0.8h-0.1c0,0.2,0,0.4,0.1,0.6c0,0.3,0,0.5,0,0.7v3.3
						h-1.3V1514h1.1l0.2,1.1h0.1c0.2-0.3,0.6-0.6,0.9-0.9S1222.7,1513.8,1223.4,1513.8z M1223.2,1514.9c-0.8,0-1.4,0.2-1.7,0.7
						c-0.3,0.5-0.5,1.2-0.5,2.1v0.3c0,1,0.2,1.8,0.5,2.3c0.3,0.5,0.9,0.8,1.8,0.8c0.5,0,0.9-0.1,1.2-0.4c0.3-0.3,0.6-0.6,0.7-1.1
						c0.2-0.5,0.2-1,0.2-1.6c0-0.9-0.2-1.7-0.5-2.2S1223.9,1514.9,1223.2,1514.9z"/>
					<path class="st4" d="M1232.6,1513.8c1,0,1.8,0.3,2.4,1c0.6,0.7,0.9,1.7,0.9,3.1c0,1.4-0.3,2.4-0.9,3.1
						c-0.6,0.7-1.4,1.1-2.4,1.1c-0.6,0-1.1-0.1-1.5-0.3c-0.4-0.2-0.7-0.5-1-0.8h-0.1c0,0.2,0,0.4,0.1,0.6c0,0.3,0,0.5,0,0.7v3.3
						h-1.3V1514h1.1l0.2,1.1h0.1c0.2-0.3,0.6-0.6,0.9-0.9S1232,1513.8,1232.6,1513.8z M1232.4,1514.9c-0.8,0-1.4,0.2-1.7,0.7
						c-0.3,0.5-0.5,1.2-0.5,2.1v0.3c0,1,0.2,1.8,0.5,2.3c0.3,0.5,0.9,0.8,1.8,0.8c0.5,0,0.9-0.1,1.2-0.4c0.3-0.3,0.6-0.6,0.7-1.1
						c0.2-0.5,0.2-1,0.2-1.6c0-0.9-0.2-1.7-0.5-2.2S1233.1,1514.9,1232.4,1514.9z"/>
					<path class="st4" d="M1241.1,1513.8c0.7,0,1.3,0.2,1.8,0.5s0.9,0.7,1.1,1.3s0.4,1.2,0.4,1.9v0.8h-5.5c0,0.9,0.3,1.6,0.7,2.1
						c0.4,0.5,1.1,0.7,1.9,0.7c0.5,0,1,0,1.4-0.1c0.4-0.1,0.8-0.2,1.2-0.4v1.2c-0.4,0.2-0.8,0.3-1.2,0.4c-0.4,0.1-0.9,0.1-1.4,0.1
						c-0.8,0-1.4-0.2-2-0.5c-0.6-0.3-1-0.8-1.4-1.4c-0.3-0.6-0.5-1.4-0.5-2.3c0-0.9,0.1-1.6,0.4-2.3c0.3-0.6,0.7-1.1,1.2-1.5
						C1239.8,1514,1240.4,1513.8,1241.1,1513.8z M1241.1,1514.9c-0.6,0-1.1,0.2-1.5,0.6c-0.4,0.4-0.6,1-0.7,1.7h4.1
						c0-0.7-0.2-1.2-0.5-1.7C1242.3,1515.1,1241.8,1514.9,1241.1,1514.9z"/>
					<path class="st4" d="M1250.2,1513.8c0.1,0,0.3,0,0.5,0c0.2,0,0.3,0,0.5,0.1l-0.2,1.2c-0.1,0-0.3-0.1-0.4-0.1
						c-0.2,0-0.3,0-0.4,0c-0.4,0-0.8,0.1-1.2,0.3c-0.4,0.2-0.6,0.5-0.9,0.9c-0.2,0.4-0.3,0.9-0.3,1.4v4.3h-1.3v-8h1.1l0.1,1.5h0.1
						c0.2-0.4,0.6-0.8,1-1.1S1249.7,1513.8,1250.2,1513.8z"/>
				</g>
				<g class="st3">
					<path class="st5" d="M1123.7,1349.1v-6c3.2-0.9,6.3-2.6,9.1-5.2c2.8-2.6,4.2-5.3,4.2-8.1c0-1.9-0.7-2.8-2-2.8
						c-0.3,0-0.9,0.1-1.9,0.4c-1,0.3-1.9,0.5-2.9,0.5c-3.3,0-5.9-1.1-7.7-3.4c-1.8-2.3-2.7-4.7-2.7-7.3c0-3.3,1.1-6.1,3.3-8.3
						c2.2-2.2,4.9-3.3,7.9-3.3c4.6,0,8.1,1.7,10.4,5c2.3,3.3,3.5,7.3,3.5,11.8c0,5.6-1.8,10.9-5.4,16.1
						C1136,1343.8,1130.7,1347.3,1123.7,1349.1z M1156.3,1349.1v-6c3.5-1,6.6-2.8,9.3-5.5c2.7-2.7,4-5.3,4-7.8
						c0-1.9-0.6-2.8-1.9-2.8c-0.3,0-1,0.1-2,0.4c-1,0.3-1.9,0.5-2.8,0.5c-3,0-5.5-1-7.5-3.1c-2-2.1-3-4.6-3-7.6
						c0-3.7,1.2-6.6,3.6-8.6c2.4-2,4.9-3,7.6-3c4.3,0,7.7,1.6,10.2,4.7c2.5,3.1,3.7,7.2,3.7,12.1c0,5.8-1.9,11.2-5.6,16.3
						C1168.2,1343.8,1163,1347.3,1156.3,1349.1z"/>
				</g>
				<g class="st3">
					<path class="st4" d="M1185.9,1333.5v12c0,1.3-0.3,2.4-0.8,3.5c-0.6,1-1.4,1.8-2.6,2.4c-1.1,0.6-2.6,0.9-4.3,0.9
						c-2.5,0-4.3-0.6-5.6-1.9s-1.9-2.9-1.9-5v-12h3.9v11.4c0,1.5,0.3,2.6,0.9,3.2c0.6,0.6,1.6,0.9,2.8,0.9c1.3,0,2.2-0.3,2.8-1
						c0.6-0.7,0.9-1.7,0.9-3.2v-11.3H1185.9z"/>
					<path class="st4" d="M1198.2,1337.6c1.5,0,2.7,0.4,3.7,1.2c0.9,0.8,1.4,2.1,1.4,4v9.3h-3.9v-8.3c0-1-0.2-1.8-0.5-2.3
						c-0.4-0.5-0.9-0.8-1.7-0.8c-1.2,0-2,0.4-2.4,1.2c-0.4,0.8-0.6,2-0.6,3.5v6.7h-3.9v-14.2h3l0.5,1.8h0.2c0.5-0.7,1.1-1.3,1.9-1.6
						C1196.5,1337.7,1197.3,1337.6,1198.2,1337.6z"/>
					<path class="st4" d="M1217.2,1347.8c0,1.4-0.5,2.5-1.5,3.3c-1,0.8-2.5,1.2-4.5,1.2c-1,0-1.8-0.1-2.5-0.2
						c-0.7-0.1-1.4-0.3-2.1-0.6v-3.2c0.8,0.3,1.6,0.6,2.5,0.9c0.9,0.2,1.7,0.3,2.3,0.3c0.7,0,1.3-0.1,1.6-0.3
						c0.3-0.2,0.5-0.5,0.5-0.9c0-0.2-0.1-0.5-0.2-0.7c-0.1-0.2-0.4-0.4-0.8-0.6c-0.4-0.2-1.1-0.6-2-0.9c-0.9-0.4-1.6-0.8-2.2-1.1
						c-0.6-0.4-1-0.8-1.3-1.4c-0.3-0.5-0.4-1.2-0.4-2c0-1.3,0.5-2.3,1.5-3c1-0.7,2.4-1,4.1-1c0.9,0,1.7,0.1,2.5,0.3
						c0.8,0.2,1.6,0.5,2.5,0.9l-1.2,2.8c-0.7-0.3-1.4-0.5-2-0.7s-1.3-0.3-1.9-0.3c-1.1,0-1.7,0.3-1.7,0.9c0,0.2,0.1,0.4,0.2,0.6
						c0.1,0.2,0.4,0.4,0.9,0.6c0.4,0.2,1.1,0.5,1.9,0.8c0.8,0.3,1.5,0.7,2.1,1c0.6,0.4,1,0.8,1.4,1.3
						C1217,1346.3,1217.2,1347,1217.2,1347.8z"/>
					<path class="st4" d="M1226,1337.6c2,0,3.5,0.6,4.7,1.7c1.1,1.1,1.7,2.7,1.7,4.8v1.9h-9.2c0,1.1,0.4,2,1,2.6
						c0.6,0.6,1.5,0.9,2.6,0.9c0.9,0,1.7-0.1,2.5-0.3c0.8-0.2,1.5-0.5,2.3-0.8v3c-0.7,0.3-1.4,0.6-2.2,0.8c-0.8,0.2-1.7,0.2-2.8,0.2
						c-1.4,0-2.7-0.3-3.8-0.8c-1.1-0.5-2-1.3-2.6-2.4c-0.6-1.1-0.9-2.4-0.9-4.1c0-1.6,0.3-3,0.8-4.1c0.6-1.1,1.3-1.9,2.4-2.5
						C1223.5,1337.8,1224.7,1337.6,1226,1337.6z M1226,1340.3c-0.8,0-1.4,0.2-1.9,0.7c-0.5,0.5-0.8,1.2-0.9,2.3h5.4
						c0-0.8-0.2-1.6-0.7-2.1S1226.9,1340.3,1226,1340.3z"/>
					<path class="st4" d="M1243.5,1337.6c0.2,0,0.4,0,0.7,0c0.3,0,0.5,0,0.6,0.1l-0.3,3.6c-0.1,0-0.3-0.1-0.5-0.1
						c-0.2,0-0.4,0-0.6,0c-0.7,0-1.3,0.1-1.9,0.4c-0.6,0.2-1.1,0.6-1.5,1.1c-0.4,0.5-0.6,1.2-0.6,2.1v7.2h-3.9v-14.2h2.9l0.6,2.4
						h0.2c0.4-0.7,1-1.4,1.7-1.9C1241.7,1337.8,1242.5,1337.6,1243.5,1337.6z"/>
					<path class="st4" d="M1252.7,1337.6c2,0,3.5,0.6,4.7,1.7c1.1,1.1,1.7,2.7,1.7,4.8v1.9h-9.2c0,1.1,0.4,2,1,2.6
						c0.6,0.6,1.5,0.9,2.6,0.9c0.9,0,1.7-0.1,2.5-0.3c0.8-0.2,1.5-0.5,2.3-0.8v3c-0.7,0.3-1.4,0.6-2.2,0.8c-0.8,0.2-1.7,0.2-2.8,0.2
						c-1.4,0-2.7-0.3-3.8-0.8c-1.1-0.5-2-1.3-2.6-2.4c-0.6-1.1-0.9-2.4-0.9-4.1c0-1.6,0.3-3,0.8-4.1c0.6-1.1,1.3-1.9,2.4-2.5
						C1250.2,1337.8,1251.3,1337.6,1252.7,1337.6z M1252.7,1340.3c-0.8,0-1.4,0.2-1.9,0.7c-0.5,0.5-0.8,1.2-0.9,2.3h5.4
						c0-0.8-0.2-1.6-0.7-2.1S1253.6,1340.3,1252.7,1340.3z"/>
					<path class="st4" d="M1279.9,1352h-10.7v-18.6h10.7v3.2h-6.8v4.1h6.3v3.2h-6.3v4.8h6.8V1352z"/>
					<path class="st4" d="M1285.5,1332.3c0.6,0,1.1,0.1,1.5,0.4c0.4,0.3,0.6,0.8,0.6,1.5c0,0.7-0.2,1.2-0.6,1.5s-0.9,0.4-1.5,0.4
						c-0.6,0-1.1-0.1-1.5-0.4s-0.6-0.8-0.6-1.5c0-0.7,0.2-1.2,0.6-1.5C1284.4,1332.4,1284.9,1332.3,1285.5,1332.3z M1287.4,1337.8
						v14.2h-3.9v-14.2H1287.4z"/>
					<path class="st4" d="M1299.5,1337.6c1.5,0,2.7,0.4,3.7,1.2c0.9,0.8,1.4,2.1,1.4,4v9.3h-3.9v-8.3c0-1-0.2-1.8-0.5-2.3
						c-0.4-0.5-0.9-0.8-1.7-0.8c-1.2,0-2,0.4-2.4,1.2c-0.4,0.8-0.6,2-0.6,3.5v6.7h-3.9v-14.2h3l0.5,1.8h0.2c0.5-0.7,1.1-1.3,1.9-1.6
						C1297.8,1337.7,1298.6,1337.6,1299.5,1337.6z"/>
					<path class="st4" d="M1318.4,1347.8c0,1.4-0.5,2.5-1.5,3.3c-1,0.8-2.5,1.2-4.5,1.2c-1,0-1.8-0.1-2.5-0.2
						c-0.7-0.1-1.4-0.3-2.1-0.6v-3.2c0.8,0.3,1.6,0.6,2.5,0.9c0.9,0.2,1.7,0.3,2.3,0.3c0.7,0,1.3-0.1,1.6-0.3
						c0.3-0.2,0.5-0.5,0.5-0.9c0-0.2-0.1-0.5-0.2-0.7c-0.1-0.2-0.4-0.4-0.8-0.6c-0.4-0.2-1.1-0.6-2-0.9c-0.9-0.4-1.6-0.8-2.2-1.1
						c-0.6-0.4-1-0.8-1.3-1.4c-0.3-0.5-0.4-1.2-0.4-2c0-1.3,0.5-2.3,1.5-3c1-0.7,2.4-1,4.1-1c0.9,0,1.7,0.1,2.5,0.3
						c0.8,0.2,1.6,0.5,2.5,0.9l-1.2,2.8c-0.7-0.3-1.4-0.5-2-0.7s-1.3-0.3-1.9-0.3c-1.1,0-1.7,0.3-1.7,0.9c0,0.2,0.1,0.4,0.2,0.6
						c0.1,0.2,0.4,0.4,0.9,0.6c0.4,0.2,1.1,0.5,1.9,0.8c0.8,0.3,1.5,0.7,2.1,1c0.6,0.4,1,0.8,1.4,1.3
						C1318.3,1346.3,1318.4,1347,1318.4,1347.8z"/>
					<path class="st4" d="M1327.4,1349.2c0.4,0,0.8,0,1.2-0.1c0.4-0.1,0.8-0.2,1.2-0.3v2.9c-0.4,0.2-0.9,0.3-1.5,0.5s-1.3,0.2-2,0.2
						c-0.8,0-1.6-0.1-2.3-0.4c-0.7-0.3-1.2-0.8-1.6-1.4c-0.4-0.7-0.6-1.6-0.6-2.9v-6.8h-1.8v-1.6l2.1-1.3l1.1-3h2.5v3h4v2.9h-4v6.8
						c0,0.5,0.2,0.9,0.5,1.2C1326.5,1349.1,1326.9,1349.2,1327.4,1349.2z"/>
					<path class="st4" d="M1338.6,1337.6c2,0,3.5,0.6,4.7,1.7c1.1,1.1,1.7,2.7,1.7,4.8v1.9h-9.2c0,1.1,0.4,2,1,2.6
						c0.6,0.6,1.5,0.9,2.6,0.9c0.9,0,1.7-0.1,2.5-0.3c0.8-0.2,1.5-0.5,2.3-0.8v3c-0.7,0.3-1.4,0.6-2.2,0.8c-0.8,0.2-1.7,0.2-2.8,0.2
						c-1.4,0-2.7-0.3-3.8-0.8c-1.1-0.5-2-1.3-2.6-2.4c-0.6-1.1-0.9-2.4-0.9-4.1c0-1.6,0.3-3,0.8-4.1c0.6-1.1,1.3-1.9,2.4-2.5
						C1336.1,1337.8,1337.2,1337.6,1338.6,1337.6z M1338.6,1340.3c-0.8,0-1.4,0.2-1.9,0.7c-0.5,0.5-0.8,1.2-0.9,2.3h5.4
						c0-0.8-0.2-1.6-0.7-2.1S1339.5,1340.3,1338.6,1340.3z"/>
					<path class="st4" d="M1352,1352h-3.9v-19.8h3.9V1352z"/>
					<path class="st4" d="M1359.9,1352h-3.9v-19.8h3.9V1352z"/>
					<path class="st4" d="M1377,1337.8v14.2h-3l-0.5-1.8h-0.2c-0.5,0.7-1.1,1.3-1.9,1.6c-0.8,0.3-1.6,0.5-2.5,0.5
						c-1.5,0-2.7-0.4-3.7-1.2c-0.9-0.8-1.4-2.1-1.4-4v-9.3h3.9v8.3c0,1,0.2,1.8,0.5,2.3c0.4,0.5,0.9,0.8,1.7,0.8
						c1.2,0,2-0.4,2.4-1.2c0.4-0.8,0.7-2,0.7-3.5v-6.7H1377z"/>
					<path class="st4" d="M1389.1,1337.6c1.5,0,2.7,0.4,3.7,1.2c0.9,0.8,1.4,2.1,1.4,4v9.3h-3.9v-8.3c0-1-0.2-1.8-0.5-2.3
						c-0.4-0.5-0.9-0.8-1.7-0.8c-1.2,0-2,0.4-2.4,1.2c-0.4,0.8-0.6,2-0.6,3.5v6.7h-3.9v-14.2h3l0.5,1.8h0.2c0.4-0.7,1.1-1.3,1.9-1.6
						C1387.4,1337.7,1388.2,1337.6,1389.1,1337.6z"/>
					<path class="st4" d="M1402.7,1337.6c1.8,0,3.1,0.7,4.1,2.1h0.1l0.3-1.8h3.3v14.2c0,2-0.6,3.6-1.8,4.6c-1.2,1.1-3,1.6-5.3,1.6
						c-1,0-1.9-0.1-2.8-0.2s-1.7-0.3-2.5-0.6v-3.1c1.7,0.7,3.6,1.1,5.5,1.1c2,0,3-1.1,3-3.2v-0.3c0-0.3,0-0.6,0-0.9
						c0-0.3,0-0.6,0.1-0.8h-0.1c-0.5,0.7-1.1,1.3-1.7,1.6s-1.4,0.5-2.3,0.5c-1.7,0-3-0.6-3.9-1.9s-1.4-3.1-1.4-5.4
						c0-2.3,0.5-4.1,1.5-5.4S1401,1337.6,1402.7,1337.6z M1403.9,1340.7c-1.8,0-2.7,1.4-2.7,4.3c0,2.8,0.9,4.2,2.8,4.2
						c1,0,1.7-0.3,2.2-0.8c0.5-0.6,0.7-1.5,0.7-3v-0.5c0-1.5-0.2-2.6-0.7-3.3C1405.7,1341,1405,1340.7,1403.9,1340.7z"/>
					<path class="st4" d="M1425.8,1352.3c-1.6,0-2.9-0.6-3.9-1.9c-1-1.2-1.5-3.1-1.5-5.5c0-2.4,0.5-4.3,1.5-5.5c1-1.2,2.3-1.9,4-1.9
						c1,0,1.9,0.2,2.5,0.6c0.7,0.4,1.2,0.9,1.6,1.5h0.1c-0.1-0.3-0.1-0.7-0.2-1.2c-0.1-0.5-0.1-1.1-0.1-1.6v-4.5h3.9v19.8h-3
						l-0.8-1.8h-0.2c-0.4,0.6-0.9,1.1-1.5,1.5C1427.7,1352.1,1426.8,1352.3,1425.8,1352.3z M1427.2,1349.2c1.1,0,1.8-0.3,2.2-0.9
						c0.4-0.6,0.7-1.6,0.7-2.8v-0.4c0-1.4-0.2-2.4-0.6-3.2c-0.4-0.7-1.2-1.1-2.4-1.1c-0.8,0-1.5,0.4-2,1.1c-0.5,0.7-0.7,1.8-0.7,3.2
						s0.2,2.4,0.7,3.1S1426.3,1349.2,1427.2,1349.2z"/>
					<path class="st4" d="M1443.6,1337.6c2,0,3.5,0.6,4.7,1.7s1.7,2.7,1.7,4.8v1.9h-9.2c0,1.1,0.4,2,1,2.6c0.6,0.6,1.5,0.9,2.6,0.9
						c0.9,0,1.7-0.1,2.5-0.3c0.8-0.2,1.5-0.5,2.3-0.8v3c-0.7,0.3-1.4,0.6-2.2,0.8c-0.8,0.2-1.7,0.2-2.8,0.2c-1.4,0-2.7-0.3-3.8-0.8
						c-1.1-0.5-1.9-1.3-2.6-2.4c-0.6-1.1-0.9-2.4-0.9-4.1c0-1.6,0.3-3,0.8-4.1c0.6-1.1,1.3-1.9,2.4-2.5
						C1441.1,1337.8,1442.3,1337.6,1443.6,1337.6z M1443.7,1340.3c-0.8,0-1.4,0.2-1.9,0.7s-0.8,1.2-0.9,2.3h5.4
						c0-0.8-0.2-1.6-0.7-2.1S1444.6,1340.3,1443.7,1340.3z"/>
					<path class="st4" d="M1461.1,1337.6c0.2,0,0.4,0,0.7,0s0.5,0,0.6,0.1l-0.3,3.6c-0.1,0-0.3-0.1-0.5-0.1c-0.2,0-0.4,0-0.6,0
						c-0.7,0-1.3,0.1-1.9,0.4c-0.6,0.2-1.1,0.6-1.5,1.1c-0.4,0.5-0.6,1.2-0.6,2.1v7.2h-3.9v-14.2h2.9l0.6,2.4h0.2
						c0.4-0.7,1-1.4,1.7-1.9C1459.3,1337.8,1460.1,1337.6,1461.1,1337.6z"/>
				</g>
				<g class="st3">
					<path class="st4" d="M1182.9,1386h-13.8v-2.5l8.9-12.8h-8.7v-3.2h13.3v2.5l-8.9,12.8h9.1V1386z"/>
					<path class="st4" d="M1198.6,1371.8v14.2h-3l-0.5-1.8h-0.2c-0.5,0.7-1.1,1.3-1.9,1.6c-0.8,0.3-1.6,0.5-2.5,0.5
						c-1.5,0-2.7-0.4-3.7-1.2c-0.9-0.8-1.4-2.1-1.4-4v-9.3h3.9v8.3c0,1,0.2,1.8,0.5,2.3c0.4,0.5,0.9,0.8,1.7,0.8
						c1.2,0,2-0.4,2.4-1.2s0.7-2,0.7-3.5v-6.7H1198.6z"/>
					<path class="st4" d="M1206.5,1366.3v8.8c0,0.5,0,1.1-0.1,1.6c0,0.5-0.1,1.1-0.1,1.6h0.1c0.3-0.4,0.5-0.7,0.8-1.1
						c0.3-0.4,0.6-0.7,0.9-1.1l4-4.3h4.4l-5.6,6.2l6,8h-4.5l-4.1-5.7l-1.7,1.3v4.4h-3.9v-19.8H1206.5z"/>
					<path class="st4" d="M1231.8,1371.8v14.2h-3l-0.5-1.8h-0.2c-0.5,0.7-1.1,1.3-1.9,1.6c-0.8,0.3-1.6,0.5-2.5,0.5
						c-1.5,0-2.7-0.4-3.7-1.2c-0.9-0.8-1.4-2.1-1.4-4v-9.3h3.9v8.3c0,1,0.2,1.8,0.5,2.3c0.4,0.5,0.9,0.8,1.7,0.8
						c1.2,0,2-0.4,2.4-1.2s0.7-2,0.7-3.5v-6.7H1231.8z"/>
					<path class="st4" d="M1243.9,1371.6c1.5,0,2.7,0.4,3.7,1.2c0.9,0.8,1.4,2.1,1.4,4v9.3h-3.9v-8.3c0-1-0.2-1.8-0.5-2.3
						c-0.4-0.5-0.9-0.8-1.7-0.8c-1.2,0-2,0.4-2.4,1.2c-0.4,0.8-0.6,2-0.6,3.5v6.7h-3.9v-14.2h3l0.5,1.8h0.2c0.5-0.7,1.1-1.3,1.9-1.6
						C1242.2,1371.7,1243,1371.6,1243.9,1371.6z"/>
					<path class="st4" d="M1260.8,1374.7h-3.4v11.3h-3.9v-11.3h-2.1v-1.9l2.1-1v-1c0-1.2,0.2-2.2,0.6-2.8c0.4-0.7,1-1.1,1.7-1.4
						s1.6-0.4,2.7-0.4c0.7,0,1.4,0.1,2.1,0.2s1.1,0.3,1.5,0.4l-1,2.8c-0.3-0.1-0.6-0.2-1-0.2c-0.4-0.1-0.8-0.1-1.2-0.1
						c-0.5,0-0.9,0.2-1.2,0.5c-0.3,0.3-0.4,0.7-0.4,1.2v0.9h3.4V1374.7z"/>
					<path class="st4" d="M1269,1383.2c0.4,0,0.8,0,1.2-0.1c0.4-0.1,0.8-0.2,1.2-0.3v2.9c-0.4,0.2-0.9,0.3-1.5,0.5s-1.3,0.2-2,0.2
						c-0.8,0-1.6-0.1-2.3-0.4c-0.7-0.3-1.2-0.8-1.6-1.4c-0.4-0.7-0.6-1.6-0.6-2.9v-6.8h-1.8v-1.6l2.1-1.3l1.1-3h2.5v3h4v2.9h-4v6.8
						c0,0.5,0.2,0.9,0.5,1.2C1268.1,1383.1,1268.5,1383.2,1269,1383.2z"/>
					<path class="st4" d="M1285.6,1371.6c1.8,0,3.1,0.7,4.1,2.1h0.1l0.3-1.8h3.3v14.2c0,2-0.6,3.6-1.8,4.6c-1.2,1.1-3,1.6-5.3,1.6
						c-1,0-1.9-0.1-2.8-0.2s-1.7-0.3-2.5-0.6v-3.1c1.7,0.7,3.6,1.1,5.5,1.1c2,0,3-1.1,3-3.2v-0.3c0-0.3,0-0.6,0-0.9
						c0-0.3,0-0.6,0.1-0.8h-0.1c-0.5,0.7-1.1,1.3-1.7,1.6c-0.7,0.3-1.4,0.5-2.3,0.5c-1.7,0-3-0.6-3.9-1.9s-1.4-3.1-1.4-5.4
						c0-2.3,0.5-4.1,1.5-5.4S1283.9,1371.6,1285.6,1371.6z M1286.9,1374.7c-1.8,0-2.7,1.4-2.7,4.3c0,2.8,0.9,4.2,2.8,4.2
						c1,0,1.7-0.3,2.2-0.8c0.5-0.6,0.7-1.5,0.7-3v-0.5c0-1.5-0.2-2.6-0.7-3.3C1288.7,1375,1287.9,1374.7,1286.9,1374.7z"/>
					<path class="st4" d="M1303.3,1371.6c2,0,3.5,0.6,4.7,1.7c1.1,1.1,1.7,2.7,1.7,4.8v1.9h-9.2c0,1.1,0.4,2,1,2.6
						c0.6,0.6,1.5,0.9,2.6,0.9c0.9,0,1.7-0.1,2.5-0.3c0.8-0.2,1.5-0.5,2.3-0.8v3c-0.7,0.3-1.4,0.6-2.2,0.8c-0.8,0.2-1.7,0.2-2.8,0.2
						c-1.4,0-2.7-0.3-3.8-0.8c-1.1-0.5-2-1.3-2.6-2.4c-0.6-1.1-0.9-2.4-0.9-4.1c0-1.6,0.3-3,0.8-4.1c0.6-1.1,1.3-1.9,2.4-2.5
						C1300.8,1371.8,1302,1371.6,1303.3,1371.6z M1303.4,1374.3c-0.8,0-1.4,0.2-1.9,0.7c-0.5,0.5-0.8,1.2-0.9,2.3h5.4
						c0-0.8-0.2-1.6-0.7-2.1S1304.3,1374.3,1303.4,1374.3z"/>
					<path class="st4" d="M1317.5,1371.6c1.8,0,3.1,0.7,4.1,2.1h0.1l0.3-1.8h3.3v14.2c0,2-0.6,3.6-1.8,4.6c-1.2,1.1-3,1.6-5.3,1.6
						c-1,0-1.9-0.1-2.8-0.2s-1.7-0.3-2.5-0.6v-3.1c1.7,0.7,3.6,1.1,5.5,1.1c2,0,3-1.1,3-3.2v-0.3c0-0.3,0-0.6,0-0.9
						c0-0.3,0-0.6,0.1-0.8h-0.1c-0.5,0.7-1.1,1.3-1.7,1.6c-0.7,0.3-1.4,0.5-2.3,0.5c-1.7,0-3-0.6-3.9-1.9s-1.4-3.1-1.4-5.4
						c0-2.3,0.5-4.1,1.5-5.4S1315.8,1371.6,1317.5,1371.6z M1318.7,1374.7c-1.8,0-2.7,1.4-2.7,4.3c0,2.8,0.9,4.2,2.8,4.2
						c1,0,1.7-0.3,2.2-0.8c0.5-0.6,0.7-1.5,0.7-3v-0.5c0-1.5-0.2-2.6-0.7-3.3C1320.5,1375,1319.7,1374.7,1318.7,1374.7z"/>
					<path class="st4" d="M1335.2,1371.6c2,0,3.5,0.6,4.7,1.7c1.1,1.1,1.7,2.7,1.7,4.8v1.9h-9.2c0,1.1,0.4,2,1,2.6
						c0.6,0.6,1.5,0.9,2.6,0.9c0.9,0,1.7-0.1,2.5-0.3c0.8-0.2,1.5-0.5,2.3-0.8v3c-0.7,0.3-1.4,0.6-2.2,0.8c-0.8,0.2-1.7,0.2-2.8,0.2
						c-1.4,0-2.7-0.3-3.8-0.8c-1.1-0.5-2-1.3-2.6-2.4c-0.6-1.1-0.9-2.4-0.9-4.1c0-1.6,0.3-3,0.8-4.1c0.6-1.1,1.3-1.9,2.4-2.5
						C1332.7,1371.8,1333.8,1371.6,1335.2,1371.6z M1335.2,1374.3c-0.8,0-1.4,0.2-1.9,0.7c-0.5,0.5-0.8,1.2-0.9,2.3h5.4
						c0-0.8-0.2-1.6-0.7-2.1S1336.1,1374.3,1335.2,1374.3z"/>
					<path class="st4" d="M1352.7,1371.6c1.5,0,2.7,0.4,3.7,1.2c0.9,0.8,1.4,2.1,1.4,4v9.3h-3.9v-8.3c0-1-0.2-1.8-0.5-2.3
						c-0.4-0.5-0.9-0.8-1.7-0.8c-1.2,0-2,0.4-2.4,1.2c-0.4,0.8-0.6,2-0.6,3.5v6.7h-3.9v-14.2h3l0.5,1.8h0.2c0.5-0.7,1.1-1.3,1.9-1.6
						C1351,1371.7,1351.9,1371.6,1352.7,1371.6z"/>
					<path class="st4" d="M1374.8,1371.8v14.2h-3l-0.5-1.8h-0.2c-0.5,0.7-1.1,1.3-1.9,1.6c-0.8,0.3-1.6,0.5-2.5,0.5
						c-1.5,0-2.7-0.4-3.7-1.2c-0.9-0.8-1.4-2.1-1.4-4v-9.3h3.9v8.3c0,1,0.2,1.8,0.5,2.3c0.4,0.5,0.9,0.8,1.7,0.8
						c1.2,0,2-0.4,2.4-1.2c0.4-0.8,0.7-2,0.7-3.5v-6.7H1374.8z M1363.9,1368.2c0-0.6,0.2-1,0.5-1.3s0.8-0.4,1.2-0.4s0.9,0.1,1.3,0.4
						s0.5,0.7,0.5,1.3c0,0.6-0.2,1-0.5,1.3s-0.8,0.4-1.3,0.4s-0.9-0.1-1.2-0.4S1363.9,1368.8,1363.9,1368.2z M1369,1368.2
						c0-0.6,0.2-1,0.5-1.3c0.3-0.3,0.8-0.4,1.3-0.4c0.5,0,0.9,0.1,1.3,0.4s0.5,0.7,0.5,1.3c0,0.6-0.2,1-0.5,1.3s-0.8,0.4-1.3,0.4
						c-0.5,0-0.9-0.1-1.3-0.4C1369.2,1369.2,1369,1368.8,1369,1368.2z"/>
					<path class="st4" d="M1382.7,1366.3v4.6c0,0.5,0,1.1-0.1,1.6c0,0.5-0.1,0.9-0.1,1.2h0.2c0.4-0.6,0.9-1.1,1.5-1.5
						c0.6-0.4,1.5-0.6,2.5-0.6c1.6,0,2.9,0.6,3.9,1.9c1,1.2,1.5,3.1,1.5,5.5c0,2.4-0.5,4.3-1.5,5.5c-1,1.2-2.3,1.9-4,1.9
						c-1,0-1.9-0.2-2.5-0.6c-0.6-0.4-1.1-0.8-1.5-1.3h-0.3l-0.7,1.6h-3v-19.8H1382.7z M1385.5,1374.7c-1,0-1.7,0.3-2.1,0.9
						c-0.4,0.6-0.6,1.6-0.6,2.8v0.4c0,1.4,0.2,2.4,0.6,3.2c0.4,0.7,1.1,1.1,2.2,1.1c0.8,0,1.4-0.4,1.9-1.1c0.5-0.7,0.7-1.8,0.7-3.2
						s-0.2-2.4-0.7-3.1C1387,1375,1386.3,1374.7,1385.5,1374.7z"/>
					<path class="st4" d="M1401.2,1371.6c2,0,3.5,0.6,4.7,1.7c1.1,1.1,1.7,2.7,1.7,4.8v1.9h-9.2c0,1.1,0.4,2,1,2.6
						c0.6,0.6,1.5,0.9,2.6,0.9c0.9,0,1.7-0.1,2.5-0.3c0.8-0.2,1.5-0.5,2.3-0.8v3c-0.7,0.3-1.4,0.6-2.2,0.8c-0.8,0.2-1.7,0.2-2.8,0.2
						c-1.4,0-2.7-0.3-3.8-0.8c-1.1-0.5-2-1.3-2.6-2.4c-0.6-1.1-0.9-2.4-0.9-4.1c0-1.6,0.3-3,0.8-4.1c0.6-1.1,1.3-1.9,2.4-2.5
						C1398.6,1371.8,1399.8,1371.6,1401.2,1371.6z M1401.2,1374.3c-0.8,0-1.4,0.2-1.9,0.7c-0.5,0.5-0.8,1.2-0.9,2.3h5.4
						c0-0.8-0.2-1.6-0.7-2.1S1402.1,1374.3,1401.2,1374.3z"/>
					<path class="st4" d="M1418.6,1371.6c0.2,0,0.4,0,0.7,0c0.3,0,0.5,0,0.6,0.1l-0.3,3.6c-0.1,0-0.3-0.1-0.5-0.1
						c-0.2,0-0.4,0-0.6,0c-0.7,0-1.3,0.1-1.9,0.4c-0.6,0.2-1.1,0.6-1.5,1.1c-0.4,0.5-0.6,1.2-0.6,2.1v7.2h-3.9v-14.2h2.9l0.6,2.4
						h0.2c0.4-0.7,1-1.4,1.7-1.9C1416.8,1371.8,1417.6,1371.6,1418.6,1371.6z"/>
					<path class="st4" d="M1445.9,1371.6c1.6,0,2.8,0.4,3.7,1.2c0.8,0.8,1.2,2.1,1.2,4v9.3h-3.9v-8.3c0-2-0.7-3.1-2.1-3.1
						c-1,0-1.8,0.4-2.2,1.1c-0.4,0.7-0.7,1.8-0.7,3.1v7.1h-3.9v-8.3c0-2-0.7-3.1-2.1-3.1c-1.1,0-1.8,0.4-2.2,1.2
						c-0.4,0.8-0.6,2-0.6,3.5v6.7h-3.9v-14.2h3l0.5,1.8h0.2c0.4-0.7,1-1.3,1.8-1.6s1.5-0.5,2.4-0.5c1,0,1.9,0.2,2.6,0.5
						c0.7,0.3,1.3,0.9,1.7,1.6h0.3c0.4-0.7,1-1.3,1.8-1.6C1444.3,1371.7,1445.1,1371.6,1445.9,1371.6z"/>
					<path class="st4" d="M1467.8,1371.8v14.2h-3l-0.5-1.8h-0.2c-0.5,0.7-1.1,1.3-1.9,1.6s-1.6,0.5-2.5,0.5c-1.5,0-2.7-0.4-3.7-1.2
						c-0.9-0.8-1.4-2.1-1.4-4v-9.3h3.9v8.3c0,1,0.2,1.8,0.5,2.3c0.4,0.5,0.9,0.8,1.7,0.8c1.2,0,2-0.4,2.4-1.2s0.7-2,0.7-3.5v-6.7
						H1467.8z"/>
					<path class="st4" d="M1481.8,1381.8c0,1.4-0.5,2.5-1.5,3.3c-1,0.8-2.5,1.2-4.5,1.2c-1,0-1.8-0.1-2.5-0.2
						c-0.7-0.1-1.4-0.3-2.1-0.6v-3.2c0.8,0.3,1.6,0.6,2.5,0.9c0.9,0.2,1.7,0.3,2.3,0.3c0.7,0,1.3-0.1,1.6-0.3
						c0.3-0.2,0.5-0.5,0.5-0.9c0-0.2-0.1-0.5-0.2-0.7c-0.1-0.2-0.4-0.4-0.8-0.6c-0.4-0.2-1.1-0.6-2-0.9c-0.9-0.4-1.6-0.8-2.2-1.1
						c-0.6-0.4-1-0.8-1.3-1.4c-0.3-0.5-0.4-1.2-0.4-2c0-1.3,0.5-2.3,1.5-3c1-0.7,2.4-1,4.1-1c0.9,0,1.7,0.1,2.5,0.3
						c0.8,0.2,1.6,0.5,2.5,0.9l-1.2,2.8c-0.7-0.3-1.4-0.5-2-0.7s-1.3-0.3-1.9-0.3c-1.1,0-1.7,0.3-1.7,0.9c0,0.2,0.1,0.4,0.2,0.6
						c0.1,0.2,0.4,0.4,0.9,0.6s1.1,0.5,1.9,0.8c0.8,0.3,1.5,0.7,2.1,1c0.6,0.4,1,0.8,1.4,1.3
						C1481.6,1380.3,1481.8,1381,1481.8,1381.8z"/>
					<path class="st4" d="M1494.7,1381.8c0,1.4-0.5,2.5-1.5,3.3c-1,0.8-2.5,1.2-4.5,1.2c-1,0-1.8-0.1-2.5-0.2
						c-0.7-0.1-1.4-0.3-2.1-0.6v-3.2c0.8,0.3,1.6,0.6,2.5,0.9c0.9,0.2,1.7,0.3,2.3,0.3c0.7,0,1.3-0.1,1.6-0.3
						c0.3-0.2,0.5-0.5,0.5-0.9c0-0.2-0.1-0.5-0.2-0.7c-0.1-0.2-0.4-0.4-0.8-0.6c-0.4-0.2-1.1-0.6-2-0.9c-0.9-0.4-1.6-0.8-2.2-1.1
						c-0.6-0.4-1-0.8-1.3-1.4c-0.3-0.5-0.4-1.2-0.4-2c0-1.3,0.5-2.3,1.5-3c1-0.7,2.4-1,4.1-1c0.9,0,1.7,0.1,2.5,0.3
						c0.8,0.2,1.6,0.5,2.5,0.9l-1.2,2.8c-0.7-0.3-1.4-0.5-2-0.7s-1.3-0.3-1.9-0.3c-1.1,0-1.7,0.3-1.7,0.9c0,0.2,0.1,0.4,0.2,0.6
						c0.1,0.2,0.4,0.4,0.9,0.6s1.1,0.5,1.9,0.8c0.8,0.3,1.5,0.7,2.1,1c0.6,0.4,1,0.8,1.4,1.3
						C1494.5,1380.3,1494.7,1381,1494.7,1381.8z"/>
				</g>
				<g class="st3">
					<path class="st4" d="M1180.4,1415.8c0,1.4-0.5,2.5-1.5,3.3c-1,0.8-2.5,1.2-4.5,1.2c-1,0-1.8-0.1-2.5-0.2
						c-0.7-0.1-1.4-0.3-2.1-0.6v-3.2c0.8,0.3,1.6,0.6,2.5,0.9c0.9,0.2,1.7,0.3,2.3,0.3c0.7,0,1.3-0.1,1.6-0.3
						c0.3-0.2,0.5-0.5,0.5-0.9c0-0.2-0.1-0.5-0.2-0.7c-0.1-0.2-0.4-0.4-0.8-0.6c-0.4-0.2-1.1-0.6-2-0.9c-0.9-0.4-1.6-0.8-2.2-1.1
						c-0.6-0.4-1-0.8-1.3-1.4c-0.3-0.5-0.4-1.2-0.4-2c0-1.3,0.5-2.3,1.5-3c1-0.7,2.4-1,4.1-1c0.9,0,1.7,0.1,2.5,0.3
						c0.8,0.2,1.6,0.5,2.5,0.9l-1.2,2.8c-0.7-0.3-1.4-0.5-2-0.7s-1.3-0.3-1.9-0.3c-1.1,0-1.7,0.3-1.7,0.9c0,0.2,0.1,0.4,0.2,0.6
						c0.1,0.2,0.4,0.4,0.9,0.6c0.4,0.2,1.1,0.5,1.9,0.8c0.8,0.3,1.5,0.7,2.1,1c0.6,0.4,1,0.8,1.4,1.3
						C1180.3,1414.3,1180.4,1415,1180.4,1415.8z"/>
					<path class="st4" d="M1189.3,1405.6c2,0,3.5,0.6,4.7,1.7c1.1,1.1,1.7,2.7,1.7,4.8v1.9h-9.2c0,1.1,0.4,2,1,2.6
						c0.6,0.6,1.5,0.9,2.6,0.9c0.9,0,1.7-0.1,2.5-0.3c0.8-0.2,1.5-0.5,2.3-0.8v3c-0.7,0.3-1.4,0.6-2.2,0.8c-0.8,0.2-1.7,0.2-2.8,0.2
						c-1.4,0-2.7-0.3-3.8-0.8c-1.1-0.5-2-1.3-2.6-2.4c-0.6-1.1-0.9-2.4-0.9-4.1c0-1.6,0.3-3,0.8-4.1c0.6-1.1,1.3-1.9,2.4-2.5
						C1186.8,1405.8,1187.9,1405.6,1189.3,1405.6z M1189.3,1408.3c-0.8,0-1.4,0.2-1.9,0.7c-0.5,0.5-0.8,1.2-0.9,2.3h5.4
						c0-0.8-0.2-1.6-0.7-2.1S1190.2,1408.3,1189.3,1408.3z"/>
					<path class="st4" d="M1200.7,1400.3c0.6,0,1.1,0.1,1.5,0.4c0.4,0.3,0.6,0.8,0.6,1.5c0,0.7-0.2,1.2-0.6,1.5s-0.9,0.4-1.5,0.4
						c-0.6,0-1.1-0.1-1.5-0.4s-0.6-0.8-0.6-1.5c0-0.7,0.2-1.2,0.6-1.5C1199.7,1400.4,1200.2,1400.3,1200.7,1400.3z M1202.7,1405.8
						v14.2h-3.9v-14.2H1202.7z"/>
					<path class="st4" d="M1214.8,1405.6c1.5,0,2.7,0.4,3.7,1.2c0.9,0.8,1.4,2.1,1.4,4v9.3h-3.9v-8.3c0-1-0.2-1.8-0.5-2.3
						c-0.4-0.5-0.9-0.8-1.7-0.8c-1.2,0-2,0.4-2.4,1.2c-0.4,0.8-0.6,2-0.6,3.5v6.7h-3.9v-14.2h3l0.5,1.8h0.2c0.5-0.7,1.1-1.3,1.9-1.6
						C1213.1,1405.7,1213.9,1405.6,1214.8,1405.6z"/>
					<path class="st4" d="M1223.3,1407.7c0-0.8,0.2-1.4,0.6-1.7c0.4-0.3,1-0.5,1.6-0.5c0.6,0,1.1,0.2,1.6,0.5
						c0.4,0.3,0.7,0.9,0.7,1.7c0,0.8-0.2,1.3-0.7,1.7c-0.4,0.3-1,0.5-1.6,0.5c-0.6,0-1.2-0.2-1.6-0.5
						C1223.5,1409,1223.3,1408.5,1223.3,1407.7z M1223.3,1418.2c0-0.8,0.2-1.4,0.6-1.7c0.4-0.3,1-0.5,1.6-0.5c0.6,0,1.1,0.2,1.6,0.5
						c0.4,0.3,0.7,0.9,0.7,1.7c0,0.8-0.2,1.3-0.7,1.7s-1,0.5-1.6,0.5c-0.6,0-1.2-0.2-1.6-0.5S1223.3,1419,1223.3,1418.2z"/>
					<path class="st4" d="M1261.1,1401.5l-4.7,18.6h-4.5l-2.5-9.8c-0.1-0.2-0.1-0.5-0.2-0.9c-0.1-0.4-0.2-0.8-0.3-1.2
						c-0.1-0.5-0.2-0.9-0.3-1.3c-0.1-0.4-0.1-0.7-0.1-1c0,0.2-0.1,0.6-0.1,1s-0.2,0.8-0.2,1.3c-0.1,0.4-0.2,0.9-0.3,1.2
						c-0.1,0.4-0.2,0.7-0.2,0.9l-2.5,9.7h-4.5l-4.7-18.6h3.9l2.4,10.1c0.1,0.4,0.2,0.9,0.3,1.5c0.1,0.6,0.2,1.2,0.3,1.8
						s0.2,1.1,0.2,1.5c0.1-0.4,0.1-0.9,0.2-1.5c0.1-0.6,0.2-1.2,0.3-1.7c0.1-0.6,0.2-1,0.3-1.3l2.7-10.4h3.7l2.7,10.4
						c0.1,0.3,0.2,0.8,0.3,1.3c0.1,0.6,0.2,1.1,0.3,1.8s0.2,1.1,0.2,1.5c0.1-0.4,0.1-0.9,0.2-1.5c0.1-0.6,0.2-1.2,0.4-1.8
						c0.1-0.6,0.2-1.1,0.3-1.5l2.4-10.1H1261.1z"/>
					<path class="st4" d="M1265.1,1400.3c0.6,0,1.1,0.1,1.5,0.4c0.4,0.3,0.6,0.8,0.6,1.5c0,0.7-0.2,1.2-0.6,1.5s-0.9,0.4-1.5,0.4
						c-0.6,0-1.1-0.1-1.5-0.4s-0.6-0.8-0.6-1.5c0-0.7,0.2-1.2,0.6-1.5C1264,1400.4,1264.5,1400.3,1265.1,1400.3z M1267,1405.8v14.2
						h-3.9v-14.2H1267z"/>
					<path class="st4" d="M1279,1405.6c0.2,0,0.4,0,0.7,0c0.3,0,0.5,0,0.6,0.1l-0.3,3.6c-0.1,0-0.3-0.1-0.5-0.1c-0.2,0-0.4,0-0.6,0
						c-0.7,0-1.3,0.1-1.9,0.4c-0.6,0.2-1.1,0.6-1.5,1.1c-0.4,0.5-0.6,1.2-0.6,2.1v7.2h-3.9v-14.2h2.9l0.6,2.4h0.2
						c0.4-0.7,1-1.4,1.7-1.9C1277.2,1405.8,1278,1405.6,1279,1405.6z"/>
					<path class="st4" d="M1299.5,1415.8c0,1.4-0.5,2.5-1.5,3.3c-1,0.8-2.5,1.2-4.5,1.2c-1,0-1.8-0.1-2.5-0.2
						c-0.7-0.1-1.4-0.3-2.1-0.6v-3.2c0.8,0.3,1.6,0.6,2.5,0.9c0.9,0.2,1.7,0.3,2.3,0.3c0.7,0,1.3-0.1,1.6-0.3
						c0.3-0.2,0.5-0.5,0.5-0.9c0-0.2-0.1-0.5-0.2-0.7c-0.1-0.2-0.4-0.4-0.8-0.6c-0.4-0.2-1.1-0.6-2-0.9c-0.9-0.4-1.6-0.8-2.2-1.1
						c-0.6-0.4-1-0.8-1.3-1.4c-0.3-0.5-0.4-1.2-0.4-2c0-1.3,0.5-2.3,1.5-3c1-0.7,2.4-1,4.1-1c0.9,0,1.7,0.1,2.5,0.3
						c0.8,0.2,1.6,0.5,2.5,0.9l-1.2,2.8c-0.7-0.3-1.4-0.5-2-0.7s-1.3-0.3-1.9-0.3c-1.1,0-1.7,0.3-1.7,0.9c0,0.2,0.1,0.4,0.2,0.6
						c0.1,0.2,0.4,0.4,0.9,0.6c0.4,0.2,1.1,0.5,1.9,0.8c0.8,0.3,1.5,0.7,2.1,1c0.6,0.4,1,0.8,1.4,1.3
						C1299.4,1414.3,1299.5,1415,1299.5,1415.8z"/>
					<path class="st4" d="M1304.5,1400.3c0.6,0,1.1,0.1,1.5,0.4c0.4,0.3,0.6,0.8,0.6,1.5c0,0.7-0.2,1.2-0.6,1.5s-0.9,0.4-1.5,0.4
						c-0.6,0-1.1-0.1-1.5-0.4s-0.6-0.8-0.6-1.5c0-0.7,0.2-1.2,0.6-1.5C1303.4,1400.4,1303.9,1400.3,1304.5,1400.3z M1306.4,1405.8
						v14.2h-3.9v-14.2H1306.4z"/>
					<path class="st4" d="M1318.5,1405.6c1.5,0,2.7,0.4,3.7,1.2c0.9,0.8,1.4,2.1,1.4,4v9.3h-3.9v-8.3c0-1-0.2-1.8-0.5-2.3
						c-0.4-0.5-0.9-0.8-1.7-0.8c-1.2,0-2,0.4-2.4,1.2c-0.4,0.8-0.6,2-0.6,3.5v6.7h-3.9v-14.2h3l0.5,1.8h0.2c0.5-0.7,1.1-1.3,1.9-1.6
						C1316.8,1405.7,1317.6,1405.6,1318.5,1405.6z"/>
					<path class="st4" d="M1332,1420.3c-1.6,0-2.9-0.6-3.9-1.9c-1-1.2-1.5-3.1-1.5-5.5c0-2.4,0.5-4.3,1.5-5.5c1-1.2,2.3-1.9,4-1.9
						c1,0,1.9,0.2,2.5,0.6c0.7,0.4,1.2,0.9,1.6,1.5h0.1c-0.1-0.3-0.1-0.7-0.2-1.2c-0.1-0.5-0.1-1.1-0.1-1.6v-4.5h3.9v19.8h-3
						l-0.8-1.8h-0.2c-0.4,0.6-0.9,1.1-1.5,1.5C1333.9,1420.1,1333.1,1420.3,1332,1420.3z M1333.4,1417.2c1.1,0,1.8-0.3,2.2-0.9
						s0.7-1.6,0.7-2.8v-0.4c0-1.4-0.2-2.4-0.6-3.2c-0.4-0.7-1.2-1.1-2.4-1.1c-0.8,0-1.5,0.4-2,1.1c-0.5,0.7-0.7,1.8-0.7,3.2
						s0.2,2.4,0.7,3.1C1331.8,1416.8,1332.5,1417.2,1333.4,1417.2z"/>
					<path class="st4" d="M1349.6,1426.3c-0.5,0-0.9,0-1.4-0.1c-0.5-0.1-0.9-0.1-1.2-0.2v-3c0.3,0.1,0.6,0.1,0.9,0.2
						c0.3,0,0.6,0.1,0.9,0.1c0.5,0,1-0.1,1.3-0.4c0.4-0.3,0.5-0.9,0.5-1.7v-15.2h3.9v15.7c0,0.9-0.2,1.7-0.5,2.4
						c-0.3,0.7-0.9,1.3-1.6,1.7C1351.8,1426,1350.8,1426.3,1349.6,1426.3z M1350.6,1402.2c0-0.7,0.2-1.2,0.6-1.5
						c0.4-0.3,0.9-0.4,1.5-0.4c0.6,0,1.1,0.1,1.5,0.4c0.4,0.3,0.6,0.8,0.6,1.5c0,0.7-0.2,1.2-0.6,1.5s-0.9,0.4-1.5,0.4
						c-0.6,0-1.1-0.1-1.5-0.4S1350.6,1402.9,1350.6,1402.2z"/>
					<path class="st4" d="M1364.5,1405.6c2,0,3.5,0.6,4.7,1.7s1.7,2.7,1.7,4.8v1.9h-9.2c0,1.1,0.4,2,1,2.6c0.6,0.6,1.5,0.9,2.6,0.9
						c0.9,0,1.7-0.1,2.5-0.3c0.8-0.2,1.5-0.5,2.3-0.8v3c-0.7,0.3-1.4,0.6-2.2,0.8c-0.8,0.2-1.7,0.2-2.8,0.2c-1.4,0-2.7-0.3-3.8-0.8
						c-1.1-0.5-2-1.3-2.6-2.4c-0.6-1.1-0.9-2.4-0.9-4.1c0-1.6,0.3-3,0.8-4.1c0.6-1.1,1.3-1.9,2.4-2.5
						C1362,1405.8,1363.2,1405.6,1364.5,1405.6z M1364.6,1408.3c-0.8,0-1.4,0.2-1.9,0.7c-0.5,0.5-0.8,1.2-0.9,2.3h5.4
						c0-0.8-0.2-1.6-0.7-2.1S1365.5,1408.3,1364.6,1408.3z"/>
					<path class="st4" d="M1380,1417.2c0.4,0,0.8,0,1.2-0.1s0.8-0.2,1.2-0.3v2.9c-0.4,0.2-0.9,0.3-1.5,0.5s-1.3,0.2-2,0.2
						c-0.8,0-1.6-0.1-2.3-0.4c-0.7-0.3-1.2-0.8-1.6-1.4c-0.4-0.7-0.6-1.6-0.6-2.9v-6.8h-1.8v-1.6l2.1-1.3l1.1-3h2.5v3h4v2.9h-4v6.8
						c0,0.5,0.2,0.9,0.5,1.2C1379.1,1417.1,1379.5,1417.2,1380,1417.2z"/>
					<path class="st4" d="M1395.2,1420H1384v-2.3l6.6-8.9h-6.2v-3h10.6v2.5l-6.4,8.7h6.6V1420z"/>
					<path class="st4" d="M1404,1417.2c0.4,0,0.8,0,1.2-0.1c0.4-0.1,0.8-0.2,1.2-0.3v2.9c-0.4,0.2-0.9,0.3-1.5,0.5s-1.3,0.2-2,0.2
						c-0.8,0-1.6-0.1-2.3-0.4c-0.7-0.3-1.2-0.8-1.6-1.4c-0.4-0.7-0.6-1.6-0.6-2.9v-6.8h-1.8v-1.6l2.1-1.3l1.1-3h2.5v3h4v2.9h-4v6.8
						c0,0.5,0.2,0.9,0.5,1.2C1403.1,1417.1,1403.5,1417.2,1404,1417.2z"/>
				</g>
				<g class="st3">
					<path class="st4" d="M1173.9,1454l-5.4-14.2h4.1l2.7,8.1c0.2,0.5,0.3,1,0.4,1.5c0.1,0.5,0.1,1,0.2,1.4h0.1
						c0.1-0.9,0.2-1.9,0.6-2.9l2.7-8.1h4.1l-5.4,14.2H1173.9z"/>
					<path class="st4" d="M1191.2,1439.6c2,0,3.5,0.6,4.7,1.7c1.1,1.1,1.7,2.7,1.7,4.8v1.9h-9.2c0,1.1,0.4,2,1,2.6
						c0.6,0.6,1.5,0.9,2.6,0.9c0.9,0,1.7-0.1,2.5-0.3c0.8-0.2,1.5-0.5,2.3-0.8v3c-0.7,0.3-1.4,0.6-2.2,0.8c-0.8,0.2-1.7,0.2-2.8,0.2
						c-1.4,0-2.7-0.3-3.8-0.8c-1.1-0.5-2-1.3-2.6-2.4c-0.6-1.1-0.9-2.4-0.9-4.1c0-1.6,0.3-3,0.8-4.1c0.6-1.1,1.3-1.9,2.4-2.5
						C1188.6,1439.8,1189.8,1439.6,1191.2,1439.6z M1191.2,1442.3c-0.8,0-1.4,0.2-1.9,0.7c-0.5,0.5-0.8,1.2-0.9,2.3h5.4
						c0-0.8-0.2-1.6-0.7-2.1S1192.1,1442.3,1191.2,1442.3z"/>
					<path class="st4" d="M1208.6,1439.6c0.2,0,0.4,0,0.7,0c0.3,0,0.5,0,0.6,0.1l-0.3,3.6c-0.1,0-0.3-0.1-0.5-0.1
						c-0.2,0-0.4,0-0.6,0c-0.7,0-1.3,0.1-1.9,0.4c-0.6,0.2-1.1,0.6-1.5,1.1c-0.4,0.5-0.6,1.2-0.6,2.1v7.2h-3.9v-14.2h2.9l0.6,2.4
						h0.2c0.4-0.7,1-1.4,1.7-1.9C1206.8,1439.8,1207.6,1439.6,1208.6,1439.6z"/>
					<path class="st4" d="M1217.8,1439.5c1.9,0,3.4,0.4,4.4,1.2c1,0.8,1.5,2.1,1.5,3.8v9.5h-2.7l-0.8-1.9h-0.1
						c-0.6,0.8-1.2,1.3-1.9,1.7c-0.7,0.3-1.6,0.5-2.8,0.5c-1.3,0-2.3-0.4-3.1-1.1c-0.8-0.7-1.2-1.9-1.2-3.4c0-1.5,0.5-2.6,1.6-3.3
						c1.1-0.7,2.6-1.1,4.8-1.2l2.5-0.1v-0.6c0-0.7-0.2-1.3-0.6-1.6c-0.4-0.3-0.9-0.5-1.6-0.5s-1.4,0.1-2,0.3c-0.7,0.2-1.3,0.4-2,0.7
						l-1.3-2.6c0.7-0.4,1.6-0.7,2.5-0.9C1215.8,1439.7,1216.8,1439.5,1217.8,1439.5z M1219.8,1447.4l-1.5,0.1
						c-1.2,0-2.1,0.3-2.6,0.7s-0.7,1-0.7,1.6c0,0.6,0.2,1,0.5,1.3c0.3,0.3,0.8,0.4,1.4,0.4c0.8,0,1.5-0.2,2.1-0.7
						c0.6-0.5,0.9-1.2,0.9-2.1V1447.4z"/>
					<path class="st4" d="M1235.7,1439.6c1.5,0,2.7,0.4,3.7,1.2c0.9,0.8,1.4,2.1,1.4,4v9.3h-3.9v-8.3c0-1-0.2-1.8-0.5-2.3
						c-0.4-0.5-0.9-0.8-1.7-0.8c-1.2,0-2,0.4-2.4,1.2c-0.4,0.8-0.6,2-0.6,3.5v6.7h-3.9v-14.2h3l0.5,1.8h0.2c0.5-0.7,1.1-1.3,1.9-1.6
						C1234,1439.7,1234.8,1439.6,1235.7,1439.6z"/>
					<path class="st4" d="M1250.7,1451.2c0.4,0,0.8,0,1.2-0.1c0.4-0.1,0.8-0.2,1.2-0.3v2.9c-0.4,0.2-0.9,0.3-1.5,0.5s-1.3,0.2-2,0.2
						c-0.8,0-1.6-0.1-2.3-0.4c-0.7-0.3-1.2-0.8-1.6-1.4c-0.4-0.7-0.6-1.6-0.6-2.9v-6.8h-1.8v-1.6l2.1-1.3l1.1-3h2.5v3h4v2.9h-4v6.8
						c0,0.5,0.2,0.9,0.5,1.2C1249.8,1451.1,1250.2,1451.2,1250.7,1451.2z"/>
					<path class="st4" d="M1267.7,1454l-1.1-5c-0.1-0.3-0.2-0.7-0.3-1.3c-0.1-0.6-0.3-1.2-0.4-1.9c-0.2-0.7-0.3-1.3-0.4-1.8
						s-0.2-1-0.3-1.2h-0.1c-0.1,0.3-0.1,0.7-0.3,1.2c-0.1,0.6-0.3,1.2-0.4,1.8c-0.2,0.7-0.3,1.3-0.4,1.9c-0.1,0.6-0.2,1-0.3,1.4
						l-1.1,4.9h-4.2l-4-14.2h3.8l1.6,6.3c0.1,0.5,0.2,1,0.3,1.6s0.2,1.2,0.3,1.7s0.1,1,0.2,1.3h0.1c0-0.2,0.1-0.6,0.1-1
						c0.1-0.4,0.1-0.8,0.2-1.3c0.1-0.4,0.1-0.8,0.2-1.2c0.1-0.3,0.1-0.6,0.1-0.7l1.7-6.8h4.3l1.7,6.8c0.1,0.2,0.1,0.6,0.2,1.2
						s0.2,1.1,0.3,1.6s0.1,1,0.1,1.3h0.1c0-0.3,0.1-0.7,0.2-1.3c0.1-0.6,0.2-1.2,0.3-1.8c0.1-0.6,0.2-1.1,0.4-1.6l1.7-6.3h3.8
						l-4.1,14.2H1267.7z"/>
					<path class="st4" d="M1291.2,1446.9c0,2.4-0.6,4.2-1.9,5.5c-1.2,1.3-2.9,1.9-5.1,1.9c-1.3,0-2.5-0.3-3.5-0.9
						c-1-0.6-1.8-1.4-2.4-2.5c-0.6-1.1-0.9-2.4-0.9-4c0-2.4,0.6-4.2,1.8-5.4c1.2-1.3,2.9-1.9,5.1-1.9c1.3,0,2.5,0.3,3.5,0.9
						c1,0.6,1.8,1.4,2.4,2.5C1290.9,1444,1291.2,1445.3,1291.2,1446.9z M1281.4,1446.9c0,1.4,0.2,2.5,0.7,3.2
						c0.5,0.7,1.2,1.1,2.2,1.1c1,0,1.8-0.4,2.2-1.1c0.5-0.7,0.7-1.8,0.7-3.2s-0.2-2.5-0.7-3.2c-0.5-0.7-1.2-1.1-2.2-1.1
						c-1,0-1.8,0.4-2.2,1.1C1281.6,1444.4,1281.4,1445.5,1281.4,1446.9z"/>
					<path class="st4" d="M1302.3,1439.6c0.2,0,0.4,0,0.7,0c0.3,0,0.5,0,0.6,0.1l-0.3,3.6c-0.1,0-0.3-0.1-0.5-0.1
						c-0.2,0-0.4,0-0.6,0c-0.7,0-1.3,0.1-1.9,0.4c-0.6,0.2-1.1,0.6-1.5,1.1c-0.4,0.5-0.6,1.2-0.6,2.1v7.2h-3.9v-14.2h2.9l0.6,2.4
						h0.2c0.4-0.7,1-1.4,1.7-1.9C1300.5,1439.8,1301.3,1439.6,1302.3,1439.6z"/>
					<path class="st4" d="M1312.2,1451.2c0.4,0,0.8,0,1.2-0.1c0.4-0.1,0.8-0.2,1.2-0.3v2.9c-0.4,0.2-0.9,0.3-1.5,0.5s-1.3,0.2-2,0.2
						c-0.8,0-1.6-0.1-2.3-0.4c-0.7-0.3-1.2-0.8-1.6-1.4c-0.4-0.7-0.6-1.6-0.6-2.9v-6.8h-1.8v-1.6l2.1-1.3l1.1-3h2.5v3h4v2.9h-4v6.8
						c0,0.5,0.2,0.9,0.5,1.2C1311.2,1451.1,1311.7,1451.2,1312.2,1451.2z"/>
					<path class="st4" d="M1321.3,1454h-3.9v-19.8h3.9V1454z"/>
					<path class="st4" d="M1327.3,1434.3c0.6,0,1.1,0.1,1.5,0.4c0.4,0.3,0.6,0.8,0.6,1.5c0,0.7-0.2,1.2-0.6,1.5
						c-0.4,0.3-0.9,0.4-1.5,0.4c-0.6,0-1.1-0.1-1.5-0.4c-0.4-0.3-0.6-0.8-0.6-1.5c0-0.7,0.2-1.2,0.6-1.5
						C1326.3,1434.4,1326.8,1434.3,1327.3,1434.3z M1329.3,1439.8v14.2h-3.9v-14.2H1329.3z"/>
					<path class="st4" d="M1339.1,1454.3c-2.1,0-3.7-0.6-4.9-1.7c-1.2-1.2-1.7-3-1.7-5.5c0-1.7,0.3-3.1,0.9-4.2
						c0.6-1.1,1.4-1.9,2.5-2.4c1-0.5,2.3-0.8,3.6-0.8c1,0,1.8,0.1,2.5,0.3s1.3,0.4,1.9,0.7l-1.1,3c-0.6-0.2-1.2-0.4-1.7-0.6
						c-0.5-0.2-1.1-0.2-1.6-0.2c-2,0-3,1.4-3,4.3c0,1.4,0.3,2.5,0.8,3.1c0.5,0.7,1.3,1,2.2,1c0.8,0,1.5-0.1,2.2-0.3s1.2-0.5,1.8-0.9
						v3.3c-0.6,0.4-1.2,0.7-1.9,0.8C1340.9,1454.2,1340.1,1454.3,1339.1,1454.3z"/>
					<path class="st4" d="M1350.6,1434.3v4c0,0.7,0,1.4-0.1,2c0,0.6-0.1,1.1-0.1,1.3h0.2c0.5-0.7,1-1.3,1.7-1.6
						c0.7-0.3,1.5-0.5,2.4-0.5c1.5,0,2.8,0.4,3.7,1.2s1.4,2.1,1.4,4v9.3h-3.9v-8.3c0-2-0.8-3.1-2.3-3.1c-1.2,0-2,0.4-2.4,1.2
						c-0.4,0.8-0.7,2-0.7,3.5v6.7h-3.9v-19.8H1350.6z"/>
					<path class="st4" d="M1378.4,1442.7h-3.4v11.3h-3.9v-11.3h-2.1v-1.9l2.1-1v-1c0-1.2,0.2-2.2,0.6-2.8s1-1.1,1.7-1.4
						s1.6-0.4,2.7-0.4c0.7,0,1.4,0.1,2.1,0.2s1.1,0.3,1.5,0.4l-1,2.8c-0.3-0.1-0.6-0.2-1-0.2c-0.4-0.1-0.8-0.1-1.2-0.1
						c-0.5,0-0.9,0.2-1.2,0.5c-0.3,0.3-0.4,0.7-0.4,1.2v0.9h3.4V1442.7z"/>
					<path class="st4" d="M1393.6,1439.8v14.2h-3l-0.5-1.8h-0.2c-0.5,0.7-1.1,1.3-1.9,1.6c-0.8,0.3-1.6,0.5-2.5,0.5
						c-1.5,0-2.7-0.4-3.7-1.2c-0.9-0.8-1.4-2.1-1.4-4v-9.3h3.9v8.3c0,1,0.2,1.8,0.5,2.3c0.4,0.5,0.9,0.8,1.7,0.8
						c1.2,0,2-0.4,2.4-1.2s0.7-2,0.7-3.5v-6.7H1393.6z M1382.7,1436.2c0-0.6,0.2-1,0.5-1.3c0.3-0.3,0.8-0.4,1.2-0.4
						c0.5,0,0.9,0.1,1.3,0.4s0.5,0.7,0.5,1.3c0,0.6-0.2,1-0.5,1.3s-0.8,0.4-1.3,0.4c-0.5,0-0.9-0.1-1.2-0.4
						C1382.9,1437.2,1382.7,1436.8,1382.7,1436.2z M1387.9,1436.2c0-0.6,0.2-1,0.5-1.3s0.8-0.4,1.3-0.4c0.5,0,0.9,0.1,1.3,0.4
						s0.5,0.7,0.5,1.3c0,0.6-0.2,1-0.5,1.3s-0.8,0.4-1.3,0.4c-0.5,0-0.9-0.1-1.3-0.4S1387.9,1436.8,1387.9,1436.2z"/>
					<path class="st4" d="M1405.6,1439.6c0.2,0,0.4,0,0.7,0s0.5,0,0.6,0.1l-0.3,3.6c-0.1,0-0.3-0.1-0.5-0.1c-0.2,0-0.4,0-0.6,0
						c-0.7,0-1.3,0.1-1.9,0.4c-0.6,0.2-1.1,0.6-1.5,1.1c-0.4,0.5-0.6,1.2-0.6,2.1v7.2h-3.9v-14.2h2.9l0.6,2.4h0.2
						c0.4-0.7,1-1.4,1.7-1.9C1403.8,1439.8,1404.6,1439.6,1405.6,1439.6z"/>
					<path class="st4" d="M1420.7,1454.3c-1.6,0-2.9-0.6-3.9-1.9s-1.5-3.1-1.5-5.5c0-2.4,0.5-4.3,1.5-5.5s2.3-1.9,4-1.9
						c1,0,1.9,0.2,2.5,0.6c0.7,0.4,1.2,0.9,1.6,1.5h0.1c-0.1-0.3-0.1-0.7-0.2-1.2c-0.1-0.5-0.1-1.1-0.1-1.6v-4.6h3.9v19.8h-3
						l-0.8-1.8h-0.2c-0.4,0.6-0.9,1.1-1.5,1.5C1422.6,1454.1,1421.8,1454.3,1420.7,1454.3z M1422.1,1451.2c1.1,0,1.8-0.3,2.2-0.9
						c0.4-0.6,0.7-1.6,0.7-2.8v-0.4c0-1.4-0.2-2.4-0.6-3.2c-0.4-0.7-1.2-1.1-2.4-1.1c-0.8,0-1.5,0.4-2,1.1c-0.5,0.7-0.7,1.8-0.7,3.2
						s0.2,2.4,0.7,3.1C1420.5,1450.8,1421.2,1451.2,1422.1,1451.2z"/>
					<path class="st4" d="M1438.5,1439.5c1.9,0,3.4,0.4,4.4,1.2s1.5,2.1,1.5,3.8v9.5h-2.7l-0.8-1.9h-0.1c-0.6,0.8-1.2,1.3-1.9,1.7
						c-0.7,0.3-1.6,0.5-2.8,0.5c-1.3,0-2.3-0.4-3.1-1.1c-0.8-0.7-1.2-1.9-1.2-3.4c0-1.5,0.5-2.6,1.6-3.3c1.1-0.7,2.6-1.1,4.8-1.2
						l2.5-0.1v-0.6c0-0.7-0.2-1.3-0.6-1.6c-0.4-0.3-0.9-0.5-1.6-0.5s-1.4,0.1-2,0.3c-0.7,0.2-1.3,0.4-2,0.7l-1.3-2.6
						c0.7-0.4,1.6-0.7,2.5-0.9C1436.5,1439.7,1437.5,1439.5,1438.5,1439.5z M1440.6,1447.4l-1.5,0.1c-1.2,0-2.1,0.3-2.6,0.7
						s-0.7,1-0.7,1.6c0,0.6,0.2,1,0.5,1.3c0.3,0.3,0.8,0.4,1.4,0.4c0.8,0,1.5-0.2,2.1-0.7c0.6-0.5,0.9-1.2,0.9-2.1V1447.4z"/>
					<path class="st4" d="M1458.3,1449.8c0,1.4-0.5,2.5-1.5,3.3c-1,0.8-2.5,1.2-4.5,1.2c-1,0-1.8-0.1-2.5-0.2
						c-0.7-0.1-1.4-0.3-2.1-0.6v-3.2c0.8,0.3,1.6,0.6,2.5,0.9c0.9,0.2,1.7,0.3,2.3,0.3c0.7,0,1.3-0.1,1.6-0.3
						c0.3-0.2,0.5-0.5,0.5-0.9c0-0.2-0.1-0.5-0.2-0.7c-0.1-0.2-0.4-0.4-0.8-0.6c-0.4-0.2-1.1-0.6-2-0.9c-0.9-0.4-1.6-0.8-2.2-1.1
						c-0.6-0.4-1-0.8-1.3-1.4c-0.3-0.5-0.4-1.2-0.4-2c0-1.3,0.5-2.3,1.5-3c1-0.7,2.4-1,4.1-1c0.9,0,1.7,0.1,2.5,0.3
						c0.8,0.2,1.6,0.5,2.5,0.9l-1.2,2.8c-0.7-0.3-1.4-0.5-2-0.7c-0.6-0.2-1.3-0.3-1.9-0.3c-1.1,0-1.7,0.3-1.7,0.9
						c0,0.2,0.1,0.4,0.2,0.6c0.1,0.2,0.4,0.4,0.9,0.6s1.1,0.5,1.9,0.8c0.8,0.3,1.5,0.7,2.1,1c0.6,0.4,1,0.8,1.4,1.3
						C1458.1,1448.3,1458.3,1449,1458.3,1449.8z"/>
					<path class="st4" d="M1464.9,1451l0.2,0.3c-0.2,0.9-0.6,1.9-1,3s-0.8,2.1-1.3,3.1h-2.8c0.2-1,0.5-2.1,0.7-3.3s0.4-2.2,0.6-3.1
						H1464.9z"/>
					<path class="st4" d="M1487.2,1454l-1.1-5c-0.1-0.3-0.2-0.7-0.3-1.3c-0.1-0.6-0.3-1.2-0.4-1.9c-0.2-0.7-0.3-1.3-0.4-1.8
						c-0.1-0.6-0.2-1-0.3-1.2h-0.1c-0.1,0.3-0.1,0.7-0.3,1.2s-0.3,1.2-0.4,1.8c-0.2,0.7-0.3,1.3-0.4,1.9c-0.1,0.6-0.2,1-0.3,1.4
						l-1.1,4.9h-4.2l-4-14.2h3.8l1.6,6.3c0.1,0.5,0.2,1,0.3,1.6c0.1,0.6,0.2,1.2,0.3,1.7s0.1,1,0.2,1.3h0.1c0-0.2,0.1-0.6,0.1-1
						c0.1-0.4,0.1-0.8,0.2-1.3c0.1-0.4,0.1-0.8,0.2-1.2c0.1-0.3,0.1-0.6,0.1-0.7l1.7-6.8h4.3l1.7,6.8c0.1,0.2,0.1,0.6,0.2,1.2
						c0.1,0.5,0.2,1.1,0.3,1.6c0.1,0.6,0.1,1,0.1,1.3h0.1c0-0.3,0.1-0.7,0.2-1.3c0.1-0.6,0.2-1.2,0.3-1.8c0.1-0.6,0.2-1.1,0.4-1.6
						l1.7-6.3h3.8l-4.1,14.2H1487.2z"/>
					<path class="st4" d="M1503.6,1439.5c1.9,0,3.4,0.4,4.4,1.2c1,0.8,1.5,2.1,1.5,3.8v9.5h-2.7l-0.8-1.9h-0.1
						c-0.6,0.8-1.2,1.3-1.9,1.7c-0.7,0.3-1.6,0.5-2.8,0.5c-1.3,0-2.3-0.4-3.1-1.1c-0.8-0.7-1.2-1.9-1.2-3.4c0-1.5,0.5-2.6,1.6-3.3
						c1.1-0.7,2.6-1.1,4.8-1.2l2.5-0.1v-0.6c0-0.7-0.2-1.3-0.6-1.6c-0.4-0.3-0.9-0.5-1.6-0.5c-0.7,0-1.4,0.1-2,0.3
						c-0.7,0.2-1.3,0.4-2,0.7l-1.3-2.6c0.7-0.4,1.6-0.7,2.5-0.9C1501.6,1439.7,1502.6,1439.5,1503.6,1439.5z M1505.6,1447.4
						l-1.5,0.1c-1.2,0-2.1,0.3-2.6,0.7s-0.7,1-0.7,1.6c0,0.6,0.2,1,0.5,1.3c0.3,0.3,0.8,0.4,1.4,0.4c0.8,0,1.5-0.2,2.1-0.7
						c0.6-0.5,0.9-1.2,0.9-2.1V1447.4z"/>
					<path class="st4" d="M1523.4,1449.8c0,1.4-0.5,2.5-1.5,3.3c-1,0.8-2.5,1.2-4.5,1.2c-1,0-1.8-0.1-2.5-0.2
						c-0.7-0.1-1.4-0.3-2.1-0.6v-3.2c0.8,0.3,1.6,0.6,2.5,0.9c0.9,0.2,1.7,0.3,2.3,0.3c0.7,0,1.3-0.1,1.6-0.3
						c0.3-0.2,0.5-0.5,0.5-0.9c0-0.2-0.1-0.5-0.2-0.7c-0.1-0.2-0.4-0.4-0.8-0.6c-0.4-0.2-1.1-0.6-2-0.9c-0.9-0.4-1.6-0.8-2.2-1.1
						c-0.6-0.4-1-0.8-1.3-1.4c-0.3-0.5-0.4-1.2-0.4-2c0-1.3,0.5-2.3,1.5-3c1-0.7,2.4-1,4.1-1c0.9,0,1.7,0.1,2.5,0.3
						c0.8,0.2,1.6,0.5,2.5,0.9l-1.2,2.8c-0.7-0.3-1.4-0.5-2-0.7s-1.3-0.3-1.9-0.3c-1.1,0-1.7,0.3-1.7,0.9c0,0.2,0.1,0.4,0.2,0.6
						c0.1,0.2,0.4,0.4,0.9,0.6s1.1,0.5,1.9,0.8c0.8,0.3,1.5,0.7,2.1,1c0.6,0.4,1,0.8,1.4,1.3
						C1523.2,1448.3,1523.4,1449,1523.4,1449.8z"/>
				</g>
				<g class="st3">
					<path class="st4" d="M1172.5,1468.3c0.6,0,1.1,0.1,1.5,0.4c0.4,0.3,0.6,0.8,0.6,1.5c0,0.7-0.2,1.2-0.6,1.5s-0.9,0.4-1.5,0.4
						c-0.6,0-1.1-0.1-1.5-0.4s-0.6-0.8-0.6-1.5c0-0.7,0.2-1.2,0.6-1.5C1171.4,1468.4,1171.9,1468.3,1172.5,1468.3z M1174.4,1473.8
						v14.2h-3.9v-14.2H1174.4z"/>
					<path class="st4" d="M1186.5,1473.6c1.5,0,2.7,0.4,3.7,1.2c0.9,0.8,1.4,2.1,1.4,4v9.3h-3.9v-8.3c0-1-0.2-1.8-0.5-2.3
						c-0.4-0.5-0.9-0.8-1.7-0.8c-1.2,0-2,0.4-2.4,1.2c-0.4,0.8-0.6,2-0.6,3.5v6.7h-3.9v-14.2h3l0.5,1.8h0.2c0.5-0.7,1.1-1.3,1.9-1.6
						C1184.8,1473.7,1185.6,1473.6,1186.5,1473.6z"/>
					<path class="st4" d="M1206.8,1488.3c-1.6,0-2.9-0.6-3.9-1.9c-1-1.2-1.5-3.1-1.5-5.5c0-2.4,0.5-4.3,1.5-5.5c1-1.2,2.3-1.9,4-1.9
						c1,0,1.9,0.2,2.5,0.6c0.7,0.4,1.2,0.9,1.6,1.5h0.1c-0.1-0.3-0.1-0.7-0.2-1.2c-0.1-0.5-0.1-1.1-0.1-1.6v-4.5h3.9v19.8h-3
						l-0.8-1.8h-0.2c-0.4,0.6-0.9,1.1-1.5,1.5C1208.6,1488.1,1207.8,1488.3,1206.8,1488.3z M1208.1,1485.2c1.1,0,1.8-0.3,2.2-0.9
						s0.7-1.6,0.7-2.8v-0.4c0-1.4-0.2-2.4-0.6-3.2c-0.4-0.7-1.2-1.1-2.4-1.1c-0.8,0-1.5,0.4-2,1.1c-0.5,0.7-0.7,1.8-0.7,3.2
						s0.2,2.4,0.7,3.1C1206.6,1484.8,1207.2,1485.2,1208.1,1485.2z"/>
					<path class="st4" d="M1224.6,1473.6c2,0,3.5,0.6,4.7,1.7c1.1,1.1,1.7,2.7,1.7,4.8v1.9h-9.2c0,1.1,0.4,2,1,2.6
						c0.6,0.6,1.5,0.9,2.6,0.9c0.9,0,1.7-0.1,2.5-0.3c0.8-0.2,1.5-0.5,2.3-0.8v3c-0.7,0.3-1.4,0.6-2.2,0.8c-0.8,0.2-1.7,0.2-2.8,0.2
						c-1.4,0-2.7-0.3-3.8-0.8c-1.1-0.5-2-1.3-2.6-2.4c-0.6-1.1-0.9-2.4-0.9-4.1c0-1.6,0.3-3,0.8-4.1c0.6-1.1,1.3-1.9,2.4-2.5
						C1222.1,1473.8,1223.3,1473.6,1224.6,1473.6z M1224.6,1476.3c-0.8,0-1.4,0.2-1.9,0.7c-0.5,0.5-0.8,1.2-0.9,2.3h5.4
						c0-0.8-0.2-1.6-0.7-2.1S1225.5,1476.3,1224.6,1476.3z"/>
					<path class="st4" d="M1242,1473.6c0.2,0,0.4,0,0.7,0c0.3,0,0.5,0,0.6,0.1l-0.3,3.6c-0.1,0-0.3-0.1-0.5-0.1c-0.2,0-0.4,0-0.6,0
						c-0.7,0-1.3,0.1-1.9,0.4c-0.6,0.2-1.1,0.6-1.5,1.1c-0.4,0.5-0.6,1.2-0.6,2.1v7.2h-3.9v-14.2h2.9l0.6,2.4h0.2
						c0.4-0.7,1-1.4,1.7-1.9C1240.2,1473.8,1241.1,1473.6,1242,1473.6z"/>
					<path class="st4" d="M1265.1,1488h-13.8v-2.5l8.9-12.8h-8.7v-3.2h13.3v2.5l-8.9,12.8h9.1V1488z"/>
					<path class="st4" d="M1280.7,1473.8v14.2h-3l-0.5-1.8h-0.2c-0.5,0.7-1.1,1.3-1.9,1.6c-0.8,0.3-1.6,0.5-2.5,0.5
						c-1.5,0-2.7-0.4-3.7-1.2c-0.9-0.8-1.4-2.1-1.4-4v-9.3h3.9v8.3c0,1,0.2,1.8,0.5,2.3c0.4,0.5,0.9,0.8,1.7,0.8
						c1.2,0,2-0.4,2.4-1.2s0.7-2,0.7-3.5v-6.7H1280.7z"/>
					<path class="st4" d="M1288.7,1468.3v8.8c0,0.5,0,1.1-0.1,1.6c0,0.5-0.1,1.1-0.1,1.6h0.1c0.3-0.4,0.5-0.7,0.8-1.1
						c0.3-0.4,0.6-0.7,0.9-1.1l4-4.3h4.4l-5.6,6.2l6,8h-4.5l-4.1-5.7l-1.7,1.3v4.4h-3.9v-19.8H1288.7z"/>
					<path class="st4" d="M1314,1473.8v14.2h-3l-0.5-1.8h-0.2c-0.5,0.7-1.1,1.3-1.9,1.6c-0.8,0.3-1.6,0.5-2.5,0.5
						c-1.5,0-2.7-0.4-3.7-1.2c-0.9-0.8-1.4-2.1-1.4-4v-9.3h3.9v8.3c0,1,0.2,1.8,0.5,2.3c0.4,0.5,0.9,0.8,1.7,0.8
						c1.2,0,2-0.4,2.4-1.2s0.7-2,0.7-3.5v-6.7H1314z"/>
					<path class="st4" d="M1326.1,1473.6c1.5,0,2.7,0.4,3.7,1.2c0.9,0.8,1.4,2.1,1.4,4v9.3h-3.9v-8.3c0-1-0.2-1.8-0.5-2.3
						c-0.4-0.5-0.9-0.8-1.7-0.8c-1.2,0-2,0.4-2.4,1.2c-0.4,0.8-0.6,2-0.6,3.5v6.7h-3.9v-14.2h3l0.5,1.8h0.2c0.5-0.7,1.1-1.3,1.9-1.6
						C1324.3,1473.7,1325.2,1473.6,1326.1,1473.6z"/>
					<path class="st4" d="M1342.9,1476.7h-3.4v11.3h-3.9v-11.3h-2.1v-1.9l2.1-1v-1c0-1.2,0.2-2.2,0.6-2.8c0.4-0.7,1-1.1,1.7-1.4
						s1.6-0.4,2.7-0.4c0.7,0,1.4,0.1,2.1,0.2s1.1,0.3,1.5,0.4l-1,2.8c-0.3-0.1-0.6-0.2-1-0.2c-0.4-0.1-0.8-0.1-1.2-0.1
						c-0.5,0-0.9,0.2-1.2,0.5c-0.3,0.3-0.4,0.7-0.4,1.2v0.9h3.4V1476.7z"/>
					<path class="st4" d="M1351.1,1485.2c0.4,0,0.8,0,1.2-0.1c0.4-0.1,0.8-0.2,1.2-0.3v2.9c-0.4,0.2-0.9,0.3-1.5,0.5s-1.3,0.2-2,0.2
						c-0.8,0-1.6-0.1-2.3-0.4c-0.7-0.3-1.2-0.8-1.6-1.4c-0.4-0.7-0.6-1.6-0.6-2.9v-6.8h-1.8v-1.6l2.1-1.3l1.1-3h2.5v3h4v2.9h-4v6.8
						c0,0.5,0.2,0.9,0.5,1.2C1350.2,1485.1,1350.6,1485.2,1351.1,1485.2z"/>
					<path class="st4" d="M1367.8,1473.6c1.8,0,3.1,0.7,4.1,2.1h0.1l0.3-1.8h3.3v14.2c0,2-0.6,3.6-1.8,4.6c-1.2,1.1-3,1.6-5.3,1.6
						c-1,0-1.9-0.1-2.8-0.2c-0.9-0.1-1.7-0.3-2.5-0.6v-3.1c1.7,0.7,3.6,1.1,5.5,1.1c2,0,3-1.1,3-3.2v-0.3c0-0.3,0-0.6,0-0.9
						c0-0.3,0-0.6,0.1-0.8h-0.1c-0.5,0.7-1.1,1.3-1.7,1.6s-1.4,0.5-2.3,0.5c-1.7,0-3-0.6-3.9-1.9c-0.9-1.3-1.4-3.1-1.4-5.4
						c0-2.3,0.5-4.1,1.5-5.4S1366.1,1473.6,1367.8,1473.6z M1369,1476.7c-1.8,0-2.7,1.4-2.7,4.3c0,2.8,0.9,4.2,2.8,4.2
						c1,0,1.7-0.3,2.2-0.8s0.7-1.5,0.7-3v-0.5c0-1.5-0.2-2.6-0.7-3.3C1370.8,1477,1370.1,1476.7,1369,1476.7z"/>
					<path class="st4" d="M1385.5,1473.6c2,0,3.5,0.6,4.7,1.7c1.1,1.1,1.7,2.7,1.7,4.8v1.9h-9.2c0,1.1,0.4,2,1,2.6
						c0.6,0.6,1.5,0.9,2.6,0.9c0.9,0,1.7-0.1,2.5-0.3c0.8-0.2,1.5-0.5,2.3-0.8v3c-0.7,0.3-1.4,0.6-2.2,0.8c-0.8,0.2-1.7,0.2-2.8,0.2
						c-1.4,0-2.7-0.3-3.8-0.8c-1.1-0.5-2-1.3-2.6-2.4c-0.6-1.1-0.9-2.4-0.9-4.1c0-1.6,0.3-3,0.8-4.1c0.6-1.1,1.3-1.9,2.4-2.5
						C1383,1473.8,1384.2,1473.6,1385.5,1473.6z M1385.5,1476.3c-0.8,0-1.4,0.2-1.9,0.7c-0.5,0.5-0.8,1.2-0.9,2.3h5.4
						c0-0.8-0.2-1.6-0.7-2.1S1386.4,1476.3,1385.5,1476.3z"/>
					<path class="st4" d="M1404.9,1483.8c0,1.4-0.5,2.5-1.5,3.3c-1,0.8-2.5,1.2-4.5,1.2c-1,0-1.8-0.1-2.5-0.2
						c-0.7-0.1-1.4-0.3-2.1-0.6v-3.2c0.8,0.3,1.6,0.6,2.5,0.9c0.9,0.2,1.7,0.3,2.3,0.3c0.7,0,1.3-0.1,1.6-0.3
						c0.3-0.2,0.5-0.5,0.5-0.9c0-0.2-0.1-0.5-0.2-0.7c-0.1-0.2-0.4-0.4-0.8-0.6c-0.4-0.2-1.1-0.6-2-0.9c-0.9-0.4-1.6-0.8-2.2-1.1
						c-0.6-0.4-1-0.8-1.3-1.4c-0.3-0.5-0.4-1.2-0.4-2c0-1.3,0.5-2.3,1.5-3c1-0.7,2.4-1,4.1-1c0.9,0,1.7,0.1,2.5,0.3
						c0.8,0.2,1.6,0.5,2.5,0.9l-1.2,2.8c-0.7-0.3-1.4-0.5-2-0.7c-0.6-0.2-1.3-0.3-1.9-0.3c-1.1,0-1.7,0.3-1.7,0.9
						c0,0.2,0.1,0.4,0.2,0.6c0.1,0.2,0.4,0.4,0.9,0.6s1.1,0.5,1.9,0.8c0.8,0.3,1.5,0.7,2.1,1c0.6,0.4,1,0.8,1.4,1.3
						C1404.8,1482.3,1404.9,1483,1404.9,1483.8z"/>
					<path class="st4" d="M1413.7,1488.3c-2.1,0-3.7-0.6-4.9-1.7c-1.2-1.2-1.7-3-1.7-5.5c0-1.7,0.3-3.1,0.9-4.2
						c0.6-1.1,1.4-1.9,2.5-2.4c1-0.5,2.3-0.8,3.6-0.8c1,0,1.8,0.1,2.5,0.3c0.7,0.2,1.3,0.4,1.9,0.7l-1.1,3c-0.6-0.2-1.2-0.4-1.7-0.6
						c-0.5-0.2-1.1-0.2-1.6-0.2c-2,0-3,1.4-3,4.3c0,1.4,0.3,2.5,0.8,3.1c0.5,0.7,1.3,1,2.2,1c0.8,0,1.5-0.1,2.2-0.3
						c0.6-0.2,1.2-0.5,1.8-0.9v3.3c-0.6,0.4-1.2,0.7-1.9,0.8C1415.5,1488.2,1414.7,1488.3,1413.7,1488.3z"/>
					<path class="st4" d="M1425.2,1468.3v4c0,0.7,0,1.4-0.1,2c0,0.6-0.1,1.1-0.1,1.3h0.2c0.5-0.7,1-1.3,1.7-1.6s1.5-0.5,2.4-0.5
						c1.5,0,2.8,0.4,3.7,1.2c0.9,0.8,1.4,2.1,1.4,4v9.3h-3.9v-8.3c0-2-0.8-3.1-2.3-3.1c-1.2,0-2,0.4-2.4,1.2c-0.4,0.8-0.7,2-0.7,3.5
						v6.7h-3.9v-19.8H1425.2z"/>
					<path class="st4" d="M1440.3,1468.3c0.6,0,1.1,0.1,1.5,0.4c0.4,0.3,0.6,0.8,0.6,1.5c0,0.7-0.2,1.2-0.6,1.5s-0.9,0.4-1.5,0.4
						c-0.6,0-1.1-0.1-1.5-0.4c-0.4-0.3-0.6-0.8-0.6-1.5c0-0.7,0.2-1.2,0.6-1.5C1439.2,1468.4,1439.7,1468.3,1440.3,1468.3z
						 M1442.3,1473.8v14.2h-3.9v-14.2H1442.3z"/>
					<path class="st4" d="M1452.2,1473.6c2,0,3.5,0.6,4.7,1.7s1.7,2.7,1.7,4.8v1.9h-9.2c0,1.1,0.4,2,1,2.6c0.6,0.6,1.5,0.9,2.6,0.9
						c0.9,0,1.7-0.1,2.5-0.3c0.8-0.2,1.5-0.5,2.3-0.8v3c-0.7,0.3-1.4,0.6-2.2,0.8c-0.8,0.2-1.7,0.2-2.8,0.2c-1.4,0-2.7-0.3-3.8-0.8
						c-1.1-0.5-1.9-1.3-2.6-2.4c-0.6-1.1-0.9-2.4-0.9-4.1c0-1.6,0.3-3,0.8-4.1c0.6-1.1,1.3-1.9,2.4-2.5
						C1449.7,1473.8,1450.8,1473.6,1452.2,1473.6z M1452.2,1476.3c-0.8,0-1.4,0.2-1.9,0.7s-0.8,1.2-0.9,2.3h5.4
						c0-0.8-0.2-1.6-0.7-2.1S1453.1,1476.3,1452.2,1476.3z"/>
					<path class="st4" d="M1465.6,1468.3v4c0,0.7,0,1.4-0.1,2c0,0.6-0.1,1.1-0.1,1.3h0.2c0.5-0.7,1-1.3,1.7-1.6s1.5-0.5,2.4-0.5
						c1.5,0,2.8,0.4,3.7,1.2s1.4,2.1,1.4,4v9.3h-3.9v-8.3c0-2-0.8-3.1-2.3-3.1c-1.2,0-2,0.4-2.4,1.2c-0.4,0.8-0.7,2-0.7,3.5v6.7
						h-3.9v-19.8H1465.6z"/>
					<path class="st4" d="M1484.7,1485.2c0.4,0,0.8,0,1.2-0.1s0.8-0.2,1.2-0.3v2.9c-0.4,0.2-0.9,0.3-1.5,0.5c-0.6,0.1-1.3,0.2-2,0.2
						c-0.8,0-1.6-0.1-2.3-0.4c-0.7-0.3-1.2-0.8-1.6-1.4c-0.4-0.7-0.6-1.6-0.6-2.9v-6.8h-1.8v-1.6l2.1-1.3l1.1-3h2.5v3h4v2.9h-4v6.8
						c0,0.5,0.2,0.9,0.5,1.2C1483.8,1485.1,1484.2,1485.2,1484.7,1485.2z"/>
					<path class="st4" d="M1489.5,1486.2c0-0.8,0.2-1.4,0.6-1.7c0.4-0.3,1-0.5,1.6-0.5c0.6,0,1.1,0.2,1.6,0.5
						c0.4,0.3,0.6,0.9,0.6,1.7c0,0.8-0.2,1.3-0.6,1.7c-0.4,0.3-1,0.5-1.6,0.5c-0.6,0-1.2-0.2-1.6-0.5S1489.5,1487,1489.5,1486.2z"/>
				</g>
			</g>
		</g>
	</g>
</g>
</svg>
