<?xml version="1.0" encoding="utf-8"?>
<!-- Generator: Adobe Illustrator 26.5.0, SVG Export Plug-In . SVG Version: 6.00 Build 0)  -->
<svg version="1.1" id="Ebene_1" xmlns="http://www.w3.org/2000/svg" xmlns:xlink="http://www.w3.org/1999/xlink" x="0px" y="0px"
	 viewBox="0 0 602 471" style="enable-background:new 0 0 602 471;" xml:space="preserve">
<style type="text/css">
	.st0{clip-path:url(#SVGID_00000148652897103380704900000016402194878791295143_);}
	.st1{clip-path:url(#SVGID_00000015341548849704317440000010458003945117750405_);}
	.st2{fill:#53C7A8;}
	.st3{enable-background:new    ;}
	.st4{fill:#FFFFFF;}
	.st5{fill:#F7CE46;}
</style>
<g>
	<defs>
		<rect id="SVGID_1_" y="0" width="602" height="471"/>
	</defs>
	<clipPath id="SVGID_00000145739290538348560910000002685620506807917227_">
		<use xlink:href="#SVGID_1_"  style="overflow:visible;"/>
	</clipPath>
	<g id="Zitat_LA" style="clip-path:url(#SVGID_00000145739290538348560910000002685620506807917227_);">
		<g id="Gruppe_2496" transform="translate(-1080.482 -1180.021)">
			<g id="Gruppe_2432" transform="translate(1080.482 1180.021)">
				<g>
					<defs>
						<rect id="SVGID_00000091005484416121180500000015500978136460953242_" y="0" width="601.6" height="470.9"/>
					</defs>
					<clipPath id="SVGID_00000158713352548864634330000013728660437873931420_">
						<use xlink:href="#SVGID_00000091005484416121180500000015500978136460953242_"  style="overflow:visible;"/>
					</clipPath>
					
						<g id="Gruppe_2431" transform="translate(0 0)" style="clip-path:url(#SVGID_00000158713352548864634330000013728660437873931420_);">
						<g id="Pfad_2671">
							<path class="st2" d="M577.5,233.2C658.1,100.8,520.8-1.6,404.8,0c-85.1,1.2-171.6-3.6-256.2,8.3C47.4,22.6-2.9,77,0.1,180.5
								C2.5,261.8,41.7,360.8,116.9,403c81.6,45.8,173.8,40.3,257,5.2c24.9,24.4,71.9,58.5,142.7,62.6c0,0-35.6-62.1-36.8-126.9
								C519.1,311.9,552.8,273.8,577.5,233.2"/>
						</g>
					</g>
				</g>
			</g>
			<g id="Gruppe_2434" transform="translate(19 -21)">
				<g class="st3">
					<path class="st4" d="M1177.8,1522h-1.6l-3.8-5.1l-1.1,1v4.2h-1.4v-10.7h1.4v5.3c0.3-0.3,0.6-0.7,0.9-1c0.3-0.3,0.6-0.7,0.9-1
						l2.9-3.2h1.6l-4.2,4.7L1177.8,1522z"/>
					<path class="st4" d="M1182.1,1513.8c1,0,1.7,0.2,2.2,0.6c0.5,0.4,0.7,1.1,0.7,2.1v5.5h-1l-0.3-1.1h-0.1c-0.4,0.4-0.7,0.8-1.1,1
						s-0.9,0.3-1.6,0.3c-0.7,0-1.3-0.2-1.8-0.6c-0.5-0.4-0.7-1-0.7-1.8c0-0.8,0.3-1.4,0.9-1.9c0.6-0.4,1.6-0.7,2.9-0.7l1.4,0v-0.5
						c0-0.7-0.1-1.1-0.4-1.4s-0.7-0.4-1.2-0.4c-0.4,0-0.8,0.1-1.2,0.2c-0.4,0.1-0.7,0.3-1.1,0.4l-0.4-1c0.3-0.2,0.8-0.4,1.2-0.5
						S1181.6,1513.8,1182.1,1513.8z M1183.7,1518.1l-1.2,0c-1,0-1.7,0.2-2.1,0.5c-0.4,0.3-0.6,0.7-0.6,1.2c0,0.5,0.1,0.8,0.4,1
						c0.3,0.2,0.6,0.3,1.1,0.3c0.7,0,1.2-0.2,1.7-0.6s0.7-1,0.7-1.7V1518.1z"/>
					<path class="st4" d="M1191.2,1513.8c0.1,0,0.3,0,0.5,0c0.2,0,0.3,0,0.5,0.1l-0.2,1.2c-0.1,0-0.3-0.1-0.4-0.1
						c-0.2,0-0.3,0-0.4,0c-0.4,0-0.8,0.1-1.2,0.3c-0.4,0.2-0.6,0.5-0.9,0.9c-0.2,0.4-0.3,0.9-0.3,1.4v4.3h-1.3v-8h1.1l0.1,1.5h0.1
						c0.2-0.4,0.6-0.8,1-1.1S1190.6,1513.8,1191.2,1513.8z"/>
					<path class="st4" d="M1195,1522h-1.3v-11.4h1.3V1522z"/>
					<path class="st4" d="M1204.4,1511.3c1.4,0,2.4,0.3,3.1,0.8c0.6,0.5,1,1.3,1,2.3c0,0.6-0.1,1.1-0.4,1.7
						c-0.3,0.5-0.7,0.9-1.3,1.3c-0.6,0.3-1.5,0.5-2.5,0.5h-1.2v4.2h-1.4v-10.7H1204.4z M1204.3,1512.5h-1.4v4.2h1.1
						c1,0,1.8-0.2,2.3-0.5s0.8-0.9,0.8-1.7c0-0.7-0.2-1.2-0.7-1.5C1205.9,1512.6,1205.3,1512.5,1204.3,1512.5z"/>
					<path class="st4" d="M1217.5,1518c0,1.3-0.3,2.4-1,3.1c-0.7,0.7-1.6,1.1-2.7,1.1c-0.7,0-1.3-0.2-1.9-0.5
						c-0.6-0.3-1-0.8-1.3-1.4c-0.3-0.6-0.5-1.4-0.5-2.3c0-1.3,0.3-2.4,1-3.1c0.7-0.7,1.6-1.1,2.7-1.1c0.7,0,1.4,0.2,1.9,0.5
						s1,0.8,1.3,1.4C1217.3,1516.3,1217.5,1517.1,1217.5,1518z M1211.4,1518c0,1,0.2,1.7,0.6,2.3s1,0.8,1.8,0.8
						c0.8,0,1.4-0.3,1.8-0.8c0.4-0.6,0.6-1.3,0.6-2.3s-0.2-1.7-0.6-2.2c-0.4-0.5-1-0.8-1.8-0.8s-1.4,0.3-1.8,0.8
						C1211.6,1516.3,1211.4,1517,1211.4,1518z"/>
					<path class="st4" d="M1223.4,1513.8c1,0,1.8,0.3,2.4,1c0.6,0.7,0.9,1.7,0.9,3.1c0,1.4-0.3,2.4-0.9,3.1
						c-0.6,0.7-1.4,1.1-2.4,1.1c-0.6,0-1.1-0.1-1.5-0.3c-0.4-0.2-0.7-0.5-1-0.8h-0.1c0,0.2,0,0.4,0.1,0.6c0,0.3,0,0.5,0,0.7v3.3
						h-1.3V1514h1.1l0.2,1.1h0.1c0.2-0.3,0.6-0.6,0.9-0.9S1222.7,1513.8,1223.4,1513.8z M1223.2,1514.9c-0.8,0-1.4,0.2-1.7,0.7
						c-0.3,0.5-0.5,1.2-0.5,2.1v0.3c0,1,0.2,1.8,0.5,2.3c0.3,0.5,0.9,0.8,1.8,0.8c0.5,0,0.9-0.1,1.2-0.4c0.3-0.3,0.6-0.6,0.7-1.1
						c0.2-0.5,0.2-1,0.2-1.6c0-0.9-0.2-1.7-0.5-2.2S1223.9,1514.9,1223.2,1514.9z"/>
					<path class="st4" d="M1232.6,1513.8c1,0,1.8,0.3,2.4,1c0.6,0.7,0.9,1.7,0.9,3.1c0,1.4-0.3,2.4-0.9,3.1
						c-0.6,0.7-1.4,1.1-2.4,1.1c-0.6,0-1.1-0.1-1.5-0.3c-0.4-0.2-0.7-0.5-1-0.8h-0.1c0,0.2,0,0.4,0.1,0.6c0,0.3,0,0.5,0,0.7v3.3
						h-1.3V1514h1.1l0.2,1.1h0.1c0.2-0.3,0.6-0.6,0.9-0.9S1232,1513.8,1232.6,1513.8z M1232.4,1514.9c-0.8,0-1.4,0.2-1.7,0.7
						c-0.3,0.5-0.5,1.2-0.5,2.1v0.3c0,1,0.2,1.8,0.5,2.3c0.3,0.5,0.9,0.8,1.8,0.8c0.5,0,0.9-0.1,1.2-0.4c0.3-0.3,0.6-0.6,0.7-1.1
						c0.2-0.5,0.2-1,0.2-1.6c0-0.9-0.2-1.7-0.5-2.2S1233.1,1514.9,1232.4,1514.9z"/>
					<path class="st4" d="M1241.1,1513.8c0.7,0,1.3,0.2,1.8,0.5s0.9,0.7,1.1,1.3s0.4,1.2,0.4,1.9v0.8h-5.5c0,0.9,0.3,1.6,0.7,2.1
						c0.4,0.5,1.1,0.7,1.9,0.7c0.5,0,1,0,1.4-0.1c0.4-0.1,0.8-0.2,1.2-0.4v1.2c-0.4,0.2-0.8,0.3-1.2,0.4c-0.4,0.1-0.9,0.1-1.4,0.1
						c-0.8,0-1.4-0.2-2-0.5c-0.6-0.3-1-0.8-1.4-1.4c-0.3-0.6-0.5-1.4-0.5-2.3c0-0.9,0.1-1.6,0.4-2.3c0.3-0.6,0.7-1.1,1.2-1.5
						C1239.8,1514,1240.4,1513.8,1241.1,1513.8z M1241.1,1514.9c-0.6,0-1.1,0.2-1.5,0.6c-0.4,0.4-0.6,1-0.7,1.7h4.1
						c0-0.7-0.2-1.2-0.5-1.7C1242.3,1515.1,1241.8,1514.9,1241.1,1514.9z"/>
					<path class="st4" d="M1250.2,1513.8c0.1,0,0.3,0,0.5,0c0.2,0,0.3,0,0.5,0.1l-0.2,1.2c-0.1,0-0.3-0.1-0.4-0.1
						c-0.2,0-0.3,0-0.4,0c-0.4,0-0.8,0.1-1.2,0.3c-0.4,0.2-0.6,0.5-0.9,0.9c-0.2,0.4-0.3,0.9-0.3,1.4v4.3h-1.3v-8h1.1l0.1,1.5h0.1
						c0.2-0.4,0.6-0.8,1-1.1S1249.7,1513.8,1250.2,1513.8z"/>
				</g>
				<g class="st3">
					<path class="st5" d="M1123.7,1349.1v-6c3.2-0.9,6.3-2.6,9.1-5.2c2.8-2.6,4.2-5.3,4.2-8.1c0-1.9-0.7-2.8-2-2.8
						c-0.3,0-0.9,0.1-1.9,0.4c-1,0.3-1.9,0.5-2.9,0.5c-3.3,0-5.9-1.1-7.7-3.4c-1.8-2.3-2.7-4.7-2.7-7.3c0-3.3,1.1-6.1,3.3-8.3
						c2.2-2.2,4.9-3.3,7.9-3.3c4.6,0,8.1,1.7,10.4,5c2.3,3.3,3.5,7.3,3.5,11.8c0,5.6-1.8,10.9-5.4,16.1
						C1136,1343.8,1130.7,1347.3,1123.7,1349.1z M1156.3,1349.1v-6c3.5-1,6.6-2.8,9.3-5.5c2.7-2.7,4-5.3,4-7.8
						c0-1.9-0.6-2.8-1.9-2.8c-0.3,0-1,0.1-2,0.4c-1,0.3-1.9,0.5-2.8,0.5c-3,0-5.5-1-7.5-3.1c-2-2.1-3-4.6-3-7.6
						c0-3.7,1.2-6.6,3.6-8.6c2.4-2,4.9-3,7.6-3c4.3,0,7.7,1.6,10.2,4.7c2.5,3.1,3.7,7.2,3.7,12.1c0,5.8-1.9,11.2-5.6,16.3
						C1168.2,1343.8,1163,1347.3,1156.3,1349.1z"/>
				</g>
				<g class="st3">
					<path class="st4" d="M1187.3,1352h-5l-8.1-14h-0.1c0,0.9,0.1,1.8,0.1,2.7c0,0.9,0.1,1.8,0.1,2.7v8.7h-3.5v-18.6h5l8.1,13.9h0.1
						c0-0.8-0.1-1.7-0.1-2.5c0-0.8-0.1-1.7-0.1-2.6v-8.8h3.5V1352z"/>
					<path class="st4" d="M1204.5,1344.9c0,2.4-0.6,4.2-1.9,5.5c-1.2,1.3-2.9,1.9-5.1,1.9c-1.3,0-2.5-0.3-3.5-0.9
						c-1-0.6-1.8-1.4-2.4-2.5c-0.6-1.1-0.9-2.4-0.9-4c0-2.4,0.6-4.2,1.8-5.4c1.2-1.3,2.9-1.9,5.1-1.9c1.3,0,2.5,0.3,3.5,0.9
						c1,0.6,1.8,1.4,2.4,2.5C1204.2,1342,1204.5,1343.3,1204.5,1344.9z M1194.7,1344.9c0,1.4,0.2,2.5,0.7,3.2
						c0.5,0.7,1.2,1.1,2.2,1.1c1,0,1.8-0.4,2.2-1.1c0.5-0.7,0.7-1.8,0.7-3.2s-0.2-2.5-0.7-3.2c-0.5-0.7-1.2-1.1-2.2-1.1
						c-1,0-1.8,0.4-2.2,1.1C1195,1342.4,1194.7,1343.5,1194.7,1344.9z"/>
					<path class="st4" d="M1217.6,1347.8c0,1.4-0.5,2.5-1.5,3.3c-1,0.8-2.5,1.2-4.5,1.2c-1,0-1.8-0.1-2.5-0.2
						c-0.7-0.1-1.4-0.3-2.1-0.6v-3.2c0.8,0.3,1.6,0.6,2.5,0.9c0.9,0.2,1.7,0.3,2.3,0.3c0.7,0,1.3-0.1,1.6-0.3
						c0.3-0.2,0.5-0.5,0.5-0.9c0-0.2-0.1-0.5-0.2-0.7c-0.1-0.2-0.4-0.4-0.8-0.6c-0.4-0.2-1.1-0.6-2-0.9c-0.9-0.4-1.6-0.8-2.2-1.1
						c-0.6-0.4-1-0.8-1.3-1.4c-0.3-0.5-0.4-1.2-0.4-2c0-1.3,0.5-2.3,1.5-3c1-0.7,2.4-1,4.1-1c0.9,0,1.7,0.1,2.5,0.3
						c0.8,0.2,1.6,0.5,2.5,0.9l-1.2,2.8c-0.7-0.3-1.4-0.5-2-0.7s-1.3-0.3-1.9-0.3c-1.1,0-1.7,0.3-1.7,0.9c0,0.2,0.1,0.4,0.2,0.6
						c0.1,0.2,0.4,0.4,0.9,0.6c0.4,0.2,1.1,0.5,1.9,0.8c0.8,0.3,1.5,0.7,2.1,1c0.6,0.4,1,0.8,1.4,1.3
						C1217.5,1346.3,1217.6,1347,1217.6,1347.8z"/>
					<path class="st4" d="M1226.6,1349.2c0.4,0,0.8,0,1.2-0.1c0.4-0.1,0.8-0.2,1.2-0.3v2.9c-0.4,0.2-0.9,0.3-1.5,0.5s-1.3,0.2-2,0.2
						c-0.8,0-1.6-0.1-2.3-0.4c-0.7-0.3-1.2-0.8-1.6-1.4c-0.4-0.7-0.6-1.6-0.6-2.9v-6.8h-1.8v-1.6l2.1-1.3l1.1-3h2.5v3h4v2.9h-4v6.8
						c0,0.5,0.2,0.9,0.5,1.2C1225.7,1349.1,1226.1,1349.2,1226.6,1349.2z"/>
					<path class="st4" d="M1237.8,1337.5c1.9,0,3.4,0.4,4.4,1.2c1,0.8,1.5,2.1,1.5,3.8v9.5h-2.7l-0.8-1.9h-0.1
						c-0.6,0.8-1.2,1.3-1.9,1.7c-0.7,0.3-1.6,0.5-2.8,0.5c-1.3,0-2.3-0.4-3.1-1.1c-0.8-0.7-1.2-1.9-1.2-3.4c0-1.5,0.5-2.6,1.6-3.3
						c1.1-0.7,2.6-1.1,4.8-1.2l2.5-0.1v-0.6c0-0.7-0.2-1.3-0.6-1.6c-0.4-0.3-0.9-0.5-1.6-0.5s-1.4,0.1-2,0.3c-0.7,0.2-1.3,0.4-2,0.7
						l-1.3-2.6c0.7-0.4,1.6-0.7,2.5-0.9C1235.8,1337.7,1236.8,1337.5,1237.8,1337.5z M1239.8,1345.4l-1.5,0.1
						c-1.2,0-2.1,0.3-2.6,0.7s-0.7,1-0.7,1.6c0,0.6,0.2,1,0.5,1.3c0.3,0.3,0.8,0.4,1.4,0.4c0.8,0,1.5-0.2,2.1-0.7
						c0.6-0.5,0.9-1.2,0.9-2.1V1345.4z"/>
					<path class="st4" d="M1262.3,1337.6c1.6,0,2.9,0.6,3.9,1.9c1,1.2,1.5,3.1,1.5,5.5c0,2.4-0.5,4.3-1.5,5.5
						c-1,1.2-2.3,1.9-3.9,1.9c-1,0-1.8-0.2-2.4-0.6c-0.6-0.4-1.1-0.8-1.5-1.3h-0.2c0.1,0.7,0.2,1.4,0.2,2.1v5.7h-3.9v-20.4h3.1
						l0.5,1.8h0.2c0.4-0.6,0.9-1.1,1.5-1.5C1260.5,1337.8,1261.3,1337.6,1262.3,1337.6z M1261.1,1340.7c-1,0-1.7,0.3-2.1,0.9
						c-0.4,0.6-0.6,1.6-0.6,2.8v0.4c0,1.4,0.2,2.4,0.6,3.2c0.4,0.7,1.1,1.1,2.2,1.1c0.9,0,1.5-0.4,2-1.1c0.4-0.7,0.6-1.8,0.6-3.2
						C1263.7,1342.1,1262.8,1340.7,1261.1,1340.7z"/>
					<path class="st4" d="M1283.8,1344.9c0,2.4-0.6,4.2-1.9,5.5c-1.2,1.3-2.9,1.9-5.1,1.9c-1.3,0-2.5-0.3-3.5-0.9
						c-1-0.6-1.8-1.4-2.4-2.5c-0.6-1.1-0.9-2.4-0.9-4c0-2.4,0.6-4.2,1.8-5.4c1.2-1.3,2.9-1.9,5.1-1.9c1.3,0,2.5,0.3,3.5,0.9
						c1,0.6,1.8,1.4,2.4,2.5C1283.5,1342,1283.8,1343.3,1283.8,1344.9z M1274,1344.9c0,1.4,0.2,2.5,0.7,3.2c0.5,0.7,1.2,1.1,2.2,1.1
						c1,0,1.8-0.4,2.2-1.1c0.5-0.7,0.7-1.8,0.7-3.2s-0.2-2.5-0.7-3.2c-0.5-0.7-1.2-1.1-2.2-1.1c-1,0-1.8,0.4-2.2,1.1
						C1274.2,1342.4,1274,1343.5,1274,1344.9z"/>
					<path class="st4" d="M1296.9,1347.8c0,1.4-0.5,2.5-1.5,3.3c-1,0.8-2.5,1.2-4.5,1.2c-1,0-1.8-0.1-2.5-0.2
						c-0.7-0.1-1.4-0.3-2.1-0.6v-3.2c0.8,0.3,1.6,0.6,2.5,0.9c0.9,0.2,1.7,0.3,2.3,0.3c0.7,0,1.3-0.1,1.6-0.3
						c0.3-0.2,0.5-0.5,0.5-0.9c0-0.2-0.1-0.5-0.2-0.7c-0.1-0.2-0.4-0.4-0.8-0.6c-0.4-0.2-1.1-0.6-2-0.9c-0.9-0.4-1.6-0.8-2.2-1.1
						c-0.6-0.4-1-0.8-1.3-1.4c-0.3-0.5-0.4-1.2-0.4-2c0-1.3,0.5-2.3,1.5-3c1-0.7,2.4-1,4.1-1c0.9,0,1.7,0.1,2.5,0.3
						c0.8,0.2,1.6,0.5,2.5,0.9l-1.2,2.8c-0.7-0.3-1.4-0.5-2-0.7s-1.3-0.3-1.9-0.3c-1.1,0-1.7,0.3-1.7,0.9c0,0.2,0.1,0.4,0.2,0.6
						c0.1,0.2,0.4,0.4,0.9,0.6c0.4,0.2,1.1,0.5,1.9,0.8c0.8,0.3,1.5,0.7,2.1,1c0.6,0.4,1,0.8,1.4,1.3
						C1296.7,1346.3,1296.9,1347,1296.9,1347.8z"/>
					<path class="st4" d="M1301.8,1332.3c0.6,0,1.1,0.1,1.5,0.4c0.4,0.3,0.6,0.8,0.6,1.5c0,0.7-0.2,1.2-0.6,1.5s-0.9,0.4-1.5,0.4
						c-0.6,0-1.1-0.1-1.5-0.4s-0.6-0.8-0.6-1.5c0-0.7,0.2-1.2,0.6-1.5C1300.7,1332.4,1301.2,1332.3,1301.8,1332.3z M1303.8,1337.8
						v14.2h-3.9v-14.2H1303.8z"/>
					<path class="st4" d="M1317.7,1352h-11.2v-2.3l6.6-8.9h-6.2v-3h10.6v2.5l-6.4,8.7h6.6V1352z"/>
					<path class="st4" d="M1322.5,1332.3c0.6,0,1.1,0.1,1.5,0.4c0.4,0.3,0.6,0.8,0.6,1.5c0,0.7-0.2,1.2-0.6,1.5s-0.9,0.4-1.5,0.4
						c-0.6,0-1.1-0.1-1.5-0.4s-0.6-0.8-0.6-1.5c0-0.7,0.2-1.2,0.6-1.5C1321.4,1332.4,1321.9,1332.3,1322.5,1332.3z M1324.4,1337.8
						v14.2h-3.9v-14.2H1324.4z"/>
					<path class="st4" d="M1341.5,1337.8v14.2h-3l-0.5-1.8h-0.2c-0.5,0.7-1.1,1.3-1.9,1.6c-0.8,0.3-1.6,0.5-2.5,0.5
						c-1.5,0-2.7-0.4-3.7-1.2c-0.9-0.8-1.4-2.1-1.4-4v-9.3h3.9v8.3c0,1,0.2,1.8,0.5,2.3c0.4,0.5,0.9,0.8,1.7,0.8
						c1.2,0,2-0.4,2.4-1.2s0.7-2,0.7-3.5v-6.7H1341.5z"/>
					<path class="st4" d="M1353.6,1337.6c1.5,0,2.7,0.4,3.7,1.2c0.9,0.8,1.4,2.1,1.4,4v9.3h-3.9v-8.3c0-1-0.2-1.8-0.5-2.3
						c-0.4-0.5-0.9-0.8-1.7-0.8c-1.2,0-2,0.4-2.4,1.2c-0.4,0.8-0.6,2-0.6,3.5v6.7h-3.9v-14.2h3l0.5,1.8h0.2c0.5-0.7,1.1-1.3,1.9-1.6
						C1351.9,1337.7,1352.7,1337.6,1353.6,1337.6z"/>
					<path class="st4" d="M1373.9,1352.3c-1.6,0-2.9-0.6-3.9-1.9c-1-1.2-1.5-3.1-1.5-5.5c0-2.4,0.5-4.3,1.5-5.5c1-1.2,2.3-1.9,4-1.9
						c1,0,1.9,0.2,2.5,0.6c0.7,0.4,1.2,0.9,1.6,1.5h0.1c-0.1-0.3-0.1-0.7-0.2-1.2c-0.1-0.5-0.1-1.1-0.1-1.6v-4.5h3.9v19.8h-3
						l-0.8-1.8h-0.2c-0.4,0.6-0.9,1.1-1.5,1.5C1375.7,1352.1,1374.9,1352.3,1373.9,1352.3z M1375.2,1349.2c1.1,0,1.8-0.3,2.2-0.9
						s0.7-1.6,0.7-2.8v-0.4c0-1.4-0.2-2.4-0.6-3.2c-0.4-0.7-1.2-1.1-2.4-1.1c-0.8,0-1.5,0.4-2,1.1c-0.5,0.7-0.7,1.8-0.7,3.2
						s0.2,2.4,0.7,3.1C1373.6,1348.8,1374.3,1349.2,1375.2,1349.2z"/>
					<path class="st4" d="M1391.7,1337.6c2,0,3.5,0.6,4.7,1.7s1.7,2.7,1.7,4.8v1.9h-9.2c0,1.1,0.4,2,1,2.6c0.6,0.6,1.5,0.9,2.6,0.9
						c0.9,0,1.7-0.1,2.5-0.3c0.8-0.2,1.5-0.5,2.3-0.8v3c-0.7,0.3-1.4,0.6-2.2,0.8c-0.8,0.2-1.7,0.2-2.8,0.2c-1.4,0-2.7-0.3-3.8-0.8
						c-1.1-0.5-1.9-1.3-2.6-2.4c-0.6-1.1-0.9-2.4-0.9-4.1c0-1.6,0.3-3,0.8-4.1c0.6-1.1,1.3-1.9,2.4-2.5
						C1389.2,1337.8,1390.3,1337.6,1391.7,1337.6z M1391.7,1340.3c-0.8,0-1.4,0.2-1.9,0.7s-0.8,1.2-0.9,2.3h5.4
						c0-0.8-0.2-1.6-0.7-2.1S1392.6,1340.3,1391.7,1340.3z"/>
					<path class="st4" d="M1404,1352l-5.4-14.2h4.1l2.7,8.1c0.2,0.5,0.3,1,0.4,1.5c0.1,0.5,0.1,1,0.2,1.4h0.1
						c0.1-0.9,0.2-1.9,0.6-2.9l2.7-8.1h4.1l-5.4,14.2H1404z"/>
					<path class="st4" d="M1421.3,1337.6c2,0,3.5,0.6,4.7,1.7c1.1,1.1,1.7,2.7,1.7,4.8v1.9h-9.2c0,1.1,0.4,2,1,2.6
						c0.6,0.6,1.5,0.9,2.6,0.9c0.9,0,1.7-0.1,2.5-0.3c0.8-0.2,1.5-0.5,2.3-0.8v3c-0.7,0.3-1.4,0.6-2.2,0.8c-0.8,0.2-1.7,0.2-2.8,0.2
						c-1.4,0-2.7-0.3-3.8-0.8c-1.1-0.5-2-1.3-2.6-2.4c-0.6-1.1-0.9-2.4-0.9-4.1c0-1.6,0.3-3,0.8-4.1c0.6-1.1,1.3-1.9,2.4-2.5
						C1418.8,1337.8,1420,1337.6,1421.3,1337.6z M1421.3,1340.3c-0.8,0-1.4,0.2-1.9,0.7c-0.5,0.5-0.8,1.2-0.9,2.3h5.4
						c0-0.8-0.2-1.6-0.7-2.1S1422.2,1340.3,1421.3,1340.3z"/>
					<path class="st4" d="M1438.7,1337.6c0.2,0,0.4,0,0.7,0c0.3,0,0.5,0,0.6,0.1l-0.3,3.6c-0.1,0-0.3-0.1-0.5-0.1
						c-0.2,0-0.4,0-0.6,0c-0.7,0-1.3,0.1-1.9,0.4c-0.6,0.2-1.1,0.6-1.5,1.1c-0.4,0.5-0.6,1.2-0.6,2.1v7.2h-3.9v-14.2h2.9l0.6,2.4
						h0.2c0.4-0.7,1-1.4,1.7-1.9C1437,1337.8,1437.8,1337.6,1438.7,1337.6z"/>
					<path class="st4" d="M1452.5,1347.8c0,1.4-0.5,2.5-1.5,3.3c-1,0.8-2.5,1.2-4.5,1.2c-1,0-1.8-0.1-2.5-0.2
						c-0.7-0.1-1.4-0.3-2.1-0.6v-3.2c0.8,0.3,1.6,0.6,2.5,0.9c0.9,0.2,1.7,0.3,2.3,0.3c0.7,0,1.3-0.1,1.6-0.3
						c0.3-0.2,0.5-0.5,0.5-0.9c0-0.2-0.1-0.5-0.2-0.7c-0.1-0.2-0.4-0.4-0.8-0.6c-0.4-0.2-1.1-0.6-2-0.9c-0.9-0.4-1.6-0.8-2.2-1.1
						c-0.6-0.4-1-0.8-1.3-1.4c-0.3-0.5-0.4-1.2-0.4-2c0-1.3,0.5-2.3,1.5-3c1-0.7,2.4-1,4.1-1c0.9,0,1.7,0.1,2.5,0.3
						c0.8,0.2,1.6,0.5,2.5,0.9l-1.2,2.8c-0.7-0.3-1.4-0.5-2-0.7s-1.3-0.3-1.9-0.3c-1.1,0-1.7,0.3-1.7,0.9c0,0.2,0.1,0.4,0.2,0.6
						c0.1,0.2,0.4,0.4,0.9,0.6s1.1,0.5,1.9,0.8c0.8,0.3,1.5,0.7,2.1,1c0.6,0.4,1,0.8,1.4,1.3
						C1452.4,1346.3,1452.5,1347,1452.5,1347.8z"/>
					<path class="st4" d="M1466.8,1352.3c-1.6,0-2.9-0.6-3.9-1.9c-1-1.2-1.5-3.1-1.5-5.5c0-2.4,0.5-4.3,1.5-5.5c1-1.2,2.3-1.9,4-1.9
						c1,0,1.9,0.2,2.5,0.6c0.7,0.4,1.2,0.9,1.6,1.5h0.1c-0.1-0.3-0.1-0.7-0.2-1.2c-0.1-0.5-0.1-1.1-0.1-1.6v-4.5h3.9v19.8h-3
						l-0.8-1.8h-0.2c-0.4,0.6-0.9,1.1-1.5,1.5C1468.7,1352.1,1467.8,1352.3,1466.8,1352.3z M1468.2,1349.2c1.1,0,1.8-0.3,2.2-0.9
						c0.4-0.6,0.7-1.6,0.7-2.8v-0.4c0-1.4-0.2-2.4-0.6-3.2c-0.4-0.7-1.2-1.1-2.4-1.1c-0.8,0-1.5,0.4-2,1.1c-0.5,0.7-0.7,1.8-0.7,3.2
						s0.2,2.4,0.7,3.1S1467.3,1349.2,1468.2,1349.2z"/>
					<path class="st4" d="M1482.6,1352h-3.9v-19.8h3.9V1352z"/>
				</g>
				<g class="st3">
					<path class="st4" d="M1175,1386.3c-1.6,0-2.9-0.6-3.9-1.9c-1-1.2-1.5-3.1-1.5-5.5c0-2.4,0.5-4.3,1.5-5.5c1-1.2,2.3-1.9,4-1.9
						c1,0,1.9,0.2,2.5,0.6c0.7,0.4,1.2,0.9,1.6,1.5h0.1c-0.1-0.3-0.1-0.7-0.2-1.2c-0.1-0.5-0.1-1.1-0.1-1.6v-4.5h3.9v19.8h-3
						l-0.8-1.8h-0.2c-0.4,0.6-0.9,1.1-1.5,1.5C1176.9,1386.1,1176,1386.3,1175,1386.3z M1176.4,1383.2c1.1,0,1.8-0.3,2.2-0.9
						s0.7-1.6,0.7-2.8v-0.4c0-1.4-0.2-2.4-0.6-3.2c-0.4-0.7-1.2-1.1-2.4-1.1c-0.8,0-1.5,0.4-2,1.1c-0.5,0.7-0.7,1.8-0.7,3.2
						s0.2,2.4,0.7,3.1C1174.8,1382.8,1175.5,1383.2,1176.4,1383.2z"/>
					<path class="st4" d="M1192.8,1371.5c1.9,0,3.4,0.4,4.4,1.2c1,0.8,1.5,2.1,1.5,3.8v9.5h-2.7l-0.8-1.9h-0.1
						c-0.6,0.8-1.2,1.3-1.9,1.7c-0.7,0.3-1.6,0.5-2.8,0.5c-1.3,0-2.3-0.4-3.1-1.1c-0.8-0.7-1.2-1.9-1.2-3.4c0-1.5,0.5-2.6,1.6-3.3
						c1.1-0.7,2.6-1.1,4.8-1.2l2.5-0.1v-0.6c0-0.7-0.2-1.3-0.6-1.6c-0.4-0.3-0.9-0.5-1.6-0.5s-1.4,0.1-2,0.3c-0.7,0.2-1.3,0.4-2,0.7
						l-1.3-2.6c0.7-0.4,1.6-0.7,2.5-0.9C1190.8,1371.7,1191.8,1371.5,1192.8,1371.5z M1194.8,1379.4l-1.5,0.1
						c-1.2,0-2.1,0.3-2.6,0.7s-0.7,1-0.7,1.6c0,0.6,0.2,1,0.5,1.3c0.3,0.3,0.8,0.4,1.4,0.4c0.8,0,1.5-0.2,2.1-0.7
						c0.6-0.5,0.9-1.2,0.9-2.1V1379.4z"/>
					<path class="st4" d="M1207.3,1371.6c1.8,0,3.1,0.7,4.1,2.1h0.1l0.3-1.8h3.3v14.2c0,2-0.6,3.6-1.8,4.6c-1.2,1.1-3,1.6-5.3,1.6
						c-1,0-1.9-0.1-2.8-0.2s-1.7-0.3-2.5-0.6v-3.1c1.7,0.7,3.6,1.1,5.5,1.1c2,0,3-1.1,3-3.2v-0.3c0-0.3,0-0.6,0-0.9
						c0-0.3,0-0.6,0.1-0.8h-0.1c-0.5,0.7-1.1,1.3-1.7,1.6c-0.7,0.3-1.4,0.5-2.3,0.5c-1.7,0-3-0.6-3.9-1.9s-1.4-3.1-1.4-5.4
						c0-2.3,0.5-4.1,1.5-5.4S1205.6,1371.6,1207.3,1371.6z M1208.5,1374.7c-1.8,0-2.7,1.4-2.7,4.3c0,2.8,0.9,4.2,2.8,4.2
						c1,0,1.7-0.3,2.2-0.8c0.5-0.6,0.7-1.5,0.7-3v-0.5c0-1.5-0.2-2.6-0.7-3.3C1210.3,1375,1209.5,1374.7,1208.5,1374.7z"/>
					<path class="st4" d="M1227.2,1371.6c1.5,0,2.7,0.4,3.7,1.2c0.9,0.8,1.4,2.1,1.4,4v9.3h-3.9v-8.3c0-1-0.2-1.8-0.5-2.3
						c-0.4-0.5-0.9-0.8-1.7-0.8c-1.2,0-2,0.4-2.4,1.2c-0.4,0.8-0.6,2-0.6,3.5v6.7h-3.9v-14.2h3l0.5,1.8h0.2c0.5-0.7,1.1-1.3,1.9-1.6
						C1225.5,1371.7,1226.3,1371.6,1227.2,1371.6z"/>
					<path class="st4" d="M1243.2,1366.1v0.3c-0.2,0.2-0.6,0.5-1,0.9c-0.4,0.3-0.8,0.7-1.3,1.1c-0.5,0.4-0.9,0.7-1.4,1.1
						c-0.4,0.3-0.8,0.6-1.2,0.8h-2.6v-0.3c0.3-0.3,0.6-0.7,1-1.2s0.7-0.9,1.1-1.4c0.4-0.5,0.7-0.9,0.9-1.3H1243.2z M1240.1,1386
						h-3.9v-14.2h3.9V1386z"/>
					<path class="st4" d="M1267.6,1371.6c1.6,0,2.8,0.4,3.7,1.2c0.8,0.8,1.2,2.1,1.2,4v9.3h-3.9v-8.3c0-2-0.7-3.1-2.1-3.1
						c-1,0-1.8,0.4-2.2,1.1c-0.4,0.7-0.6,1.8-0.6,3.1v7.1h-3.9v-8.3c0-2-0.7-3.1-2.1-3.1c-1.1,0-1.8,0.4-2.2,1.2
						c-0.4,0.8-0.6,2-0.6,3.5v6.7h-3.9v-14.2h3l0.5,1.8h0.2c0.4-0.7,1-1.3,1.8-1.6s1.5-0.5,2.4-0.5c1,0,1.9,0.2,2.6,0.5
						c0.7,0.3,1.3,0.9,1.7,1.6h0.3c0.4-0.7,1-1.3,1.8-1.6C1266,1371.7,1266.8,1371.6,1267.6,1371.6z"/>
					<path class="st4" d="M1282.3,1371.6c2,0,3.5,0.6,4.7,1.7c1.1,1.1,1.7,2.7,1.7,4.8v1.9h-9.2c0,1.1,0.4,2,1,2.6
						c0.6,0.6,1.5,0.9,2.6,0.9c0.9,0,1.7-0.1,2.5-0.3c0.8-0.2,1.5-0.5,2.3-0.8v3c-0.7,0.3-1.4,0.6-2.2,0.8c-0.8,0.2-1.7,0.2-2.8,0.2
						c-1.4,0-2.7-0.3-3.8-0.8c-1.1-0.5-2-1.3-2.6-2.4c-0.6-1.1-0.9-2.4-0.9-4.1c0-1.6,0.3-3,0.8-4.1c0.6-1.1,1.3-1.9,2.4-2.5
						C1279.8,1371.8,1280.9,1371.6,1282.3,1371.6z M1277.7,1368.2c0-0.6,0.2-1,0.5-1.3c0.3-0.3,0.8-0.4,1.2-0.4
						c0.5,0,0.9,0.1,1.3,0.4c0.4,0.3,0.5,0.7,0.5,1.3c0,0.6-0.2,1-0.5,1.3c-0.4,0.3-0.8,0.4-1.3,0.4c-0.5,0-0.9-0.1-1.2-0.4
						C1277.9,1369.2,1277.7,1368.8,1277.7,1368.2z M1282.3,1374.3c-0.8,0-1.4,0.2-1.9,0.7c-0.5,0.5-0.8,1.2-0.9,2.3h5.4
						c0-0.8-0.2-1.6-0.7-2.1S1283.2,1374.3,1282.3,1374.3z M1282.9,1368.2c0-0.6,0.2-1,0.5-1.3c0.3-0.3,0.8-0.4,1.3-0.4
						c0.5,0,0.9,0.1,1.3,0.4c0.4,0.3,0.5,0.7,0.5,1.3c0,0.6-0.2,1-0.5,1.3c-0.4,0.3-0.8,0.4-1.3,0.4c-0.5,0-0.9-0.1-1.3-0.4
						C1283,1369.2,1282.9,1368.8,1282.9,1368.2z"/>
					<path class="st4" d="M1301.7,1381.8c0,1.4-0.5,2.5-1.5,3.3c-1,0.8-2.5,1.2-4.5,1.2c-1,0-1.8-0.1-2.5-0.2
						c-0.7-0.1-1.4-0.3-2.1-0.6v-3.2c0.8,0.3,1.6,0.6,2.5,0.9c0.9,0.2,1.7,0.3,2.3,0.3c0.7,0,1.3-0.1,1.6-0.3
						c0.3-0.2,0.5-0.5,0.5-0.9c0-0.2-0.1-0.5-0.2-0.7c-0.1-0.2-0.4-0.4-0.8-0.6c-0.4-0.2-1.1-0.6-2-0.9c-0.9-0.4-1.6-0.8-2.2-1.1
						c-0.6-0.4-1-0.8-1.3-1.4c-0.3-0.5-0.4-1.2-0.4-2c0-1.3,0.5-2.3,1.5-3c1-0.7,2.4-1,4.1-1c0.9,0,1.7,0.1,2.5,0.3
						c0.8,0.2,1.6,0.5,2.5,0.9l-1.2,2.8c-0.7-0.3-1.4-0.5-2-0.7s-1.3-0.3-1.9-0.3c-1.1,0-1.7,0.3-1.7,0.9c0,0.2,0.1,0.4,0.2,0.6
						c0.1,0.2,0.4,0.4,0.9,0.6c0.4,0.2,1.1,0.5,1.9,0.8c0.8,0.3,1.5,0.7,2.1,1c0.6,0.4,1,0.8,1.4,1.3
						C1301.5,1380.3,1301.7,1381,1301.7,1381.8z"/>
					<path class="st4" d="M1314.6,1381.8c0,1.4-0.5,2.5-1.5,3.3c-1,0.8-2.5,1.2-4.5,1.2c-1,0-1.8-0.1-2.5-0.2
						c-0.7-0.1-1.4-0.3-2.1-0.6v-3.2c0.8,0.3,1.6,0.6,2.5,0.9c0.9,0.2,1.7,0.3,2.3,0.3c0.7,0,1.3-0.1,1.6-0.3
						c0.3-0.2,0.5-0.5,0.5-0.9c0-0.2-0.1-0.5-0.2-0.7c-0.1-0.2-0.4-0.4-0.8-0.6c-0.4-0.2-1.1-0.6-2-0.9c-0.9-0.4-1.6-0.8-2.2-1.1
						c-0.6-0.4-1-0.8-1.3-1.4c-0.3-0.5-0.4-1.2-0.4-2c0-1.3,0.5-2.3,1.5-3c1-0.7,2.4-1,4.1-1c0.9,0,1.7,0.1,2.5,0.3
						c0.8,0.2,1.6,0.5,2.5,0.9l-1.2,2.8c-0.7-0.3-1.4-0.5-2-0.7s-1.3-0.3-1.9-0.3c-1.1,0-1.7,0.3-1.7,0.9c0,0.2,0.1,0.4,0.2,0.6
						c0.1,0.2,0.4,0.4,0.9,0.6c0.4,0.2,1.1,0.5,1.9,0.8c0.8,0.3,1.5,0.7,2.1,1c0.6,0.4,1,0.8,1.4,1.3
						C1314.5,1380.3,1314.6,1381,1314.6,1381.8z"/>
					<path class="st4" d="M1330.3,1371.6c2,0,3.5,0.6,4.7,1.7c1.1,1.1,1.7,2.7,1.7,4.8v1.9h-9.2c0,1.1,0.4,2,1,2.6
						c0.6,0.6,1.5,0.9,2.6,0.9c0.9,0,1.7-0.1,2.5-0.3c0.8-0.2,1.5-0.5,2.3-0.8v3c-0.7,0.3-1.4,0.6-2.2,0.8c-0.8,0.2-1.7,0.2-2.8,0.2
						c-1.4,0-2.7-0.3-3.8-0.8c-1.1-0.5-2-1.3-2.6-2.4c-0.6-1.1-0.9-2.4-0.9-4.1c0-1.6,0.3-3,0.8-4.1c0.6-1.1,1.3-1.9,2.4-2.5
						C1327.7,1371.8,1328.9,1371.6,1330.3,1371.6z M1330.3,1374.3c-0.8,0-1.4,0.2-1.9,0.7c-0.5,0.5-0.8,1.2-0.9,2.3h5.4
						c0-0.8-0.2-1.6-0.7-2.1S1331.2,1374.3,1330.3,1374.3z"/>
					<path class="st4" d="M1349.7,1381.8c0,1.4-0.5,2.5-1.5,3.3c-1,0.8-2.5,1.2-4.5,1.2c-1,0-1.8-0.1-2.5-0.2
						c-0.7-0.1-1.4-0.3-2.1-0.6v-3.2c0.8,0.3,1.6,0.6,2.5,0.9c0.9,0.2,1.7,0.3,2.3,0.3c0.7,0,1.3-0.1,1.6-0.3
						c0.3-0.2,0.5-0.5,0.5-0.9c0-0.2-0.1-0.5-0.2-0.7c-0.1-0.2-0.4-0.4-0.8-0.6c-0.4-0.2-1.1-0.6-2-0.9c-0.9-0.4-1.6-0.8-2.2-1.1
						c-0.6-0.4-1-0.8-1.3-1.4c-0.3-0.5-0.4-1.2-0.4-2c0-1.3,0.5-2.3,1.5-3c1-0.7,2.4-1,4.1-1c0.9,0,1.7,0.1,2.5,0.3
						c0.8,0.2,1.6,0.5,2.5,0.9l-1.2,2.8c-0.7-0.3-1.4-0.5-2-0.7s-1.3-0.3-1.9-0.3c-1.1,0-1.7,0.3-1.7,0.9c0,0.2,0.1,0.4,0.2,0.6
						c0.1,0.2,0.4,0.4,0.9,0.6c0.4,0.2,1.1,0.5,1.9,0.8c0.8,0.3,1.5,0.7,2.1,1c0.6,0.4,1,0.8,1.4,1.3
						C1349.5,1380.3,1349.7,1381,1349.7,1381.8z"/>
					<path class="st4" d="M1358.7,1383.2c0.4,0,0.8,0,1.2-0.1c0.4-0.1,0.8-0.2,1.2-0.3v2.9c-0.4,0.2-0.9,0.3-1.5,0.5s-1.3,0.2-2,0.2
						c-0.8,0-1.6-0.1-2.3-0.4c-0.7-0.3-1.2-0.8-1.6-1.4c-0.4-0.7-0.6-1.6-0.6-2.9v-6.8h-1.8v-1.6l2.1-1.3l1.1-3h2.5v3h4v2.9h-4v6.8
						c0,0.5,0.2,0.9,0.5,1.2C1357.8,1383.1,1358.2,1383.2,1358.7,1383.2z"/>
					<path class="st4" d="M1369.8,1371.6c2,0,3.5,0.6,4.7,1.7c1.1,1.1,1.7,2.7,1.7,4.8v1.9h-9.2c0,1.1,0.4,2,1,2.6
						c0.6,0.6,1.5,0.9,2.6,0.9c0.9,0,1.7-0.1,2.5-0.3c0.8-0.2,1.5-0.5,2.3-0.8v3c-0.7,0.3-1.4,0.6-2.2,0.8c-0.8,0.2-1.7,0.2-2.8,0.2
						c-1.4,0-2.7-0.3-3.8-0.8c-1.1-0.5-2-1.3-2.6-2.4c-0.6-1.1-0.9-2.4-0.9-4.1c0-1.6,0.3-3,0.8-4.1c0.6-1.1,1.3-1.9,2.4-2.5
						C1367.3,1371.8,1368.5,1371.6,1369.8,1371.6z M1369.8,1374.3c-0.8,0-1.4,0.2-1.9,0.7c-0.5,0.5-0.8,1.2-0.9,2.3h5.4
						c0-0.8-0.2-1.6-0.7-2.1C1371.4,1374.6,1370.8,1374.3,1369.8,1374.3z"/>
					<path class="st4" d="M1387.3,1371.6c0.2,0,0.4,0,0.7,0s0.5,0,0.6,0.1l-0.3,3.6c-0.1,0-0.3-0.1-0.5-0.1c-0.2,0-0.4,0-0.6,0
						c-0.7,0-1.3,0.1-1.9,0.4c-0.6,0.2-1.1,0.6-1.5,1.1c-0.4,0.5-0.6,1.2-0.6,2.1v7.2h-3.9v-14.2h2.9l0.6,2.4h0.2
						c0.4-0.7,1-1.4,1.7-1.9C1385.5,1371.8,1386.3,1371.6,1387.3,1371.6z"/>
					<path class="st4" d="M1390.6,1373.7c0-0.8,0.2-1.4,0.6-1.7c0.4-0.3,1-0.5,1.6-0.5c0.6,0,1.1,0.2,1.6,0.5
						c0.4,0.3,0.7,0.9,0.7,1.7c0,0.8-0.2,1.3-0.7,1.7c-0.4,0.3-1,0.5-1.6,0.5c-0.6,0-1.2-0.2-1.6-0.5
						C1390.8,1375,1390.6,1374.5,1390.6,1373.7z M1390.6,1384.2c0-0.8,0.2-1.4,0.6-1.7c0.4-0.3,1-0.5,1.6-0.5c0.6,0,1.1,0.2,1.6,0.5
						c0.4,0.3,0.7,0.9,0.7,1.7c0,0.8-0.2,1.3-0.7,1.7c-0.4,0.3-1,0.5-1.6,0.5c-0.6,0-1.2-0.2-1.6-0.5S1390.6,1385,1390.6,1384.2z"/>
					<path class="st4" d="M1413.4,1371.6c1.5,0,2.7,0.4,3.7,1.2c0.9,0.8,1.4,2.1,1.4,4v9.3h-3.9v-8.3c0-1-0.2-1.8-0.5-2.3
						c-0.4-0.5-0.9-0.8-1.7-0.8c-1.2,0-2,0.4-2.4,1.2c-0.4,0.8-0.6,2-0.6,3.5v6.7h-3.9v-14.2h3l0.5,1.8h0.2c0.4-0.7,1.1-1.3,1.9-1.6
						C1411.7,1371.7,1412.5,1371.6,1413.4,1371.6z"/>
					<path class="st4" d="M1435.3,1378.9c0,2.4-0.6,4.2-1.9,5.5c-1.2,1.3-2.9,1.9-5.1,1.9c-1.3,0-2.5-0.3-3.5-0.9
						c-1-0.6-1.8-1.4-2.4-2.5c-0.6-1.1-0.9-2.4-0.9-4c0-2.4,0.6-4.2,1.8-5.4c1.2-1.3,2.9-1.9,5.1-1.9c1.3,0,2.5,0.3,3.5,0.9
						c1,0.6,1.8,1.4,2.4,2.5C1435,1376,1435.3,1377.3,1435.3,1378.9z M1425.5,1378.9c0,1.4,0.2,2.5,0.7,3.2c0.5,0.7,1.2,1.1,2.2,1.1
						c1,0,1.8-0.4,2.2-1.1c0.5-0.7,0.7-1.8,0.7-3.2s-0.2-2.5-0.7-3.2s-1.2-1.1-2.2-1.1c-1,0-1.8,0.4-2.2,1.1
						S1425.5,1377.5,1425.5,1378.9z"/>
					<path class="st4" d="M1448.4,1381.8c0,1.4-0.5,2.5-1.5,3.3c-1,0.8-2.5,1.2-4.5,1.2c-1,0-1.8-0.1-2.5-0.2
						c-0.7-0.1-1.4-0.3-2.1-0.6v-3.2c0.8,0.3,1.6,0.6,2.5,0.9c0.9,0.2,1.7,0.3,2.3,0.3c0.7,0,1.3-0.1,1.6-0.3
						c0.3-0.2,0.5-0.5,0.5-0.9c0-0.2-0.1-0.5-0.2-0.7c-0.1-0.2-0.4-0.4-0.8-0.6c-0.4-0.2-1.1-0.6-2-0.9c-0.9-0.4-1.6-0.8-2.2-1.1
						c-0.6-0.4-1-0.8-1.3-1.4c-0.3-0.5-0.4-1.2-0.4-2c0-1.3,0.5-2.3,1.5-3c1-0.7,2.4-1,4.1-1c0.9,0,1.7,0.1,2.5,0.3
						c0.8,0.2,1.6,0.5,2.5,0.9l-1.2,2.8c-0.7-0.3-1.4-0.5-2-0.7c-0.6-0.2-1.3-0.3-1.9-0.3c-1.1,0-1.7,0.3-1.7,0.9
						c0,0.2,0.1,0.4,0.2,0.6c0.1,0.2,0.4,0.4,0.9,0.6s1.1,0.5,1.9,0.8c0.8,0.3,1.5,0.7,2.1,1c0.6,0.4,1,0.8,1.4,1.3
						C1448.2,1380.3,1448.4,1381,1448.4,1381.8z"/>
					<path class="st4" d="M1468.1,1381.8c0,1.4-0.5,2.5-1.5,3.3c-1,0.8-2.5,1.2-4.5,1.2c-1,0-1.8-0.1-2.5-0.2
						c-0.7-0.1-1.4-0.3-2.1-0.6v-3.2c0.8,0.3,1.6,0.6,2.5,0.9c0.9,0.2,1.7,0.3,2.3,0.3c0.7,0,1.3-0.1,1.6-0.3
						c0.3-0.2,0.5-0.5,0.5-0.9c0-0.2-0.1-0.5-0.2-0.7c-0.1-0.2-0.4-0.4-0.8-0.6c-0.4-0.2-1.1-0.6-2-0.9c-0.9-0.4-1.6-0.8-2.2-1.1
						c-0.6-0.4-1-0.8-1.3-1.4c-0.3-0.5-0.4-1.2-0.4-2c0-1.3,0.5-2.3,1.5-3s2.4-1,4.1-1c0.9,0,1.7,0.1,2.5,0.3
						c0.8,0.2,1.6,0.5,2.5,0.9l-1.2,2.8c-0.7-0.3-1.4-0.5-2-0.7s-1.3-0.3-1.9-0.3c-1.1,0-1.7,0.3-1.7,0.9c0,0.2,0.1,0.4,0.2,0.6
						c0.1,0.2,0.4,0.4,0.9,0.6c0.4,0.2,1.1,0.5,1.9,0.8c0.8,0.3,1.5,0.7,2.1,1c0.6,0.4,1,0.8,1.4,1.3
						C1467.9,1380.3,1468.1,1381,1468.1,1381.8z"/>
					<path class="st4" d="M1484.1,1371.8v14.2h-3l-0.5-1.8h-0.2c-0.5,0.7-1.1,1.3-1.9,1.6s-1.6,0.5-2.5,0.5c-1.5,0-2.7-0.4-3.7-1.2
						c-0.9-0.8-1.4-2.1-1.4-4v-9.3h3.9v8.3c0,1,0.2,1.8,0.5,2.3c0.4,0.5,0.9,0.8,1.7,0.8c1.2,0,2-0.4,2.4-1.2c0.4-0.8,0.6-2,0.6-3.5
						v-6.7H1484.1z"/>
					<path class="st4" d="M1496.2,1371.6c1.5,0,2.7,0.4,3.7,1.2s1.4,2.1,1.4,4v9.3h-3.9v-8.3c0-1-0.2-1.8-0.5-2.3
						c-0.4-0.5-0.9-0.8-1.7-0.8c-1.2,0-2,0.4-2.4,1.2c-0.4,0.8-0.6,2-0.6,3.5v6.7h-3.9v-14.2h3l0.5,1.8h0.2c0.5-0.7,1.1-1.3,1.9-1.6
						C1494.5,1371.7,1495.4,1371.6,1496.2,1371.6z"/>
				</g>
				<g class="st3">
					<path class="st4" d="M1180.4,1415.8c0,1.4-0.5,2.5-1.5,3.3c-1,0.8-2.5,1.2-4.5,1.2c-1,0-1.8-0.1-2.5-0.2
						c-0.7-0.1-1.4-0.3-2.1-0.6v-3.2c0.8,0.3,1.6,0.6,2.5,0.9c0.9,0.2,1.7,0.3,2.3,0.3c0.7,0,1.3-0.1,1.6-0.3
						c0.3-0.2,0.5-0.5,0.5-0.9c0-0.2-0.1-0.5-0.2-0.7c-0.1-0.2-0.4-0.4-0.8-0.6c-0.4-0.2-1.1-0.6-2-0.9c-0.9-0.4-1.6-0.8-2.2-1.1
						c-0.6-0.4-1-0.8-1.3-1.4c-0.3-0.5-0.4-1.2-0.4-2c0-1.3,0.5-2.3,1.5-3c1-0.7,2.4-1,4.1-1c0.9,0,1.7,0.1,2.5,0.3
						c0.8,0.2,1.6,0.5,2.5,0.9l-1.2,2.8c-0.7-0.3-1.4-0.5-2-0.7s-1.3-0.3-1.9-0.3c-1.1,0-1.7,0.3-1.7,0.9c0,0.2,0.1,0.4,0.2,0.6
						c0.1,0.2,0.4,0.4,0.9,0.6c0.4,0.2,1.1,0.5,1.9,0.8c0.8,0.3,1.5,0.7,2.1,1c0.6,0.4,1,0.8,1.4,1.3
						C1180.3,1414.3,1180.4,1415,1180.4,1415.8z"/>
					<path class="st4" d="M1189.3,1405.6c2,0,3.5,0.6,4.7,1.7c1.1,1.1,1.7,2.7,1.7,4.8v1.9h-9.2c0,1.1,0.4,2,1,2.6
						c0.6,0.6,1.5,0.9,2.6,0.9c0.9,0,1.7-0.1,2.5-0.3c0.8-0.2,1.5-0.5,2.3-0.8v3c-0.7,0.3-1.4,0.6-2.2,0.8c-0.8,0.2-1.7,0.2-2.8,0.2
						c-1.4,0-2.7-0.3-3.8-0.8c-1.1-0.5-2-1.3-2.6-2.4c-0.6-1.1-0.9-2.4-0.9-4.1c0-1.6,0.3-3,0.8-4.1c0.6-1.1,1.3-1.9,2.4-2.5
						C1186.8,1405.8,1187.9,1405.6,1189.3,1405.6z M1184.7,1402.2c0-0.6,0.2-1,0.5-1.3c0.3-0.3,0.8-0.4,1.2-0.4
						c0.5,0,0.9,0.1,1.3,0.4c0.4,0.3,0.5,0.7,0.5,1.3c0,0.6-0.2,1-0.5,1.3c-0.4,0.3-0.8,0.4-1.3,0.4c-0.5,0-0.9-0.1-1.2-0.4
						C1184.9,1403.2,1184.7,1402.8,1184.7,1402.2z M1189.3,1408.3c-0.8,0-1.4,0.2-1.9,0.7c-0.5,0.5-0.8,1.2-0.9,2.3h5.4
						c0-0.8-0.2-1.6-0.7-2.1S1190.2,1408.3,1189.3,1408.3z M1189.9,1402.2c0-0.6,0.2-1,0.5-1.3c0.3-0.3,0.8-0.4,1.3-0.4
						c0.5,0,0.9,0.1,1.3,0.4c0.4,0.3,0.5,0.7,0.5,1.3c0,0.6-0.2,1-0.5,1.3c-0.4,0.3-0.8,0.4-1.3,0.4c-0.5,0-0.9-0.1-1.3-0.4
						C1190,1403.2,1189.9,1402.8,1189.9,1402.2z"/>
					<path class="st4" d="M1203.4,1405.6c1.8,0,3.1,0.7,4.1,2.1h0.1l0.3-1.8h3.3v14.2c0,2-0.6,3.6-1.8,4.6c-1.2,1.1-3,1.6-5.3,1.6
						c-1,0-1.9-0.1-2.8-0.2s-1.7-0.3-2.5-0.6v-3.1c1.7,0.7,3.6,1.1,5.5,1.1c2,0,3-1.1,3-3.2v-0.3c0-0.3,0-0.6,0-0.9
						c0-0.3,0-0.6,0.1-0.8h-0.1c-0.5,0.7-1.1,1.3-1.7,1.6c-0.7,0.3-1.4,0.5-2.3,0.5c-1.7,0-3-0.6-3.9-1.9s-1.4-3.1-1.4-5.4
						c0-2.3,0.5-4.1,1.5-5.4S1201.7,1405.6,1203.4,1405.6z M1204.6,1408.7c-1.8,0-2.7,1.4-2.7,4.3c0,2.8,0.9,4.2,2.8,4.2
						c1,0,1.7-0.3,2.2-0.8c0.5-0.6,0.7-1.5,0.7-3v-0.5c0-1.5-0.2-2.6-0.7-3.3C1206.4,1409,1205.7,1408.7,1204.6,1408.7z"/>
					<path class="st4" d="M1223.3,1405.6c1.5,0,2.7,0.4,3.7,1.2c0.9,0.8,1.4,2.1,1.4,4v9.3h-3.9v-8.3c0-1-0.2-1.8-0.5-2.3
						c-0.4-0.5-0.9-0.8-1.7-0.8c-1.2,0-2,0.4-2.4,1.2c-0.4,0.8-0.6,2-0.6,3.5v6.7h-3.9v-14.2h3l0.5,1.8h0.2c0.5-0.7,1.1-1.3,1.9-1.6
						C1221.6,1405.7,1222.4,1405.6,1223.3,1405.6z"/>
					<path class="st4" d="M1247,1405.6c0.2,0,0.4,0,0.7,0c0.3,0,0.5,0,0.6,0.1l-0.3,3.6c-0.1,0-0.3-0.1-0.5-0.1c-0.2,0-0.4,0-0.6,0
						c-0.7,0-1.3,0.1-1.9,0.4c-0.6,0.2-1.1,0.6-1.5,1.1c-0.4,0.5-0.6,1.2-0.6,2.1v7.2h-3.9v-14.2h2.9l0.6,2.4h0.2
						c0.4-0.7,1-1.4,1.7-1.9C1245.2,1405.8,1246.1,1405.6,1247,1405.6z"/>
					<path class="st4" d="M1256.2,1405.6c2,0,3.5,0.6,4.7,1.7c1.1,1.1,1.7,2.7,1.7,4.8v1.9h-9.2c0,1.1,0.4,2,1,2.6
						c0.6,0.6,1.5,0.9,2.6,0.9c0.9,0,1.7-0.1,2.5-0.3c0.8-0.2,1.5-0.5,2.3-0.8v3c-0.7,0.3-1.4,0.6-2.2,0.8c-0.8,0.2-1.7,0.2-2.8,0.2
						c-1.4,0-2.7-0.3-3.8-0.8c-1.1-0.5-2-1.3-2.6-2.4c-0.6-1.1-0.9-2.4-0.9-4.1c0-1.6,0.3-3,0.8-4.1c0.6-1.1,1.3-1.9,2.4-2.5
						C1253.7,1405.8,1254.9,1405.6,1256.2,1405.6z M1256.3,1408.3c-0.8,0-1.4,0.2-1.9,0.7c-0.5,0.5-0.8,1.2-0.9,2.3h5.4
						c0-0.8-0.2-1.6-0.7-2.1S1257.2,1408.3,1256.3,1408.3z"/>
					<path class="st4" d="M1275.7,1415.8c0,1.4-0.5,2.5-1.5,3.3c-1,0.8-2.5,1.2-4.5,1.2c-1,0-1.8-0.1-2.5-0.2
						c-0.7-0.1-1.4-0.3-2.1-0.6v-3.2c0.8,0.3,1.6,0.6,2.5,0.9c0.9,0.2,1.7,0.3,2.3,0.3c0.7,0,1.3-0.1,1.6-0.3
						c0.3-0.2,0.5-0.5,0.5-0.9c0-0.2-0.1-0.5-0.2-0.7c-0.1-0.2-0.4-0.4-0.8-0.6c-0.4-0.2-1.1-0.6-2-0.9c-0.9-0.4-1.6-0.8-2.2-1.1
						c-0.6-0.4-1-0.8-1.3-1.4c-0.3-0.5-0.4-1.2-0.4-2c0-1.3,0.5-2.3,1.5-3c1-0.7,2.4-1,4.1-1c0.9,0,1.7,0.1,2.5,0.3
						c0.8,0.2,1.6,0.5,2.5,0.9l-1.2,2.8c-0.7-0.3-1.4-0.5-2-0.7s-1.3-0.3-1.9-0.3c-1.1,0-1.7,0.3-1.7,0.9c0,0.2,0.1,0.4,0.2,0.6
						c0.1,0.2,0.4,0.4,0.9,0.6c0.4,0.2,1.1,0.5,1.9,0.8c0.8,0.3,1.5,0.7,2.1,1c0.6,0.4,1,0.8,1.4,1.3
						C1275.5,1414.3,1275.7,1415,1275.7,1415.8z"/>
					<path class="st4" d="M1286.6,1405.6c1.6,0,2.9,0.6,3.9,1.9c1,1.2,1.5,3.1,1.5,5.5c0,2.4-0.5,4.3-1.5,5.5
						c-1,1.2-2.3,1.9-3.9,1.9c-1,0-1.8-0.2-2.4-0.6c-0.6-0.4-1.1-0.8-1.5-1.3h-0.2c0.1,0.7,0.2,1.4,0.2,2.1v5.7h-3.9v-20.4h3.1
						l0.5,1.8h0.2c0.4-0.6,0.9-1.1,1.5-1.5C1284.7,1405.8,1285.5,1405.6,1286.6,1405.6z M1285.3,1408.7c-1,0-1.7,0.3-2.1,0.9
						c-0.4,0.6-0.6,1.6-0.6,2.8v0.4c0,1.4,0.2,2.4,0.6,3.2c0.4,0.7,1.1,1.1,2.2,1.1c0.9,0,1.5-0.4,2-1.1c0.4-0.7,0.6-1.8,0.6-3.2
						C1288,1410.1,1287.1,1408.7,1285.3,1408.7z"/>
					<path class="st4" d="M1308,1412.9c0,2.4-0.6,4.2-1.9,5.5c-1.2,1.3-2.9,1.9-5.1,1.9c-1.3,0-2.5-0.3-3.5-0.9
						c-1-0.6-1.8-1.4-2.4-2.5c-0.6-1.1-0.9-2.4-0.9-4c0-2.4,0.6-4.2,1.8-5.4c1.2-1.3,2.9-1.9,5.1-1.9c1.3,0,2.5,0.3,3.5,0.9
						c1,0.6,1.8,1.4,2.4,2.5C1307.7,1410,1308,1411.3,1308,1412.9z M1298.2,1412.9c0,1.4,0.2,2.5,0.7,3.2c0.5,0.7,1.2,1.1,2.2,1.1
						c1,0,1.8-0.4,2.2-1.1c0.5-0.7,0.7-1.8,0.7-3.2s-0.2-2.5-0.7-3.2c-0.5-0.7-1.2-1.1-2.2-1.1c-1,0-1.8,0.4-2.2,1.1
						C1298.5,1410.4,1298.2,1411.5,1298.2,1412.9z"/>
					<path class="st4" d="M1319.3,1405.6c1.5,0,2.7,0.4,3.7,1.2c0.9,0.8,1.4,2.1,1.4,4v9.3h-3.9v-8.3c0-1-0.2-1.8-0.5-2.3
						c-0.4-0.5-0.9-0.8-1.7-0.8c-1.2,0-2,0.4-2.4,1.2c-0.4,0.8-0.6,2-0.6,3.5v6.7h-3.9v-14.2h3l0.5,1.8h0.2c0.5-0.7,1.1-1.3,1.9-1.6
						C1317.6,1405.7,1318.4,1405.6,1319.3,1405.6z"/>
					<path class="st4" d="M1338.2,1415.8c0,1.4-0.5,2.5-1.5,3.3c-1,0.8-2.5,1.2-4.5,1.2c-1,0-1.8-0.1-2.5-0.2
						c-0.7-0.1-1.4-0.3-2.1-0.6v-3.2c0.8,0.3,1.6,0.6,2.5,0.9c0.9,0.2,1.7,0.3,2.3,0.3c0.7,0,1.3-0.1,1.6-0.3
						c0.3-0.2,0.5-0.5,0.5-0.9c0-0.2-0.1-0.5-0.2-0.7c-0.1-0.2-0.4-0.4-0.8-0.6c-0.4-0.2-1.1-0.6-2-0.9c-0.9-0.4-1.6-0.8-2.2-1.1
						c-0.6-0.4-1-0.8-1.3-1.4c-0.3-0.5-0.4-1.2-0.4-2c0-1.3,0.5-2.3,1.5-3c1-0.7,2.4-1,4.1-1c0.9,0,1.7,0.1,2.5,0.3
						c0.8,0.2,1.6,0.5,2.5,0.9l-1.2,2.8c-0.7-0.3-1.4-0.5-2-0.7s-1.3-0.3-1.9-0.3c-1.1,0-1.7,0.3-1.7,0.9c0,0.2,0.1,0.4,0.2,0.6
						c0.1,0.2,0.4,0.4,0.9,0.6c0.4,0.2,1.1,0.5,1.9,0.8c0.8,0.3,1.5,0.7,2.1,1c0.6,0.4,1,0.8,1.4,1.3
						C1338,1414.3,1338.2,1415,1338.2,1415.8z"/>
					<path class="st4" d="M1347,1405.5c1.9,0,3.4,0.4,4.4,1.2c1,0.8,1.5,2.1,1.5,3.8v9.5h-2.7l-0.8-1.9h-0.1
						c-0.6,0.8-1.2,1.3-1.9,1.7c-0.7,0.3-1.6,0.5-2.8,0.5c-1.3,0-2.3-0.4-3.1-1.1c-0.8-0.7-1.2-1.9-1.2-3.4c0-1.5,0.5-2.6,1.6-3.3
						c1.1-0.7,2.6-1.1,4.8-1.2l2.5-0.1v-0.6c0-0.7-0.2-1.3-0.6-1.6c-0.4-0.3-0.9-0.5-1.6-0.5s-1.4,0.1-2,0.3c-0.7,0.2-1.3,0.4-2,0.7
						l-1.3-2.6c0.7-0.4,1.6-0.7,2.5-0.9C1345.1,1405.7,1346,1405.5,1347,1405.5z M1349.1,1413.4l-1.5,0.1c-1.2,0-2.1,0.3-2.6,0.7
						s-0.7,1-0.7,1.6c0,0.6,0.2,1,0.5,1.3c0.3,0.3,0.8,0.4,1.4,0.4c0.8,0,1.5-0.2,2.1-0.7c0.6-0.5,0.9-1.2,0.9-2.1V1413.4z"/>
					<path class="st4" d="M1360.8,1400.3v4.6c0,0.5,0,1.1-0.1,1.6c0,0.5-0.1,0.9-0.1,1.2h0.2c0.4-0.6,0.9-1.1,1.5-1.5
						c0.6-0.4,1.5-0.6,2.5-0.6c1.6,0,2.9,0.6,3.9,1.9c1,1.2,1.5,3.1,1.5,5.5c0,2.4-0.5,4.3-1.5,5.5c-1,1.2-2.3,1.9-4,1.9
						c-1,0-1.9-0.2-2.5-0.6c-0.6-0.4-1.1-0.8-1.5-1.3h-0.3l-0.6,1.6h-3v-19.8H1360.8z M1363.6,1408.7c-1,0-1.7,0.3-2.1,0.9
						c-0.4,0.6-0.6,1.6-0.6,2.8v0.4c0,1.4,0.2,2.4,0.6,3.2c0.4,0.7,1.1,1.1,2.2,1.1c0.8,0,1.4-0.4,1.9-1.1c0.5-0.7,0.7-1.8,0.7-3.2
						s-0.2-2.4-0.7-3.1C1365,1409,1364.4,1408.7,1363.6,1408.7z"/>
					<path class="st4" d="M1377.3,1420h-3.9v-19.8h3.9V1420z"/>
					<path class="st4" d="M1383.3,1400.3c0.6,0,1.1,0.1,1.5,0.4c0.4,0.3,0.6,0.8,0.6,1.5c0,0.7-0.2,1.2-0.6,1.5s-0.9,0.4-1.5,0.4
						c-0.6,0-1.1-0.1-1.5-0.4c-0.4-0.3-0.6-0.8-0.6-1.5c0-0.7,0.2-1.2,0.6-1.5C1382.2,1400.4,1382.7,1400.3,1383.3,1400.3z
						 M1385.2,1405.8v14.2h-3.9v-14.2H1385.2z"/>
					<path class="st4" d="M1400.5,1420.3c-1.6,0-2.9-0.6-3.9-1.9c-1-1.2-1.5-3.1-1.5-5.5c0-2.4,0.5-4.3,1.5-5.5c1-1.2,2.3-1.9,4-1.9
						c1,0,1.9,0.2,2.5,0.6c0.7,0.4,1.2,0.9,1.6,1.5h0.1c-0.1-0.3-0.1-0.7-0.2-1.2c-0.1-0.5-0.1-1.1-0.1-1.6v-4.5h3.9v19.8h-3
						l-0.8-1.8h-0.2c-0.4,0.6-0.9,1.1-1.5,1.5C1402.4,1420.1,1401.5,1420.3,1400.5,1420.3z M1401.9,1417.2c1.1,0,1.8-0.3,2.2-0.9
						c0.4-0.6,0.7-1.6,0.7-2.8v-0.4c0-1.4-0.2-2.4-0.6-3.2c-0.4-0.7-1.2-1.1-2.4-1.1c-0.8,0-1.5,0.4-2,1.1c-0.5,0.7-0.7,1.8-0.7,3.2
						s0.2,2.4,0.7,3.1S1401,1417.2,1401.9,1417.2z"/>
					<path class="st4" d="M1418.3,1405.6c2,0,3.5,0.6,4.7,1.7s1.7,2.7,1.7,4.8v1.9h-9.2c0,1.1,0.4,2,1,2.6c0.6,0.6,1.5,0.9,2.6,0.9
						c0.9,0,1.7-0.1,2.5-0.3c0.8-0.2,1.5-0.5,2.3-0.8v3c-0.7,0.3-1.4,0.6-2.2,0.8c-0.8,0.2-1.7,0.2-2.8,0.2c-1.4,0-2.7-0.3-3.8-0.8
						c-1.1-0.5-1.9-1.3-2.6-2.4c-0.6-1.1-0.9-2.4-0.9-4.1c0-1.6,0.3-3,0.8-4.1c0.6-1.1,1.3-1.9,2.4-2.5
						C1415.8,1405.8,1417,1405.6,1418.3,1405.6z M1418.3,1408.3c-0.8,0-1.4,0.2-1.9,0.7s-0.8,1.2-0.9,2.3h5.4c0-0.8-0.2-1.6-0.7-2.1
						S1419.2,1408.3,1418.3,1408.3z"/>
					<path class="st4" d="M1440.4,1420.3c-2.1,0-3.7-0.6-4.9-1.7c-1.2-1.2-1.7-3-1.7-5.5c0-1.7,0.3-3.1,0.9-4.2
						c0.6-1.1,1.4-1.9,2.5-2.4c1-0.5,2.3-0.8,3.6-0.8c1,0,1.8,0.1,2.5,0.3c0.7,0.2,1.3,0.4,1.9,0.7l-1.1,3c-0.6-0.2-1.2-0.4-1.7-0.6
						c-0.5-0.2-1.1-0.2-1.6-0.2c-2,0-3,1.4-3,4.3c0,1.4,0.3,2.5,0.8,3.1c0.5,0.7,1.3,1,2.2,1c0.8,0,1.5-0.1,2.2-0.3
						c0.6-0.2,1.2-0.5,1.8-0.9v3.3c-0.6,0.4-1.2,0.7-1.9,0.8C1442.2,1420.2,1441.3,1420.3,1440.4,1420.3z"/>
					<path class="st4" d="M1449.9,1400.3c0.6,0,1.1,0.1,1.5,0.4c0.4,0.3,0.6,0.8,0.6,1.5c0,0.7-0.2,1.2-0.6,1.5s-0.9,0.4-1.5,0.4
						c-0.6,0-1.1-0.1-1.5-0.4c-0.4-0.3-0.6-0.8-0.6-1.5c0-0.7,0.2-1.2,0.6-1.5C1448.8,1400.4,1449.3,1400.3,1449.9,1400.3z
						 M1451.8,1405.8v14.2h-3.9v-14.2H1451.8z"/>
					<path class="st4" d="M1468.4,1420.3c-2.1,0-3.7-0.6-4.9-1.7c-1.2-1.2-1.7-3-1.7-5.5c0-1.7,0.3-3.1,0.9-4.2
						c0.6-1.1,1.4-1.9,2.5-2.4c1-0.5,2.3-0.8,3.6-0.8c1,0,1.8,0.1,2.5,0.3s1.3,0.4,1.9,0.7l-1.1,3c-0.6-0.2-1.2-0.4-1.7-0.6
						c-0.5-0.2-1.1-0.2-1.6-0.2c-2,0-3,1.4-3,4.3c0,1.4,0.3,2.5,0.8,3.1c0.5,0.7,1.3,1,2.2,1c0.8,0,1.5-0.1,2.2-0.3
						c0.6-0.2,1.2-0.5,1.8-0.9v3.3c-0.6,0.4-1.2,0.7-1.9,0.8C1470.2,1420.2,1469.4,1420.3,1468.4,1420.3z"/>
					<path class="st4" d="M1479.9,1400.3v4c0,0.7,0,1.4-0.1,2s-0.1,1.1-0.1,1.3h0.2c0.5-0.7,1-1.3,1.7-1.6s1.5-0.5,2.4-0.5
						c1.5,0,2.8,0.4,3.7,1.2c0.9,0.8,1.4,2.1,1.4,4v9.3h-3.9v-8.3c0-2-0.8-3.1-2.3-3.1c-1.2,0-2,0.4-2.4,1.2c-0.4,0.8-0.7,2-0.7,3.5
						v6.7h-3.9v-19.8H1479.9z"/>
					<path class="st4" d="M1498.9,1405.6c2,0,3.5,0.6,4.7,1.7c1.1,1.1,1.7,2.7,1.7,4.8v1.9h-9.2c0,1.1,0.4,2,1,2.6
						c0.6,0.6,1.5,0.9,2.6,0.9c0.9,0,1.7-0.1,2.5-0.3c0.8-0.2,1.5-0.5,2.3-0.8v3c-0.7,0.3-1.4,0.6-2.2,0.8c-0.8,0.2-1.7,0.2-2.8,0.2
						c-1.4,0-2.7-0.3-3.8-0.8c-1.1-0.5-1.9-1.3-2.6-2.4c-0.6-1.1-0.9-2.4-0.9-4.1c0-1.6,0.3-3,0.8-4.1s1.3-1.9,2.4-2.5
						C1496.4,1405.8,1497.6,1405.6,1498.9,1405.6z M1499,1408.3c-0.8,0-1.4,0.2-1.9,0.7c-0.5,0.5-0.8,1.2-0.9,2.3h5.4
						c0-0.8-0.2-1.6-0.7-2.1S1499.9,1408.3,1499,1408.3z"/>
					<path class="st4" d="M1521,1405.5c1.9,0,3.4,0.4,4.4,1.2c1,0.8,1.5,2.1,1.5,3.8v9.5h-2.7l-0.8-1.9h-0.1
						c-0.6,0.8-1.2,1.3-1.9,1.7c-0.7,0.3-1.6,0.5-2.8,0.5c-1.3,0-2.3-0.4-3.1-1.1c-0.8-0.7-1.2-1.9-1.2-3.4c0-1.5,0.5-2.6,1.6-3.3
						c1.1-0.7,2.6-1.1,4.8-1.2l2.5-0.1v-0.6c0-0.7-0.2-1.3-0.6-1.6c-0.4-0.3-0.9-0.5-1.6-0.5c-0.7,0-1.4,0.1-2,0.3
						c-0.7,0.2-1.3,0.4-2,0.7l-1.3-2.6c0.7-0.4,1.6-0.7,2.5-0.9C1519.1,1405.7,1520,1405.5,1521,1405.5z M1523.1,1413.4l-1.5,0.1
						c-1.2,0-2.1,0.3-2.6,0.7s-0.7,1-0.7,1.6c0,0.6,0.2,1,0.5,1.3c0.3,0.3,0.8,0.4,1.4,0.4c0.8,0,1.5-0.2,2.1-0.7
						c0.6-0.5,0.9-1.2,0.9-2.1V1413.4z"/>
					<path class="st4" d="M1534.8,1420h-3.9v-19.8h3.9V1420z"/>
				</g>
				<g class="st3">
					<path class="st4" d="M1180.4,1449.8c0,1.4-0.5,2.5-1.5,3.3c-1,0.8-2.5,1.2-4.5,1.2c-1,0-1.8-0.1-2.5-0.2
						c-0.7-0.1-1.4-0.3-2.1-0.6v-3.2c0.8,0.3,1.6,0.6,2.5,0.9c0.9,0.2,1.7,0.3,2.3,0.3c0.7,0,1.3-0.1,1.6-0.3
						c0.3-0.2,0.5-0.5,0.5-0.9c0-0.2-0.1-0.5-0.2-0.7c-0.1-0.2-0.4-0.4-0.8-0.6c-0.4-0.2-1.1-0.6-2-0.9c-0.9-0.4-1.6-0.8-2.2-1.1
						c-0.6-0.4-1-0.8-1.3-1.4c-0.3-0.5-0.4-1.2-0.4-2c0-1.3,0.5-2.3,1.5-3c1-0.7,2.4-1,4.1-1c0.9,0,1.7,0.1,2.5,0.3
						c0.8,0.2,1.6,0.5,2.5,0.9l-1.2,2.8c-0.7-0.3-1.4-0.5-2-0.7s-1.3-0.3-1.9-0.3c-1.1,0-1.7,0.3-1.7,0.9c0,0.2,0.1,0.4,0.2,0.6
						c0.1,0.2,0.4,0.4,0.9,0.6c0.4,0.2,1.1,0.5,1.9,0.8c0.8,0.3,1.5,0.7,2.1,1c0.6,0.4,1,0.8,1.4,1.3
						C1180.3,1448.3,1180.4,1449,1180.4,1449.8z"/>
					<path class="st4" d="M1196.3,1446.9c0,2.4-0.6,4.2-1.9,5.5c-1.2,1.3-2.9,1.9-5.1,1.9c-1.3,0-2.5-0.3-3.5-0.9
						c-1-0.6-1.8-1.4-2.4-2.5c-0.6-1.1-0.9-2.4-0.9-4c0-2.4,0.6-4.2,1.8-5.4c1.2-1.3,2.9-1.9,5.1-1.9c1.3,0,2.5,0.3,3.5,0.9
						c1,0.6,1.8,1.4,2.4,2.5C1196,1444,1196.3,1445.3,1196.3,1446.9z M1186.5,1446.9c0,1.4,0.2,2.5,0.7,3.2c0.5,0.7,1.2,1.1,2.2,1.1
						c1,0,1.8-0.4,2.2-1.1c0.5-0.7,0.7-1.8,0.7-3.2s-0.2-2.5-0.7-3.2c-0.5-0.7-1.2-1.1-2.2-1.1c-1,0-1.8,0.4-2.2,1.1
						C1186.8,1444.4,1186.5,1445.5,1186.5,1446.9z"/>
					<path class="st4" d="M1209.1,1454h-11.2v-2.3l6.6-8.9h-6.2v-3h10.6v2.5l-6.4,8.7h6.6V1454z"/>
					<path class="st4" d="M1217.8,1439.6c2,0,3.5,0.6,4.7,1.7c1.1,1.1,1.7,2.7,1.7,4.8v1.9h-9.2c0,1.1,0.4,2,1,2.6
						c0.6,0.6,1.5,0.9,2.6,0.9c0.9,0,1.7-0.1,2.5-0.3c0.8-0.2,1.5-0.5,2.3-0.8v3c-0.7,0.3-1.4,0.6-2.2,0.8c-0.8,0.2-1.7,0.2-2.8,0.2
						c-1.4,0-2.7-0.3-3.8-0.8c-1.1-0.5-2-1.3-2.6-2.4c-0.6-1.1-0.9-2.4-0.9-4.1c0-1.6,0.3-3,0.8-4.1c0.6-1.1,1.3-1.9,2.4-2.5
						C1215.3,1439.8,1216.5,1439.6,1217.8,1439.6z M1217.8,1442.3c-0.8,0-1.4,0.2-1.9,0.7c-0.5,0.5-0.8,1.2-0.9,2.3h5.4
						c0-0.8-0.2-1.6-0.7-2.1S1218.7,1442.3,1217.8,1442.3z"/>
					<path class="st4" d="M1231.8,1454.3c-1.6,0-2.9-0.6-3.9-1.9c-1-1.2-1.5-3.1-1.5-5.5c0-2.4,0.5-4.3,1.5-5.5c1-1.2,2.3-1.9,4-1.9
						c1,0,1.9,0.2,2.5,0.6c0.7,0.4,1.2,0.9,1.6,1.5h0.1c-0.1-0.3-0.1-0.7-0.2-1.2c-0.1-0.5-0.1-1.1-0.1-1.6v-4.6h3.9v19.8h-3
						l-0.8-1.8h-0.2c-0.4,0.6-0.9,1.1-1.5,1.5C1233.7,1454.1,1232.8,1454.3,1231.8,1454.3z M1233.2,1451.2c1.1,0,1.8-0.3,2.2-0.9
						s0.7-1.6,0.7-2.8v-0.4c0-1.4-0.2-2.4-0.6-3.2c-0.4-0.7-1.2-1.1-2.4-1.1c-0.8,0-1.5,0.4-2,1.1c-0.5,0.7-0.7,1.8-0.7,3.2
						s0.2,2.4,0.7,3.1C1231.6,1450.8,1232.3,1451.2,1233.2,1451.2z"/>
					<path class="st4" d="M1256.5,1451.2c0.4,0,0.8,0,1.2-0.1c0.4-0.1,0.8-0.2,1.2-0.3v2.9c-0.4,0.2-0.9,0.3-1.5,0.5s-1.3,0.2-2,0.2
						c-0.8,0-1.6-0.1-2.3-0.4c-0.7-0.3-1.2-0.8-1.6-1.4c-0.4-0.7-0.6-1.6-0.6-2.9v-6.8h-1.8v-1.6l2.1-1.3l1.1-3h2.5v3h4v2.9h-4v6.8
						c0,0.5,0.2,0.9,0.5,1.2C1255.6,1451.1,1256,1451.2,1256.5,1451.2z"/>
					<path class="st4" d="M1265.7,1454h-3.9v-19.8h3.9V1454z"/>
					<path class="st4" d="M1281,1454.3c-1.6,0-2.9-0.6-3.9-1.9c-1-1.2-1.5-3.1-1.5-5.5c0-2.4,0.5-4.3,1.5-5.5c1-1.2,2.3-1.9,4-1.9
						c1,0,1.9,0.2,2.5,0.6c0.7,0.4,1.2,0.9,1.6,1.5h0.1c-0.1-0.3-0.1-0.7-0.2-1.2c-0.1-0.5-0.1-1.1-0.1-1.6v-4.6h3.9v19.8h-3
						l-0.8-1.8h-0.2c-0.4,0.6-0.9,1.1-1.5,1.5C1282.9,1454.1,1282,1454.3,1281,1454.3z M1282.4,1451.2c1.1,0,1.8-0.3,2.2-0.9
						s0.7-1.6,0.7-2.8v-0.4c0-1.4-0.2-2.4-0.6-3.2c-0.4-0.7-1.2-1.1-2.4-1.1c-0.8,0-1.5,0.4-2,1.1c-0.5,0.7-0.7,1.8-0.7,3.2
						s0.2,2.4,0.7,3.1C1280.8,1450.8,1281.5,1451.2,1282.4,1451.2z"/>
					<path class="st4" d="M1298.8,1439.5c1.9,0,3.4,0.4,4.4,1.2c1,0.8,1.5,2.1,1.5,3.8v9.5h-2.7l-0.8-1.9h-0.1
						c-0.6,0.8-1.2,1.3-1.9,1.7c-0.7,0.3-1.6,0.5-2.8,0.5c-1.3,0-2.3-0.4-3.1-1.1c-0.8-0.7-1.2-1.9-1.2-3.4c0-1.5,0.5-2.6,1.6-3.3
						c1.1-0.7,2.6-1.1,4.8-1.2l2.5-0.1v-0.6c0-0.7-0.2-1.3-0.6-1.6c-0.4-0.3-0.9-0.5-1.6-0.5s-1.4,0.1-2,0.3c-0.7,0.2-1.3,0.4-2,0.7
						l-1.3-2.6c0.7-0.4,1.6-0.7,2.5-0.9C1296.8,1439.7,1297.8,1439.5,1298.8,1439.5z M1300.8,1447.4l-1.5,0.1
						c-1.2,0-2.1,0.3-2.6,0.7s-0.7,1-0.7,1.6c0,0.6,0.2,1,0.5,1.3c0.3,0.3,0.8,0.4,1.4,0.4c0.8,0,1.5-0.2,2.1-0.7
						c0.6-0.5,0.9-1.2,0.9-2.1V1447.4z"/>
					<path class="st4" d="M1313.3,1439.6c1.8,0,3.1,0.7,4.1,2.1h0.1l0.3-1.8h3.3v14.2c0,2-0.6,3.6-1.8,4.6c-1.2,1.1-3,1.6-5.3,1.6
						c-1,0-1.9-0.1-2.8-0.2s-1.7-0.3-2.5-0.6v-3.1c1.7,0.7,3.6,1.1,5.5,1.1c2,0,3-1.1,3-3.2v-0.3c0-0.3,0-0.6,0-0.9
						c0-0.3,0-0.6,0.1-0.8h-0.1c-0.5,0.7-1.1,1.3-1.7,1.6c-0.7,0.3-1.4,0.5-2.3,0.5c-1.7,0-3-0.6-3.9-1.9s-1.4-3.1-1.4-5.4
						c0-2.3,0.5-4.1,1.5-5.4S1311.6,1439.6,1313.3,1439.6z M1314.5,1442.7c-1.8,0-2.7,1.4-2.7,4.3c0,2.8,0.9,4.2,2.8,4.2
						c1,0,1.7-0.3,2.2-0.8c0.5-0.6,0.7-1.5,0.7-3v-0.5c0-1.5-0.2-2.6-0.7-3.3C1316.3,1443,1315.5,1442.7,1314.5,1442.7z"/>
					<path class="st4" d="M1333.2,1439.6c1.5,0,2.7,0.4,3.7,1.2c0.9,0.8,1.4,2.1,1.4,4v9.3h-3.9v-8.3c0-1-0.2-1.8-0.5-2.3
						c-0.4-0.5-0.9-0.8-1.7-0.8c-1.2,0-2,0.4-2.4,1.2c-0.4,0.8-0.6,2-0.6,3.5v6.7h-3.9v-14.2h3l0.5,1.8h0.2c0.5-0.7,1.1-1.3,1.9-1.6
						C1331.5,1439.7,1332.3,1439.6,1333.2,1439.6z"/>
					<path class="st4" d="M1349.2,1434.1v0.3c-0.2,0.2-0.6,0.5-1,0.9c-0.4,0.3-0.8,0.7-1.3,1.1c-0.5,0.4-0.9,0.7-1.4,1.1
						c-0.4,0.3-0.8,0.6-1.2,0.8h-2.6v-0.3c0.3-0.3,0.6-0.7,1-1.2s0.7-0.9,1.1-1.4c0.4-0.5,0.7-0.9,0.9-1.3H1349.2z M1346.1,1454
						h-3.9v-14.2h3.9V1454z"/>
					<path class="st4" d="M1349.6,1452.2c0-0.8,0.2-1.4,0.6-1.7c0.4-0.3,1-0.5,1.6-0.5c0.6,0,1.1,0.2,1.6,0.5
						c0.4,0.3,0.7,0.9,0.7,1.7c0,0.8-0.2,1.3-0.7,1.7s-1,0.5-1.6,0.5c-0.6,0-1.2-0.2-1.6-0.5S1349.6,1453,1349.6,1452.2z"/>
				</g>
			</g>
		</g>
	</g>
</g>
</svg>
