<?xml version="1.0" encoding="utf-8"?>
<!-- Generator: Adobe Illustrator 26.5.0, SVG Export Plug-In . SVG Version: 6.00 Build 0)  -->
<svg version="1.1" id="Ebene_1" xmlns="http://www.w3.org/2000/svg" xmlns:xlink="http://www.w3.org/1999/xlink" x="0px" y="0px"
	 viewBox="0 0 602 471" style="enable-background:new 0 0 602 471;" xml:space="preserve">
<style type="text/css">
	.st0{clip-path:url(#SVGID_00000088826874448551492970000017877536892666262949_);}
	.st1{clip-path:url(#SVGID_00000039096120653449073990000016172205307645803677_);}
	.st2{fill:#53C7A8;}
	.st3{enable-background:new    ;}
	.st4{fill:#FFFFFF;}
	.st5{fill:#F7CE46;}
</style>
<g>
	<defs>
		<rect id="SVGID_1_" y="0" width="602" height="471"/>
	</defs>
	<clipPath id="SVGID_00000105414806766760282010000014295803760379035042_">
		<use xlink:href="#SVGID_1_"  style="overflow:visible;"/>
	</clipPath>
	<g id="Zitat_IT" style="clip-path:url(#SVGID_00000105414806766760282010000014295803760379035042_);">
		<g id="Gruppe_2496" transform="translate(-1080.482 -1180.021)">
			<g id="Gruppe_2432" transform="translate(1080.482 1180.021)">
				<g>
					<defs>
						<rect id="SVGID_00000096046966872575316030000003629259899611597247_" y="0" width="601.6" height="470.9"/>
					</defs>
					<clipPath id="SVGID_00000018958287784932191570000011622519726140970635_">
						<use xlink:href="#SVGID_00000096046966872575316030000003629259899611597247_"  style="overflow:visible;"/>
					</clipPath>
					
						<g id="Gruppe_2431" transform="translate(0 0)" style="clip-path:url(#SVGID_00000018958287784932191570000011622519726140970635_);">
						<path id="Pfad_2671" class="st2" d="M577.5,233.2C658.1,100.8,520.8-1.6,404.8,0c-85.1,1.2-171.6-3.6-256.2,8.3
							C47.4,22.6-2.9,77,0.1,180.5C2.5,261.8,41.7,360.8,116.9,403c81.6,45.8,173.8,40.3,257,5.2c24.9,24.4,71.9,58.5,142.7,62.6
							c0,0-35.6-62.1-36.8-126.9C519.1,311.9,552.8,273.8,577.5,233.2"/>
					</g>
				</g>
			</g>
			<g id="Gruppe_2434" transform="translate(19 -21)">
				<g class="st3">
					<path class="st4" d="M1177.8,1522h-1.6l-3.8-5.1l-1.1,1v4.2h-1.4v-10.7h1.4v5.3c0.3-0.3,0.6-0.7,0.9-1c0.3-0.3,0.6-0.7,0.9-1
						l2.9-3.2h1.6l-4.2,4.7L1177.8,1522z"/>
					<path class="st4" d="M1182.1,1513.8c1,0,1.7,0.2,2.2,0.6c0.5,0.4,0.7,1.1,0.7,2.1v5.5h-1l-0.3-1.1h-0.1c-0.4,0.4-0.7,0.8-1.1,1
						s-0.9,0.3-1.6,0.3c-0.7,0-1.3-0.2-1.8-0.6c-0.5-0.4-0.7-1-0.7-1.8c0-0.8,0.3-1.4,0.9-1.9c0.6-0.4,1.6-0.7,2.9-0.7l1.4,0v-0.5
						c0-0.7-0.1-1.1-0.4-1.4s-0.7-0.4-1.2-0.4c-0.4,0-0.8,0.1-1.2,0.2c-0.4,0.1-0.7,0.3-1.1,0.4l-0.4-1c0.3-0.2,0.8-0.4,1.2-0.5
						S1181.6,1513.8,1182.1,1513.8z M1183.7,1518.1l-1.2,0c-1,0-1.7,0.2-2.1,0.5c-0.4,0.3-0.6,0.7-0.6,1.2c0,0.5,0.1,0.8,0.4,1
						c0.3,0.2,0.6,0.3,1.1,0.3c0.7,0,1.2-0.2,1.7-0.6s0.7-1,0.7-1.7V1518.1z"/>
					<path class="st4" d="M1191.2,1513.8c0.1,0,0.3,0,0.5,0c0.2,0,0.3,0,0.5,0.1l-0.2,1.2c-0.1,0-0.3-0.1-0.4-0.1
						c-0.2,0-0.3,0-0.4,0c-0.4,0-0.8,0.1-1.2,0.3c-0.4,0.2-0.6,0.5-0.9,0.9c-0.2,0.4-0.3,0.9-0.3,1.4v4.3h-1.3v-8h1.1l0.1,1.5h0.1
						c0.2-0.4,0.6-0.8,1-1.1S1190.6,1513.8,1191.2,1513.8z"/>
					<path class="st4" d="M1195,1522h-1.3v-11.4h1.3V1522z"/>
					<path class="st4" d="M1204.4,1511.3c1.4,0,2.4,0.3,3.1,0.8c0.6,0.5,1,1.3,1,2.3c0,0.6-0.1,1.1-0.4,1.7
						c-0.3,0.5-0.7,0.9-1.3,1.3c-0.6,0.3-1.5,0.5-2.5,0.5h-1.2v4.2h-1.4v-10.7H1204.4z M1204.3,1512.5h-1.4v4.2h1.1
						c1,0,1.8-0.2,2.3-0.5s0.8-0.9,0.8-1.7c0-0.7-0.2-1.2-0.7-1.5C1205.9,1512.6,1205.3,1512.5,1204.3,1512.5z"/>
					<path class="st4" d="M1217.5,1518c0,1.3-0.3,2.4-1,3.1c-0.7,0.7-1.6,1.1-2.7,1.1c-0.7,0-1.3-0.2-1.9-0.5
						c-0.6-0.3-1-0.8-1.3-1.4c-0.3-0.6-0.5-1.4-0.5-2.3c0-1.3,0.3-2.4,1-3.1c0.7-0.7,1.6-1.1,2.7-1.1c0.7,0,1.4,0.2,1.9,0.5
						s1,0.8,1.3,1.4C1217.3,1516.3,1217.5,1517.1,1217.5,1518z M1211.4,1518c0,1,0.2,1.7,0.6,2.3s1,0.8,1.8,0.8
						c0.8,0,1.4-0.3,1.8-0.8c0.4-0.6,0.6-1.3,0.6-2.3s-0.2-1.7-0.6-2.2c-0.4-0.5-1-0.8-1.8-0.8s-1.4,0.3-1.8,0.8
						C1211.6,1516.3,1211.4,1517,1211.4,1518z"/>
					<path class="st4" d="M1223.4,1513.8c1,0,1.8,0.3,2.4,1c0.6,0.7,0.9,1.7,0.9,3.1c0,1.4-0.3,2.4-0.9,3.1
						c-0.6,0.7-1.4,1.1-2.4,1.1c-0.6,0-1.1-0.1-1.5-0.3c-0.4-0.2-0.7-0.5-1-0.8h-0.1c0,0.2,0,0.4,0.1,0.6c0,0.3,0,0.5,0,0.7v3.3
						h-1.3V1514h1.1l0.2,1.1h0.1c0.2-0.3,0.6-0.6,0.9-0.9S1222.7,1513.8,1223.4,1513.8z M1223.2,1514.9c-0.8,0-1.4,0.2-1.7,0.7
						c-0.3,0.5-0.5,1.2-0.5,2.1v0.3c0,1,0.2,1.8,0.5,2.3c0.3,0.5,0.9,0.8,1.8,0.8c0.5,0,0.9-0.1,1.2-0.4c0.3-0.3,0.6-0.6,0.7-1.1
						c0.2-0.5,0.2-1,0.2-1.6c0-0.9-0.2-1.7-0.5-2.2S1223.9,1514.9,1223.2,1514.9z"/>
					<path class="st4" d="M1232.6,1513.8c1,0,1.8,0.3,2.4,1c0.6,0.7,0.9,1.7,0.9,3.1c0,1.4-0.3,2.4-0.9,3.1
						c-0.6,0.7-1.4,1.1-2.4,1.1c-0.6,0-1.1-0.1-1.5-0.3c-0.4-0.2-0.7-0.5-1-0.8h-0.1c0,0.2,0,0.4,0.1,0.6c0,0.3,0,0.5,0,0.7v3.3
						h-1.3V1514h1.1l0.2,1.1h0.1c0.2-0.3,0.6-0.6,0.9-0.9S1232,1513.8,1232.6,1513.8z M1232.4,1514.9c-0.8,0-1.4,0.2-1.7,0.7
						c-0.3,0.5-0.5,1.2-0.5,2.1v0.3c0,1,0.2,1.8,0.5,2.3c0.3,0.5,0.9,0.8,1.8,0.8c0.5,0,0.9-0.1,1.2-0.4c0.3-0.3,0.6-0.6,0.7-1.1
						c0.2-0.5,0.2-1,0.2-1.6c0-0.9-0.2-1.7-0.5-2.2S1233.1,1514.9,1232.4,1514.9z"/>
					<path class="st4" d="M1241.1,1513.8c0.7,0,1.3,0.2,1.8,0.5s0.9,0.7,1.1,1.3s0.4,1.2,0.4,1.9v0.8h-5.5c0,0.9,0.3,1.6,0.7,2.1
						c0.4,0.5,1.1,0.7,1.9,0.7c0.5,0,1,0,1.4-0.1c0.4-0.1,0.8-0.2,1.2-0.4v1.2c-0.4,0.2-0.8,0.3-1.2,0.4c-0.4,0.1-0.9,0.1-1.4,0.1
						c-0.8,0-1.4-0.2-2-0.5c-0.6-0.3-1-0.8-1.4-1.4c-0.3-0.6-0.5-1.4-0.5-2.3c0-0.9,0.1-1.6,0.4-2.3c0.3-0.6,0.7-1.1,1.2-1.5
						C1239.8,1514,1240.4,1513.8,1241.1,1513.8z M1241.1,1514.9c-0.6,0-1.1,0.2-1.5,0.6c-0.4,0.4-0.6,1-0.7,1.7h4.1
						c0-0.7-0.2-1.2-0.5-1.7C1242.3,1515.1,1241.8,1514.9,1241.1,1514.9z"/>
					<path class="st4" d="M1250.2,1513.8c0.1,0,0.3,0,0.5,0c0.2,0,0.3,0,0.5,0.1l-0.2,1.2c-0.1,0-0.3-0.1-0.4-0.1
						c-0.2,0-0.3,0-0.4,0c-0.4,0-0.8,0.1-1.2,0.3c-0.4,0.2-0.6,0.5-0.9,0.9c-0.2,0.4-0.3,0.9-0.3,1.4v4.3h-1.3v-8h1.1l0.1,1.5h0.1
						c0.2-0.4,0.6-0.8,1-1.1S1249.7,1513.8,1250.2,1513.8z"/>
				</g>
				<g class="st3">
					<path class="st5" d="M1123.7,1349.1v-6c3.2-0.9,6.3-2.6,9.1-5.2c2.8-2.6,4.2-5.3,4.2-8.1c0-1.9-0.7-2.8-2-2.8
						c-0.3,0-0.9,0.1-1.9,0.4c-1,0.3-1.9,0.5-2.9,0.5c-3.3,0-5.9-1.1-7.7-3.4c-1.8-2.3-2.7-4.7-2.7-7.3c0-3.3,1.1-6.1,3.3-8.3
						c2.2-2.2,4.9-3.3,7.9-3.3c4.6,0,8.1,1.7,10.4,5c2.3,3.3,3.5,7.3,3.5,11.8c0,5.6-1.8,10.9-5.4,16.1
						C1136,1343.8,1130.7,1347.3,1123.7,1349.1z M1156.3,1349.1v-6c3.5-1,6.6-2.8,9.3-5.5c2.7-2.7,4-5.3,4-7.8
						c0-1.9-0.6-2.8-1.9-2.8c-0.3,0-1,0.1-2,0.4c-1,0.3-1.9,0.5-2.8,0.5c-3,0-5.5-1-7.5-3.1c-2-2.1-3-4.6-3-7.6
						c0-3.7,1.2-6.6,3.6-8.6c2.4-2,4.9-3,7.6-3c4.3,0,7.7,1.6,10.2,4.7c2.5,3.1,3.7,7.2,3.7,12.1c0,5.8-1.9,11.2-5.6,16.3
						C1168.2,1343.8,1163,1347.3,1156.3,1349.1z"/>
				</g>
				<g class="st3">
					<path class="st4" d="M1177.8,1352h-8.5v-2.2l2.3-1v-12l-2.3-1v-2.2h8.5v2.2l-2.3,1v12l2.3,1V1352z"/>
					<path class="st4" d="M1184.5,1352h-3.9v-19.8h3.9V1352z"/>
					<path class="st4" d="M1203.4,1337.6c1.5,0,2.7,0.4,3.7,1.2c0.9,0.8,1.4,2.1,1.4,4v9.3h-3.9v-8.3c0-1-0.2-1.8-0.5-2.3
						c-0.4-0.5-0.9-0.8-1.7-0.8c-1.2,0-2,0.4-2.4,1.2c-0.4,0.8-0.6,2-0.6,3.5v6.7h-3.9v-14.2h3l0.5,1.8h0.2c0.5-0.7,1.1-1.3,1.9-1.6
						C1201.7,1337.7,1202.5,1337.6,1203.4,1337.6z"/>
					<path class="st4" d="M1225.3,1344.9c0,2.4-0.6,4.2-1.9,5.5c-1.2,1.3-2.9,1.9-5.1,1.9c-1.3,0-2.5-0.3-3.5-0.9
						c-1-0.6-1.8-1.4-2.4-2.5c-0.6-1.1-0.9-2.4-0.9-4c0-2.4,0.6-4.2,1.8-5.4c1.2-1.3,2.9-1.9,5.1-1.9c1.3,0,2.5,0.3,3.5,0.9
						c1,0.6,1.8,1.4,2.4,2.5C1225,1342,1225.3,1343.3,1225.3,1344.9z M1215.5,1344.9c0,1.4,0.2,2.5,0.7,3.2c0.5,0.7,1.2,1.1,2.2,1.1
						c1,0,1.8-0.4,2.2-1.1c0.5-0.7,0.7-1.8,0.7-3.2s-0.2-2.5-0.7-3.2c-0.5-0.7-1.2-1.1-2.2-1.1c-1,0-1.8,0.4-2.2,1.1
						C1215.7,1342.4,1215.5,1343.5,1215.5,1344.9z"/>
					<path class="st4" d="M1238.4,1347.8c0,1.4-0.5,2.5-1.5,3.3c-1,0.8-2.5,1.2-4.5,1.2c-1,0-1.8-0.1-2.5-0.2
						c-0.7-0.1-1.4-0.3-2.1-0.6v-3.2c0.8,0.3,1.6,0.6,2.5,0.9c0.9,0.2,1.7,0.3,2.3,0.3c0.7,0,1.3-0.1,1.6-0.3
						c0.3-0.2,0.5-0.5,0.5-0.9c0-0.2-0.1-0.5-0.2-0.7c-0.1-0.2-0.4-0.4-0.8-0.6c-0.4-0.2-1.1-0.6-2-0.9c-0.9-0.4-1.6-0.8-2.2-1.1
						c-0.6-0.4-1-0.8-1.3-1.4c-0.3-0.5-0.4-1.2-0.4-2c0-1.3,0.5-2.3,1.5-3c1-0.7,2.4-1,4.1-1c0.9,0,1.7,0.1,2.5,0.3
						c0.8,0.2,1.6,0.5,2.5,0.9l-1.2,2.8c-0.7-0.3-1.4-0.5-2-0.7s-1.3-0.3-1.9-0.3c-1.1,0-1.7,0.3-1.7,0.9c0,0.2,0.1,0.4,0.2,0.6
						c0.1,0.2,0.4,0.4,0.9,0.6c0.4,0.2,1.1,0.5,1.9,0.8c0.8,0.3,1.5,0.7,2.1,1c0.6,0.4,1,0.8,1.4,1.3
						C1238.2,1346.3,1238.4,1347,1238.4,1347.8z"/>
					<path class="st4" d="M1247.4,1349.2c0.4,0,0.8,0,1.2-0.1c0.4-0.1,0.8-0.2,1.2-0.3v2.9c-0.4,0.2-0.9,0.3-1.5,0.5s-1.3,0.2-2,0.2
						c-0.8,0-1.6-0.1-2.3-0.4c-0.7-0.3-1.2-0.8-1.6-1.4c-0.4-0.7-0.6-1.6-0.6-2.9v-6.8h-1.8v-1.6l2.1-1.3l1.1-3h2.5v3h4v2.9h-4v6.8
						c0,0.5,0.2,0.9,0.5,1.2C1246.5,1349.1,1246.9,1349.2,1247.4,1349.2z"/>
					<path class="st4" d="M1260.6,1337.6c0.2,0,0.4,0,0.7,0c0.3,0,0.5,0,0.6,0.1l-0.3,3.6c-0.1,0-0.3-0.1-0.5-0.1
						c-0.2,0-0.4,0-0.6,0c-0.7,0-1.3,0.1-1.9,0.4c-0.6,0.2-1.1,0.6-1.5,1.1c-0.4,0.5-0.6,1.2-0.6,2.1v7.2h-3.9v-14.2h2.9l0.6,2.4
						h0.2c0.4-0.7,1-1.4,1.7-1.9C1258.8,1337.8,1259.7,1337.6,1260.6,1337.6z"/>
					<path class="st4" d="M1276.9,1344.9c0,2.4-0.6,4.2-1.9,5.5c-1.2,1.3-2.9,1.9-5.1,1.9c-1.3,0-2.5-0.3-3.5-0.9
						c-1-0.6-1.8-1.4-2.4-2.5c-0.6-1.1-0.9-2.4-0.9-4c0-2.4,0.6-4.2,1.8-5.4c1.2-1.3,2.9-1.9,5.1-1.9c1.3,0,2.5,0.3,3.5,0.9
						c1,0.6,1.8,1.4,2.4,2.5C1276.6,1342,1276.9,1343.3,1276.9,1344.9z M1267.1,1344.9c0,1.4,0.2,2.5,0.7,3.2
						c0.5,0.7,1.2,1.1,2.2,1.1c1,0,1.8-0.4,2.2-1.1c0.5-0.7,0.7-1.8,0.7-3.2s-0.2-2.5-0.7-3.2c-0.5-0.7-1.2-1.1-2.2-1.1
						c-1,0-1.8,0.4-2.2,1.1C1267.3,1342.4,1267.1,1343.5,1267.1,1344.9z"/>
					<path class="st4" d="M1292.7,1337.5c1.9,0,3.4,0.4,4.4,1.2c1,0.8,1.5,2.1,1.5,3.8v9.5h-2.7l-0.8-1.9h-0.1
						c-0.6,0.8-1.2,1.3-1.9,1.7c-0.7,0.3-1.6,0.5-2.8,0.5c-1.3,0-2.3-0.4-3.1-1.1c-0.8-0.7-1.2-1.9-1.2-3.4c0-1.5,0.5-2.6,1.6-3.3
						c1.1-0.7,2.6-1.1,4.8-1.2l2.5-0.1v-0.6c0-0.7-0.2-1.3-0.6-1.6c-0.4-0.3-0.9-0.5-1.6-0.5s-1.4,0.1-2,0.3c-0.7,0.2-1.3,0.4-2,0.7
						l-1.3-2.6c0.7-0.4,1.6-0.7,2.5-0.9C1290.7,1337.7,1291.7,1337.5,1292.7,1337.5z M1294.7,1345.4l-1.5,0.1
						c-1.2,0-2.1,0.3-2.6,0.7s-0.7,1-0.7,1.6c0,0.6,0.2,1,0.5,1.3c0.3,0.3,0.8,0.4,1.4,0.4c0.8,0,1.5-0.2,2.1-0.7
						c0.6-0.5,0.9-1.2,0.9-2.1V1345.4z"/>
					<path class="st4" d="M1308.5,1349.2c0.4,0,0.8,0,1.2-0.1c0.4-0.1,0.8-0.2,1.2-0.3v2.9c-0.4,0.2-0.9,0.3-1.5,0.5s-1.3,0.2-2,0.2
						c-0.8,0-1.6-0.1-2.3-0.4c-0.7-0.3-1.2-0.8-1.6-1.4c-0.4-0.7-0.6-1.6-0.6-2.9v-6.8h-1.8v-1.6l2.1-1.3l1.1-3h2.5v3h4v2.9h-4v6.8
						c0,0.5,0.2,0.9,0.5,1.2C1307.6,1349.1,1308,1349.2,1308.5,1349.2z"/>
					<path class="st4" d="M1319.8,1349.2c0.4,0,0.8,0,1.2-0.1c0.4-0.1,0.8-0.2,1.2-0.3v2.9c-0.4,0.2-0.9,0.3-1.5,0.5s-1.3,0.2-2,0.2
						c-0.8,0-1.6-0.1-2.3-0.4c-0.7-0.3-1.2-0.8-1.6-1.4c-0.4-0.7-0.6-1.6-0.6-2.9v-6.8h-1.8v-1.6l2.1-1.3l1.1-3h2.5v3h4v2.9h-4v6.8
						c0,0.5,0.2,0.9,0.5,1.2C1318.9,1349.1,1319.3,1349.2,1319.8,1349.2z"/>
					<path class="st4" d="M1331,1337.6c2,0,3.5,0.6,4.7,1.7c1.1,1.1,1.7,2.7,1.7,4.8v1.9h-9.2c0,1.1,0.4,2,1,2.6
						c0.6,0.6,1.5,0.9,2.6,0.9c0.9,0,1.7-0.1,2.5-0.3c0.8-0.2,1.5-0.5,2.3-0.8v3c-0.7,0.3-1.4,0.6-2.2,0.8c-0.8,0.2-1.7,0.2-2.8,0.2
						c-1.4,0-2.7-0.3-3.8-0.8c-1.1-0.5-2-1.3-2.6-2.4c-0.6-1.1-0.9-2.4-0.9-4.1c0-1.6,0.3-3,0.8-4.1c0.6-1.1,1.3-1.9,2.4-2.5
						C1328.4,1337.8,1329.6,1337.6,1331,1337.6z M1331,1340.3c-0.8,0-1.4,0.2-1.9,0.7c-0.5,0.5-0.8,1.2-0.9,2.3h5.4
						c0-0.8-0.2-1.6-0.7-2.1S1331.9,1340.3,1331,1340.3z"/>
					<path class="st4" d="M1345.1,1337.6c1.8,0,3.1,0.7,4.1,2.1h0.1l0.3-1.8h3.3v14.2c0,2-0.6,3.6-1.8,4.6c-1.2,1.1-3,1.6-5.3,1.6
						c-1,0-1.9-0.1-2.8-0.2s-1.7-0.3-2.5-0.6v-3.1c1.7,0.7,3.6,1.1,5.5,1.1c2,0,3-1.1,3-3.2v-0.3c0-0.3,0-0.6,0-0.9
						c0-0.3,0-0.6,0.1-0.8h-0.1c-0.5,0.7-1.1,1.3-1.7,1.6c-0.7,0.3-1.4,0.5-2.3,0.5c-1.7,0-3-0.6-3.9-1.9s-1.4-3.1-1.4-5.4
						c0-2.3,0.5-4.1,1.5-5.4S1343.4,1337.6,1345.1,1337.6z M1346.3,1340.7c-1.8,0-2.7,1.4-2.7,4.3c0,2.8,0.9,4.2,2.8,4.2
						c1,0,1.7-0.3,2.2-0.8c0.5-0.6,0.7-1.5,0.7-3v-0.5c0-1.5-0.2-2.6-0.7-3.3C1348.1,1341,1347.3,1340.7,1346.3,1340.7z"/>
					<path class="st4" d="M1361.5,1337.6c1.8,0,3.1,0.7,4.1,2.1h0.1l0.3-1.8h3.3v14.2c0,2-0.6,3.6-1.8,4.6c-1.2,1.1-3,1.6-5.3,1.6
						c-1,0-1.9-0.1-2.8-0.2s-1.7-0.3-2.5-0.6v-3.1c1.7,0.7,3.6,1.1,5.5,1.1c2,0,3-1.1,3-3.2v-0.3c0-0.3,0-0.6,0-0.9
						c0-0.3,0-0.6,0.1-0.8h-0.1c-0.5,0.7-1.1,1.3-1.7,1.6c-0.7,0.3-1.4,0.5-2.3,0.5c-1.7,0-3-0.6-3.9-1.9s-1.4-3.1-1.4-5.4
						c0-2.3,0.5-4.1,1.5-5.4S1359.8,1337.6,1361.5,1337.6z M1362.8,1340.7c-1.8,0-2.7,1.4-2.7,4.3c0,2.8,0.9,4.2,2.8,4.2
						c1,0,1.7-0.3,2.2-0.8s0.7-1.5,0.7-3v-0.5c0-1.5-0.2-2.6-0.7-3.3C1364.5,1341,1363.8,1340.7,1362.8,1340.7z"/>
					<path class="st4" d="M1375.3,1332.3c0.6,0,1.1,0.1,1.5,0.4c0.4,0.3,0.6,0.8,0.6,1.5c0,0.7-0.2,1.2-0.6,1.5s-0.9,0.4-1.5,0.4
						c-0.6,0-1.1-0.1-1.5-0.4c-0.4-0.3-0.6-0.8-0.6-1.5c0-0.7,0.2-1.2,0.6-1.5C1374.2,1332.4,1374.7,1332.3,1375.3,1332.3z
						 M1377.3,1337.8v14.2h-3.9v-14.2H1377.3z"/>
					<path class="st4" d="M1387.1,1337.5c1.9,0,3.4,0.4,4.4,1.2c1,0.8,1.5,2.1,1.5,3.8v9.5h-2.7l-0.8-1.9h-0.1
						c-0.6,0.8-1.2,1.3-1.9,1.7s-1.6,0.5-2.8,0.5c-1.3,0-2.3-0.4-3.1-1.1c-0.8-0.7-1.2-1.9-1.2-3.4c0-1.5,0.5-2.6,1.6-3.3
						c1.1-0.7,2.6-1.1,4.8-1.2l2.5-0.1v-0.6c0-0.7-0.2-1.3-0.6-1.6c-0.4-0.3-0.9-0.5-1.6-0.5s-1.4,0.1-2,0.3c-0.7,0.2-1.3,0.4-2,0.7
						l-1.3-2.6c0.7-0.4,1.6-0.7,2.5-0.9C1385.2,1337.7,1386.1,1337.5,1387.1,1337.5z M1389.2,1345.4l-1.5,0.1
						c-1.2,0-2.1,0.3-2.6,0.7s-0.7,1-0.7,1.6c0,0.6,0.2,1,0.5,1.3c0.3,0.3,0.8,0.4,1.4,0.4c0.8,0,1.5-0.2,2.1-0.7
						c0.6-0.5,0.9-1.2,0.9-2.1V1345.4z"/>
					<path class="st4" d="M1413.7,1337.6c1.6,0,2.8,0.4,3.7,1.2s1.2,2.1,1.2,4v9.3h-3.9v-8.3c0-2-0.7-3.1-2.1-3.1
						c-1,0-1.8,0.4-2.2,1.1c-0.4,0.7-0.6,1.8-0.6,3.1v7.1h-3.9v-8.3c0-2-0.7-3.1-2.1-3.1c-1.1,0-1.8,0.4-2.2,1.2
						c-0.4,0.8-0.6,2-0.6,3.5v6.7h-3.9v-14.2h3l0.5,1.8h0.2c0.4-0.7,1-1.3,1.8-1.6s1.5-0.5,2.4-0.5c1,0,1.9,0.2,2.6,0.5
						c0.7,0.3,1.3,0.9,1.7,1.6h0.3c0.4-0.7,1-1.3,1.8-1.6C1412.1,1337.7,1412.9,1337.6,1413.7,1337.6z"/>
					<path class="st4" d="M1428.4,1337.6c2,0,3.5,0.6,4.7,1.7c1.1,1.1,1.7,2.7,1.7,4.8v1.9h-9.2c0,1.1,0.4,2,1,2.6
						c0.6,0.6,1.5,0.9,2.6,0.9c0.9,0,1.7-0.1,2.5-0.3c0.8-0.2,1.5-0.5,2.3-0.8v3c-0.7,0.3-1.4,0.6-2.2,0.8c-0.8,0.2-1.7,0.2-2.8,0.2
						c-1.4,0-2.7-0.3-3.8-0.8c-1.1-0.5-2-1.3-2.6-2.4c-0.6-1.1-0.9-2.4-0.9-4.1c0-1.6,0.3-3,0.8-4.1s1.3-1.9,2.4-2.5
						S1427.1,1337.6,1428.4,1337.6z M1428.4,1340.3c-0.8,0-1.4,0.2-1.9,0.7s-0.8,1.2-0.9,2.3h5.4c0-0.8-0.2-1.6-0.7-2.1
						C1430,1340.6,1429.3,1340.3,1428.4,1340.3z"/>
					<path class="st4" d="M1446,1337.6c1.5,0,2.7,0.4,3.7,1.2c0.9,0.8,1.4,2.1,1.4,4v9.3h-3.9v-8.3c0-1-0.2-1.8-0.5-2.3
						c-0.4-0.5-0.9-0.8-1.7-0.8c-1.2,0-2,0.4-2.4,1.2c-0.4,0.8-0.6,2-0.6,3.5v6.7h-3.9v-14.2h3l0.5,1.8h0.2c0.4-0.7,1.1-1.3,1.9-1.6
						C1444.3,1337.7,1445.1,1337.6,1446,1337.6z"/>
					<path class="st4" d="M1461,1349.2c0.4,0,0.8,0,1.2-0.1s0.8-0.2,1.2-0.3v2.9c-0.4,0.2-0.9,0.3-1.5,0.5s-1.3,0.2-2,0.2
						c-0.8,0-1.6-0.1-2.3-0.4c-0.7-0.3-1.2-0.8-1.6-1.4c-0.4-0.7-0.6-1.6-0.6-2.9v-6.8h-1.8v-1.6l2.1-1.3l1.1-3h2.5v3h4v2.9h-4v6.8
						c0,0.5,0.2,0.9,0.5,1.2C1460.1,1349.1,1460.5,1349.2,1461,1349.2z"/>
					<path class="st4" d="M1479.2,1344.9c0,2.4-0.6,4.2-1.9,5.5c-1.2,1.3-2.9,1.9-5.1,1.9c-1.3,0-2.5-0.3-3.5-0.9
						c-1-0.6-1.8-1.4-2.4-2.5c-0.6-1.1-0.9-2.4-0.9-4c0-2.4,0.6-4.2,1.8-5.4c1.2-1.3,2.9-1.9,5.1-1.9c1.3,0,2.5,0.3,3.5,0.9
						c1,0.6,1.8,1.4,2.4,2.5C1478.9,1342,1479.2,1343.3,1479.2,1344.9z M1469.4,1344.9c0,1.4,0.2,2.5,0.7,3.2
						c0.5,0.7,1.2,1.1,2.2,1.1c1,0,1.8-0.4,2.2-1.1c0.5-0.7,0.7-1.8,0.7-3.2s-0.2-2.5-0.7-3.2s-1.2-1.1-2.2-1.1
						c-1,0-1.8,0.4-2.2,1.1C1469.6,1342.4,1469.4,1343.5,1469.4,1344.9z"/>
				</g>
				<g class="st3">
					<path class="st4" d="M1173.9,1386l-5.4-14.2h4.1l2.7,8.1c0.2,0.5,0.3,1,0.4,1.5c0.1,0.5,0.1,1,0.2,1.4h0.1
						c0.1-0.9,0.2-1.9,0.6-2.9l2.7-8.1h4.1l-5.4,14.2H1173.9z"/>
					<path class="st4" d="M1191.2,1371.6c2,0,3.5,0.6,4.7,1.7c1.1,1.1,1.7,2.7,1.7,4.8v1.9h-9.2c0,1.1,0.4,2,1,2.6
						c0.6,0.6,1.5,0.9,2.6,0.9c0.9,0,1.7-0.1,2.5-0.3c0.8-0.2,1.5-0.5,2.3-0.8v3c-0.7,0.3-1.4,0.6-2.2,0.8c-0.8,0.2-1.7,0.2-2.8,0.2
						c-1.4,0-2.7-0.3-3.8-0.8c-1.1-0.5-2-1.3-2.6-2.4c-0.6-1.1-0.9-2.4-0.9-4.1c0-1.6,0.3-3,0.8-4.1c0.6-1.1,1.3-1.9,2.4-2.5
						C1188.6,1371.8,1189.8,1371.6,1191.2,1371.6z M1191.2,1374.3c-0.8,0-1.4,0.2-1.9,0.7c-0.5,0.5-0.8,1.2-0.9,2.3h5.4
						c0-0.8-0.2-1.6-0.7-2.1S1192.1,1374.3,1191.2,1374.3z"/>
					<path class="st4" d="M1208.6,1371.6c0.2,0,0.4,0,0.7,0c0.3,0,0.5,0,0.6,0.1l-0.3,3.6c-0.1,0-0.3-0.1-0.5-0.1
						c-0.2,0-0.4,0-0.6,0c-0.7,0-1.3,0.1-1.9,0.4c-0.6,0.2-1.1,0.6-1.5,1.1c-0.4,0.5-0.6,1.2-0.6,2.1v7.2h-3.9v-14.2h2.9l0.6,2.4
						h0.2c0.4-0.7,1-1.4,1.7-1.9C1206.8,1371.8,1207.6,1371.6,1208.6,1371.6z"/>
					<path class="st4" d="M1222.4,1381.8c0,1.4-0.5,2.5-1.5,3.3c-1,0.8-2.5,1.2-4.5,1.2c-1,0-1.8-0.1-2.5-0.2
						c-0.7-0.1-1.4-0.3-2.1-0.6v-3.2c0.8,0.3,1.6,0.6,2.5,0.9c0.9,0.2,1.7,0.3,2.3,0.3c0.7,0,1.3-0.1,1.6-0.3
						c0.3-0.2,0.5-0.5,0.5-0.9c0-0.2-0.1-0.5-0.2-0.7c-0.1-0.2-0.4-0.4-0.8-0.6c-0.4-0.2-1.1-0.6-2-0.9c-0.9-0.4-1.6-0.8-2.2-1.1
						c-0.6-0.4-1-0.8-1.3-1.4c-0.3-0.5-0.4-1.2-0.4-2c0-1.3,0.5-2.3,1.5-3c1-0.7,2.4-1,4.1-1c0.9,0,1.7,0.1,2.5,0.3
						c0.8,0.2,1.6,0.5,2.5,0.9l-1.2,2.8c-0.7-0.3-1.4-0.5-2-0.7s-1.3-0.3-1.9-0.3c-1.1,0-1.7,0.3-1.7,0.9c0,0.2,0.1,0.4,0.2,0.6
						c0.1,0.2,0.4,0.4,0.9,0.6c0.4,0.2,1.1,0.5,1.9,0.8c0.8,0.3,1.5,0.7,2.1,1c0.6,0.4,1,0.8,1.4,1.3
						C1222.2,1380.3,1222.4,1381,1222.4,1381.8z"/>
					<path class="st4" d="M1238.3,1378.9c0,2.4-0.6,4.2-1.9,5.5c-1.2,1.3-2.9,1.9-5.1,1.9c-1.3,0-2.5-0.3-3.5-0.9
						c-1-0.6-1.8-1.4-2.4-2.5c-0.6-1.1-0.9-2.4-0.9-4c0-2.4,0.6-4.2,1.8-5.4c1.2-1.3,2.9-1.9,5.1-1.9c1.3,0,2.5,0.3,3.5,0.9
						c1,0.6,1.8,1.4,2.4,2.5C1238,1376,1238.3,1377.3,1238.3,1378.9z M1228.5,1378.9c0,1.4,0.2,2.5,0.7,3.2c0.5,0.7,1.2,1.1,2.2,1.1
						c1,0,1.8-0.4,2.2-1.1c0.5-0.7,0.7-1.8,0.7-3.2s-0.2-2.5-0.7-3.2c-0.5-0.7-1.2-1.1-2.2-1.1c-1,0-1.8,0.4-2.2,1.1
						C1228.7,1376.4,1228.5,1377.5,1228.5,1378.9z"/>
					<path class="st4" d="M1250.2,1366.3c0.6,0,1.1,0.1,1.5,0.4c0.4,0.3,0.6,0.8,0.6,1.5c0,0.7-0.2,1.2-0.6,1.5s-0.9,0.4-1.5,0.4
						c-0.6,0-1.1-0.1-1.5-0.4s-0.6-0.8-0.6-1.5c0-0.7,0.2-1.2,0.6-1.5C1249.1,1366.4,1249.6,1366.3,1250.2,1366.3z M1252.1,1371.8
						v14.2h-3.9v-14.2H1252.1z"/>
					<path class="st4" d="M1260.1,1386h-3.9v-19.8h3.9V1386z"/>
					<path class="st4" d="M1278.7,1374.7h-3.4v11.3h-3.9v-11.3h-2.1v-1.9l2.1-1v-1c0-1.2,0.2-2.2,0.6-2.8c0.4-0.7,1-1.1,1.7-1.4
						s1.6-0.4,2.7-0.4c0.7,0,1.4,0.1,2.1,0.2s1.1,0.3,1.5,0.4l-1,2.8c-0.3-0.1-0.6-0.2-1-0.2c-0.4-0.1-0.8-0.1-1.2-0.1
						c-0.5,0-0.9,0.2-1.2,0.5c-0.3,0.3-0.4,0.7-0.4,1.2v0.9h3.4V1374.7z"/>
					<path class="st4" d="M1294,1371.8v14.2h-3l-0.5-1.8h-0.2c-0.5,0.7-1.1,1.3-1.9,1.6c-0.8,0.3-1.6,0.5-2.5,0.5
						c-1.5,0-2.7-0.4-3.7-1.2c-0.9-0.8-1.4-2.1-1.4-4v-9.3h3.9v8.3c0,1,0.2,1.8,0.5,2.3c0.4,0.5,0.9,0.8,1.7,0.8
						c1.2,0,2-0.4,2.4-1.2s0.7-2,0.7-3.5v-6.7H1294z"/>
					<path class="st4" d="M1304,1383.2c0.4,0,0.8,0,1.2-0.1c0.4-0.1,0.8-0.2,1.2-0.3v2.9c-0.4,0.2-0.9,0.3-1.5,0.5s-1.3,0.2-2,0.2
						c-0.8,0-1.6-0.1-2.3-0.4c-0.7-0.3-1.2-0.8-1.6-1.4c-0.4-0.7-0.6-1.6-0.6-2.9v-6.8h-1.8v-1.6l2.1-1.3l1.1-3h2.5v3h4v2.9h-4v6.8
						c0,0.5,0.2,0.9,0.5,1.2C1303.1,1383.1,1303.5,1383.2,1304,1383.2z"/>
					<path class="st4" d="M1322.3,1371.8v14.2h-3l-0.5-1.8h-0.2c-0.5,0.7-1.1,1.3-1.9,1.6c-0.8,0.3-1.6,0.5-2.5,0.5
						c-1.5,0-2.7-0.4-3.7-1.2c-0.9-0.8-1.4-2.1-1.4-4v-9.3h3.9v8.3c0,1,0.2,1.8,0.5,2.3c0.4,0.5,0.9,0.8,1.7,0.8
						c1.2,0,2-0.4,2.4-1.2s0.7-2,0.7-3.5v-6.7H1322.3z"/>
					<path class="st4" d="M1334.3,1371.6c0.2,0,0.4,0,0.7,0c0.3,0,0.5,0,0.6,0.1l-0.3,3.6c-0.1,0-0.3-0.1-0.5-0.1
						c-0.2,0-0.4,0-0.6,0c-0.7,0-1.3,0.1-1.9,0.4c-0.6,0.2-1.1,0.6-1.5,1.1c-0.4,0.5-0.6,1.2-0.6,2.1v7.2h-3.9v-14.2h2.9l0.6,2.4
						h0.2c0.4-0.7,1-1.4,1.7-1.9C1332.5,1371.8,1333.4,1371.6,1334.3,1371.6z"/>
					<path class="st4" d="M1350.6,1378.9c0,2.4-0.6,4.2-1.9,5.5c-1.2,1.3-2.9,1.9-5.1,1.9c-1.3,0-2.5-0.3-3.5-0.9
						c-1-0.6-1.8-1.4-2.4-2.5c-0.6-1.1-0.9-2.4-0.9-4c0-2.4,0.6-4.2,1.8-5.4c1.2-1.3,2.9-1.9,5.1-1.9c1.3,0,2.5,0.3,3.5,0.9
						c1,0.6,1.8,1.4,2.4,2.5C1350.3,1376,1350.6,1377.3,1350.6,1378.9z M1340.8,1378.9c0,1.4,0.2,2.5,0.7,3.2
						c0.5,0.7,1.2,1.1,2.2,1.1c1,0,1.8-0.4,2.2-1.1c0.5-0.7,0.7-1.8,0.7-3.2s-0.2-2.5-0.7-3.2c-0.5-0.7-1.2-1.1-2.2-1.1
						c-1,0-1.8,0.4-2.2,1.1C1341,1376.4,1340.8,1377.5,1340.8,1378.9z"/>
					<path class="st4" d="M1365,1386.3c-1.6,0-2.9-0.6-3.9-1.9c-1-1.2-1.5-3.1-1.5-5.5c0-2.4,0.5-4.3,1.5-5.5c1-1.2,2.3-1.9,4-1.9
						c1,0,1.9,0.2,2.5,0.6c0.7,0.4,1.2,0.9,1.6,1.5h0.1c-0.1-0.3-0.1-0.7-0.2-1.2c-0.1-0.5-0.1-1.1-0.1-1.6v-4.5h3.9v19.8h-3
						l-0.8-1.8h-0.2c-0.4,0.6-0.9,1.1-1.5,1.5C1366.9,1386.1,1366,1386.3,1365,1386.3z M1366.4,1383.2c1.1,0,1.8-0.3,2.2-0.9
						s0.7-1.6,0.7-2.8v-0.4c0-1.4-0.2-2.4-0.6-3.2c-0.4-0.7-1.2-1.1-2.4-1.1c-0.8,0-1.5,0.4-2,1.1c-0.5,0.7-0.7,1.8-0.7,3.2
						s0.2,2.4,0.7,3.1C1364.8,1382.8,1365.5,1383.2,1366.4,1383.2z"/>
					<path class="st4" d="M1382.8,1371.6c2,0,3.5,0.6,4.7,1.7s1.7,2.7,1.7,4.8v1.9h-9.2c0,1.1,0.4,2,1,2.6c0.6,0.6,1.5,0.9,2.6,0.9
						c0.9,0,1.7-0.1,2.5-0.3c0.8-0.2,1.5-0.5,2.3-0.8v3c-0.7,0.3-1.4,0.6-2.2,0.8c-0.8,0.2-1.7,0.2-2.8,0.2c-1.4,0-2.7-0.3-3.8-0.8
						c-1.1-0.5-1.9-1.3-2.6-2.4c-0.6-1.1-0.9-2.4-0.9-4.1c0-1.6,0.3-3,0.8-4.1c0.6-1.1,1.3-1.9,2.4-2.5
						C1380.3,1371.8,1381.5,1371.6,1382.8,1371.6z M1382.8,1374.3c-0.8,0-1.4,0.2-1.9,0.7s-0.8,1.2-0.9,2.3h5.4
						c0-0.8-0.2-1.6-0.7-2.1S1383.7,1374.3,1382.8,1374.3z"/>
					<path class="st4" d="M1395.2,1386l-5.4-14.2h4.1l2.7,8.1c0.2,0.5,0.3,1,0.4,1.5c0.1,0.5,0.1,1,0.2,1.4h0.1
						c0.1-0.9,0.2-1.9,0.6-2.9l2.7-8.1h4.1l-5.4,14.2H1395.2z"/>
					<path class="st4" d="M1412.5,1371.6c2,0,3.5,0.6,4.7,1.7c1.1,1.1,1.7,2.7,1.7,4.8v1.9h-9.2c0,1.1,0.4,2,1,2.6
						c0.6,0.6,1.5,0.9,2.6,0.9c0.9,0,1.7-0.1,2.5-0.3c0.8-0.2,1.5-0.5,2.3-0.8v3c-0.7,0.3-1.4,0.6-2.2,0.8c-0.8,0.2-1.7,0.2-2.8,0.2
						c-1.4,0-2.7-0.3-3.8-0.8c-1.1-0.5-2-1.3-2.6-2.4c-0.6-1.1-0.9-2.4-0.9-4.1c0-1.6,0.3-3,0.8-4.1c0.6-1.1,1.3-1.9,2.4-2.5
						C1410,1371.8,1411.1,1371.6,1412.5,1371.6z M1412.5,1374.3c-0.8,0-1.4,0.2-1.9,0.7c-0.5,0.5-0.8,1.2-0.9,2.3h5.4
						c0-0.8-0.2-1.6-0.7-2.1S1413.4,1374.3,1412.5,1374.3z"/>
					<path class="st4" d="M1434.6,1371.6c2,0,3.5,0.6,4.7,1.7c1.1,1.1,1.7,2.7,1.7,4.8v1.9h-9.2c0,1.1,0.4,2,1,2.6
						c0.6,0.6,1.5,0.9,2.6,0.9c0.9,0,1.7-0.1,2.5-0.3c0.8-0.2,1.5-0.5,2.3-0.8v3c-0.7,0.3-1.4,0.6-2.2,0.8c-0.8,0.2-1.7,0.2-2.8,0.2
						c-1.4,0-2.7-0.3-3.8-0.8c-1.1-0.5-2-1.3-2.6-2.4c-0.6-1.1-0.9-2.4-0.9-4.1c0-1.6,0.3-3,0.8-4.1s1.3-1.9,2.4-2.5
						S1433.3,1371.6,1434.6,1371.6z M1434.6,1374.3c-0.8,0-1.4,0.2-1.9,0.7s-0.8,1.2-0.9,2.3h5.4c0-0.8-0.2-1.6-0.7-2.1
						C1436.2,1374.6,1435.5,1374.3,1434.6,1374.3z"/>
					<path class="st4" d="M1454,1381.8c0,1.4-0.5,2.5-1.5,3.3c-1,0.8-2.5,1.2-4.5,1.2c-1,0-1.8-0.1-2.5-0.2
						c-0.7-0.1-1.4-0.3-2.1-0.6v-3.2c0.8,0.3,1.6,0.6,2.5,0.9c0.9,0.2,1.7,0.3,2.3,0.3c0.7,0,1.3-0.1,1.6-0.3
						c0.3-0.2,0.5-0.5,0.5-0.9c0-0.2-0.1-0.5-0.2-0.7c-0.1-0.2-0.4-0.4-0.8-0.6c-0.4-0.2-1.1-0.6-2-0.9c-0.9-0.4-1.6-0.8-2.2-1.1
						c-0.6-0.4-1-0.8-1.3-1.4c-0.3-0.5-0.4-1.2-0.4-2c0-1.3,0.5-2.3,1.5-3s2.4-1,4.1-1c0.9,0,1.7,0.1,2.5,0.3
						c0.8,0.2,1.6,0.5,2.5,0.9l-1.2,2.8c-0.7-0.3-1.4-0.5-2-0.7s-1.3-0.3-1.9-0.3c-1.1,0-1.7,0.3-1.7,0.9c0,0.2,0.1,0.4,0.2,0.6
						c0.1,0.2,0.4,0.4,0.9,0.6c0.4,0.2,1.1,0.5,1.9,0.8c0.8,0.3,1.5,0.7,2.1,1c0.6,0.4,1,0.8,1.4,1.3
						C1453.8,1380.3,1454,1381,1454,1381.8z"/>
					<path class="st4" d="M1466.9,1381.8c0,1.4-0.5,2.5-1.5,3.3c-1,0.8-2.5,1.2-4.5,1.2c-1,0-1.8-0.1-2.5-0.2
						c-0.7-0.1-1.4-0.3-2.1-0.6v-3.2c0.8,0.3,1.6,0.6,2.5,0.9c0.9,0.2,1.7,0.3,2.3,0.3c0.7,0,1.3-0.1,1.6-0.3
						c0.3-0.2,0.5-0.5,0.5-0.9c0-0.2-0.1-0.5-0.2-0.7c-0.1-0.2-0.4-0.4-0.8-0.6c-0.4-0.2-1.1-0.6-2-0.9c-0.9-0.4-1.6-0.8-2.2-1.1
						c-0.6-0.4-1-0.8-1.3-1.4c-0.3-0.5-0.4-1.2-0.4-2c0-1.3,0.5-2.3,1.5-3s2.4-1,4.1-1c0.9,0,1.7,0.1,2.5,0.3
						c0.8,0.2,1.6,0.5,2.5,0.9l-1.2,2.8c-0.7-0.3-1.4-0.5-2-0.7s-1.3-0.3-1.9-0.3c-1.1,0-1.7,0.3-1.7,0.9c0,0.2,0.1,0.4,0.2,0.6
						c0.1,0.2,0.4,0.4,0.9,0.6c0.4,0.2,1.1,0.5,1.9,0.8c0.8,0.3,1.5,0.7,2.1,1c0.6,0.4,1,0.8,1.4,1.3
						C1466.8,1380.3,1466.9,1381,1466.9,1381.8z"/>
					<path class="st4" d="M1475.8,1371.6c2,0,3.5,0.6,4.7,1.7c1.1,1.1,1.7,2.7,1.7,4.8v1.9h-9.2c0,1.1,0.4,2,1,2.6
						c0.6,0.6,1.5,0.9,2.6,0.9c0.9,0,1.7-0.1,2.5-0.3c0.8-0.2,1.5-0.5,2.3-0.8v3c-0.7,0.3-1.4,0.6-2.2,0.8c-0.8,0.2-1.7,0.2-2.8,0.2
						c-1.4,0-2.7-0.3-3.8-0.8c-1.1-0.5-1.9-1.3-2.6-2.4c-0.6-1.1-0.9-2.4-0.9-4.1c0-1.6,0.3-3,0.8-4.1s1.3-1.9,2.4-2.5
						C1473.3,1371.8,1474.5,1371.6,1475.8,1371.6z M1475.8,1374.3c-0.8,0-1.4,0.2-1.9,0.7c-0.5,0.5-0.8,1.2-0.9,2.3h5.4
						c0-0.8-0.2-1.6-0.7-2.1S1476.7,1374.3,1475.8,1374.3z"/>
					<path class="st4" d="M1493.2,1371.6c0.2,0,0.4,0,0.7,0s0.5,0,0.6,0.1l-0.3,3.6c-0.1,0-0.3-0.1-0.5-0.1c-0.2,0-0.4,0-0.6,0
						c-0.7,0-1.3,0.1-1.9,0.4c-0.6,0.2-1.1,0.6-1.5,1.1c-0.4,0.5-0.6,1.2-0.6,2.1v7.2h-3.9v-14.2h2.9l0.6,2.4h0.2
						c0.4-0.7,1-1.4,1.7-1.9C1491.4,1371.8,1492.3,1371.6,1493.2,1371.6z"/>
					<path class="st4" d="M1502.4,1371.6c2,0,3.5,0.6,4.7,1.7c1.1,1.1,1.7,2.7,1.7,4.8v1.9h-9.2c0,1.1,0.4,2,1,2.6
						c0.6,0.6,1.5,0.9,2.6,0.9c0.9,0,1.7-0.1,2.5-0.3c0.8-0.2,1.5-0.5,2.3-0.8v3c-0.7,0.3-1.4,0.6-2.2,0.8c-0.8,0.2-1.7,0.2-2.8,0.2
						c-1.4,0-2.7-0.3-3.8-0.8c-1.1-0.5-1.9-1.3-2.6-2.4c-0.6-1.1-0.9-2.4-0.9-4.1c0-1.6,0.3-3,0.8-4.1s1.3-1.9,2.4-2.5
						C1499.9,1371.8,1501.1,1371.6,1502.4,1371.6z M1502.5,1374.3c-0.8,0-1.4,0.2-1.9,0.7c-0.5,0.5-0.8,1.2-0.9,2.3h5.4
						c0-0.8-0.2-1.6-0.7-2.1S1503.4,1374.3,1502.5,1374.3z"/>
				</g>
				<g class="st3">
					<path class="st4" d="M1179,1426.3v-6c0-0.7,0.1-1.4,0.2-2.1h-0.2c-0.4,0.6-0.9,1.1-1.5,1.5c-0.6,0.4-1.5,0.6-2.5,0.6
						c-1.6,0-2.9-0.6-3.9-1.9c-1-1.2-1.5-3.1-1.5-5.5c0-2.4,0.5-4.3,1.5-5.5c1-1.2,2.3-1.9,3.9-1.9c1,0,1.9,0.2,2.5,0.6
						c0.6,0.4,1.2,0.9,1.6,1.5h0.1l0.3-1.8h3.3v20.4H1179z M1176.4,1417.2c1.1,0,1.8-0.3,2.2-0.9c0.4-0.6,0.6-1.6,0.7-2.8v-0.5
						c0-1.4-0.2-2.4-0.6-3.2c-0.4-0.7-1.2-1.1-2.3-1.1c-0.9,0-1.6,0.4-2.1,1.1c-0.5,0.7-0.7,1.8-0.7,3.2
						C1173.6,1415.8,1174.5,1417.2,1176.4,1417.2z"/>
					<path class="st4" d="M1200,1405.8v14.2h-3l-0.5-1.8h-0.2c-0.5,0.7-1.1,1.3-1.9,1.6c-0.8,0.3-1.6,0.5-2.5,0.5
						c-1.5,0-2.7-0.4-3.7-1.2c-0.9-0.8-1.4-2.1-1.4-4v-9.3h3.9v8.3c0,1,0.2,1.8,0.5,2.3c0.4,0.5,0.9,0.8,1.7,0.8
						c1.2,0,2-0.4,2.4-1.2s0.7-2,0.7-3.5v-6.7H1200z"/>
					<path class="st4" d="M1209.9,1405.6c2,0,3.5,0.6,4.7,1.7c1.1,1.1,1.7,2.7,1.7,4.8v1.9h-9.2c0,1.1,0.4,2,1,2.6
						c0.6,0.6,1.5,0.9,2.6,0.9c0.9,0,1.7-0.1,2.5-0.3c0.8-0.2,1.5-0.5,2.3-0.8v3c-0.7,0.3-1.4,0.6-2.2,0.8c-0.8,0.2-1.7,0.2-2.8,0.2
						c-1.4,0-2.7-0.3-3.8-0.8c-1.1-0.5-2-1.3-2.6-2.4c-0.6-1.1-0.9-2.4-0.9-4.1c0-1.6,0.3-3,0.8-4.1c0.6-1.1,1.3-1.9,2.4-2.5
						C1207.4,1405.8,1208.6,1405.6,1209.9,1405.6z M1209.9,1408.3c-0.8,0-1.4,0.2-1.9,0.7c-0.5,0.5-0.8,1.2-0.9,2.3h5.4
						c0-0.8-0.2-1.6-0.7-2.1S1210.8,1408.3,1209.9,1408.3z"/>
					<path class="st4" d="M1229.3,1415.8c0,1.4-0.5,2.5-1.5,3.3c-1,0.8-2.5,1.2-4.5,1.2c-1,0-1.8-0.1-2.5-0.2
						c-0.7-0.1-1.4-0.3-2.1-0.6v-3.2c0.8,0.3,1.6,0.6,2.5,0.9c0.9,0.2,1.7,0.3,2.3,0.3c0.7,0,1.3-0.1,1.6-0.3
						c0.3-0.2,0.5-0.5,0.5-0.9c0-0.2-0.1-0.5-0.2-0.7c-0.1-0.2-0.4-0.4-0.8-0.6c-0.4-0.2-1.1-0.6-2-0.9c-0.9-0.4-1.6-0.8-2.2-1.1
						c-0.6-0.4-1-0.8-1.3-1.4c-0.3-0.5-0.4-1.2-0.4-2c0-1.3,0.5-2.3,1.5-3c1-0.7,2.4-1,4.1-1c0.9,0,1.7,0.1,2.5,0.3
						c0.8,0.2,1.6,0.5,2.5,0.9l-1.2,2.8c-0.7-0.3-1.4-0.5-2-0.7s-1.3-0.3-1.9-0.3c-1.1,0-1.7,0.3-1.7,0.9c0,0.2,0.1,0.4,0.2,0.6
						c0.1,0.2,0.4,0.4,0.9,0.6c0.4,0.2,1.1,0.5,1.9,0.8c0.8,0.3,1.5,0.7,2.1,1c0.6,0.4,1,0.8,1.4,1.3
						C1229.2,1414.3,1229.3,1415,1229.3,1415.8z"/>
					<path class="st4" d="M1238.3,1417.2c0.4,0,0.8,0,1.2-0.1c0.4-0.1,0.8-0.2,1.2-0.3v2.9c-0.4,0.2-0.9,0.3-1.5,0.5s-1.3,0.2-2,0.2
						c-0.8,0-1.6-0.1-2.3-0.4c-0.7-0.3-1.2-0.8-1.6-1.4c-0.4-0.7-0.6-1.6-0.6-2.9v-6.8h-1.8v-1.6l2.1-1.3l1.1-3h2.5v3h4v2.9h-4v6.8
						c0,0.5,0.2,0.9,0.5,1.2C1237.4,1417.1,1237.8,1417.2,1238.3,1417.2z"/>
					<path class="st4" d="M1256.5,1412.9c0,2.4-0.6,4.2-1.9,5.5c-1.2,1.3-2.9,1.9-5.1,1.9c-1.3,0-2.5-0.3-3.5-0.9
						c-1-0.6-1.8-1.4-2.4-2.5c-0.6-1.1-0.9-2.4-0.9-4c0-2.4,0.6-4.2,1.8-5.4c1.2-1.3,2.9-1.9,5.1-1.9c1.3,0,2.5,0.3,3.5,0.9
						c1,0.6,1.8,1.4,2.4,2.5C1256.2,1410,1256.5,1411.3,1256.5,1412.9z M1246.7,1412.9c0,1.4,0.2,2.5,0.7,3.2
						c0.5,0.7,1.2,1.1,2.2,1.1c1,0,1.8-0.4,2.2-1.1c0.5-0.7,0.7-1.8,0.7-3.2s-0.2-2.5-0.7-3.2c-0.5-0.7-1.2-1.1-2.2-1.1
						c-1,0-1.8,0.4-2.2,1.1C1246.9,1410.4,1246.7,1411.5,1246.7,1412.9z"/>
					<path class="st4" d="M1259.2,1407.7c0-0.8,0.2-1.4,0.6-1.7c0.4-0.3,1-0.5,1.6-0.5c0.6,0,1.1,0.2,1.6,0.5
						c0.4,0.3,0.7,0.9,0.7,1.7c0,0.8-0.2,1.3-0.7,1.7c-0.4,0.3-1,0.5-1.6,0.5c-0.6,0-1.2-0.2-1.6-0.5
						C1259.4,1409,1259.2,1408.5,1259.2,1407.7z M1259.2,1418.2c0-0.8,0.2-1.4,0.6-1.7c0.4-0.3,1-0.5,1.6-0.5c0.6,0,1.1,0.2,1.6,0.5
						c0.4,0.3,0.7,0.9,0.7,1.7c0,0.8-0.2,1.3-0.7,1.7s-1,0.5-1.6,0.5c-0.6,0-1.2-0.2-1.6-0.5S1259.2,1419,1259.2,1418.2z"/>
					<path class="st4" d="M1283.8,1415.8c0,1.4-0.5,2.5-1.5,3.3c-1,0.8-2.5,1.2-4.5,1.2c-1,0-1.8-0.1-2.5-0.2
						c-0.7-0.1-1.4-0.3-2.1-0.6v-3.2c0.8,0.3,1.6,0.6,2.5,0.9c0.9,0.2,1.7,0.3,2.3,0.3c0.7,0,1.3-0.1,1.6-0.3
						c0.3-0.2,0.5-0.5,0.5-0.9c0-0.2-0.1-0.5-0.2-0.7c-0.1-0.2-0.4-0.4-0.8-0.6c-0.4-0.2-1.1-0.6-2-0.9c-0.9-0.4-1.6-0.8-2.2-1.1
						c-0.6-0.4-1-0.8-1.3-1.4c-0.3-0.5-0.4-1.2-0.4-2c0-1.3,0.5-2.3,1.5-3c1-0.7,2.4-1,4.1-1c0.9,0,1.7,0.1,2.5,0.3
						c0.8,0.2,1.6,0.5,2.5,0.9l-1.2,2.8c-0.7-0.3-1.4-0.5-2-0.7s-1.3-0.3-1.9-0.3c-1.1,0-1.7,0.3-1.7,0.9c0,0.2,0.1,0.4,0.2,0.6
						c0.1,0.2,0.4,0.4,0.9,0.6c0.4,0.2,1.1,0.5,1.9,0.8c0.8,0.3,1.5,0.7,2.1,1c0.6,0.4,1,0.8,1.4,1.3
						C1283.6,1414.3,1283.8,1415,1283.8,1415.8z"/>
					<path class="st4" d="M1288.8,1400.3c0.6,0,1.1,0.1,1.5,0.4c0.4,0.3,0.6,0.8,0.6,1.5c0,0.7-0.2,1.2-0.6,1.5s-0.9,0.4-1.5,0.4
						c-0.6,0-1.1-0.1-1.5-0.4s-0.6-0.8-0.6-1.5c0-0.7,0.2-1.2,0.6-1.5C1287.7,1400.4,1288.2,1400.3,1288.8,1400.3z M1290.7,1405.8
						v14.2h-3.9v-14.2H1290.7z"/>
					<path class="st4" d="M1300.6,1405.5c1.9,0,3.4,0.4,4.4,1.2c1,0.8,1.5,2.1,1.5,3.8v9.5h-2.7l-0.8-1.9h-0.1
						c-0.6,0.8-1.2,1.3-1.9,1.7c-0.7,0.3-1.6,0.5-2.8,0.5c-1.3,0-2.3-0.4-3.1-1.1c-0.8-0.7-1.2-1.9-1.2-3.4c0-1.5,0.5-2.6,1.6-3.3
						c1.1-0.7,2.6-1.1,4.8-1.2l2.5-0.1v-0.6c0-0.7-0.2-1.3-0.6-1.6c-0.4-0.3-0.9-0.5-1.6-0.5s-1.4,0.1-2,0.3c-0.7,0.2-1.3,0.4-2,0.7
						l-1.3-2.6c0.7-0.4,1.6-0.7,2.5-0.9C1298.6,1405.7,1299.6,1405.5,1300.6,1405.5z M1302.6,1413.4l-1.5,0.1
						c-1.2,0-2.1,0.3-2.6,0.7s-0.7,1-0.7,1.6c0,0.6,0.2,1,0.5,1.3c0.3,0.3,0.8,0.4,1.4,0.4c0.8,0,1.5-0.2,2.1-0.7
						c0.6-0.5,0.9-1.2,0.9-2.1V1413.4z"/>
					<path class="st4" d="M1327.1,1405.6c1.6,0,2.8,0.4,3.7,1.2c0.8,0.8,1.2,2.1,1.2,4v9.3h-3.9v-8.3c0-2-0.7-3.1-2.1-3.1
						c-1,0-1.8,0.4-2.2,1.1c-0.4,0.7-0.6,1.8-0.6,3.1v7.1h-3.9v-8.3c0-2-0.7-3.1-2.1-3.1c-1.1,0-1.8,0.4-2.2,1.2
						c-0.4,0.8-0.6,2-0.6,3.5v6.7h-3.9v-14.2h3l0.5,1.8h0.2c0.4-0.7,1-1.3,1.8-1.6s1.5-0.5,2.4-0.5c1,0,1.9,0.2,2.6,0.5
						c0.7,0.3,1.3,0.9,1.7,1.6h0.3c0.4-0.7,1-1.3,1.8-1.6C1325.5,1405.7,1326.3,1405.6,1327.1,1405.6z"/>
					<path class="st4" d="M1348.9,1412.9c0,2.4-0.6,4.2-1.9,5.5c-1.2,1.3-2.9,1.9-5.1,1.9c-1.3,0-2.5-0.3-3.5-0.9
						c-1-0.6-1.8-1.4-2.4-2.5c-0.6-1.1-0.9-2.4-0.9-4c0-2.4,0.6-4.2,1.8-5.4c1.2-1.3,2.9-1.9,5.1-1.9c1.3,0,2.5,0.3,3.5,0.9
						c1,0.6,1.8,1.4,2.4,2.5C1348.6,1410,1348.9,1411.3,1348.9,1412.9z M1339.1,1412.9c0,1.4,0.2,2.5,0.7,3.2
						c0.5,0.7,1.2,1.1,2.2,1.1c1,0,1.8-0.4,2.2-1.1c0.5-0.7,0.7-1.8,0.7-3.2s-0.2-2.5-0.7-3.2c-0.5-0.7-1.2-1.1-2.2-1.1
						c-1,0-1.8,0.4-2.2,1.1C1339.3,1410.4,1339.1,1411.5,1339.1,1412.9z"/>
					<path class="st4" d="M1366.8,1405.6c0.2,0,0.4,0,0.7,0s0.5,0,0.6,0.1l-0.3,3.6c-0.1,0-0.3-0.1-0.5-0.1c-0.2,0-0.4,0-0.6,0
						c-0.7,0-1.3,0.1-1.9,0.4c-0.6,0.2-1.1,0.6-1.5,1.1c-0.4,0.5-0.6,1.2-0.6,2.1v7.2h-3.9v-14.2h2.9l0.6,2.4h0.2
						c0.4-0.7,1-1.4,1.7-1.9C1365,1405.8,1365.8,1405.6,1366.8,1405.6z"/>
					<path class="st4" d="M1376,1405.6c2,0,3.5,0.6,4.7,1.7c1.1,1.1,1.7,2.7,1.7,4.8v1.9h-9.2c0,1.1,0.4,2,1,2.6
						c0.6,0.6,1.5,0.9,2.6,0.9c0.9,0,1.7-0.1,2.5-0.3c0.8-0.2,1.5-0.5,2.3-0.8v3c-0.7,0.3-1.4,0.6-2.2,0.8c-0.8,0.2-1.7,0.2-2.8,0.2
						c-1.4,0-2.7-0.3-3.8-0.8c-1.1-0.5-2-1.3-2.6-2.4c-0.6-1.1-0.9-2.4-0.9-4.1c0-1.6,0.3-3,0.8-4.1s1.3-1.9,2.4-2.5
						S1374.6,1405.6,1376,1405.6z M1376,1408.3c-0.8,0-1.4,0.2-1.9,0.7s-0.8,1.2-0.9,2.3h5.4c0-0.8-0.2-1.6-0.7-2.1
						C1377.6,1408.6,1376.9,1408.3,1376,1408.3z"/>
					<path class="st4" d="M1395.4,1415.8c0,1.4-0.5,2.5-1.5,3.3c-1,0.8-2.5,1.2-4.5,1.2c-1,0-1.8-0.1-2.5-0.2
						c-0.7-0.1-1.4-0.3-2.1-0.6v-3.2c0.8,0.3,1.6,0.6,2.5,0.9c0.9,0.2,1.7,0.3,2.3,0.3c0.7,0,1.3-0.1,1.6-0.3
						c0.3-0.2,0.5-0.5,0.5-0.9c0-0.2-0.1-0.5-0.2-0.7c-0.1-0.2-0.4-0.4-0.8-0.6c-0.4-0.2-1.1-0.6-2-0.9c-0.9-0.4-1.6-0.8-2.2-1.1
						c-0.6-0.4-1-0.8-1.3-1.4c-0.3-0.5-0.4-1.2-0.4-2c0-1.3,0.5-2.3,1.5-3s2.4-1,4.1-1c0.9,0,1.7,0.1,2.5,0.3
						c0.8,0.2,1.6,0.5,2.5,0.9l-1.2,2.8c-0.7-0.3-1.4-0.5-2-0.7s-1.3-0.3-1.9-0.3c-1.1,0-1.7,0.3-1.7,0.9c0,0.2,0.1,0.4,0.2,0.6
						c0.1,0.2,0.4,0.4,0.9,0.6c0.4,0.2,1.1,0.5,1.9,0.8c0.8,0.3,1.5,0.7,2.1,1c0.6,0.4,1,0.8,1.4,1.3
						C1395.2,1414.3,1395.4,1415,1395.4,1415.8z"/>
					<path class="st4" d="M1406.3,1405.6c1.6,0,2.9,0.6,3.9,1.9c1,1.2,1.5,3.1,1.5,5.5c0,2.4-0.5,4.3-1.5,5.5
						c-1,1.2-2.3,1.9-3.9,1.9c-1,0-1.8-0.2-2.4-0.6c-0.6-0.4-1.1-0.8-1.5-1.3h-0.2c0.1,0.7,0.2,1.4,0.2,2.1v5.7h-3.9v-20.4h3.1
						l0.5,1.8h0.2c0.4-0.6,0.9-1.1,1.5-1.5C1404.4,1405.8,1405.3,1405.6,1406.3,1405.6z M1405.1,1408.7c-1,0-1.7,0.3-2.1,0.9
						c-0.4,0.6-0.6,1.6-0.6,2.8v0.4c0,1.4,0.2,2.4,0.6,3.2c0.4,0.7,1.1,1.1,2.2,1.1c0.9,0,1.5-0.4,2-1.1c0.4-0.7,0.6-1.8,0.6-3.2
						C1407.7,1410.1,1406.8,1408.7,1405.1,1408.7z"/>
					<path class="st4" d="M1427.8,1412.9c0,2.4-0.6,4.2-1.9,5.5c-1.2,1.3-2.9,1.9-5.1,1.9c-1.3,0-2.5-0.3-3.5-0.9
						c-1-0.6-1.8-1.4-2.4-2.5c-0.6-1.1-0.9-2.4-0.9-4c0-2.4,0.6-4.2,1.8-5.4c1.2-1.3,2.9-1.9,5.1-1.9c1.3,0,2.5,0.3,3.5,0.9
						c1,0.6,1.8,1.4,2.4,2.5C1427.5,1410,1427.8,1411.3,1427.8,1412.9z M1417.9,1412.9c0,1.4,0.2,2.5,0.7,3.2
						c0.5,0.7,1.2,1.1,2.2,1.1c1,0,1.8-0.4,2.2-1.1c0.5-0.7,0.7-1.8,0.7-3.2s-0.2-2.5-0.7-3.2c-0.5-0.7-1.2-1.1-2.2-1.1
						c-1,0-1.8,0.4-2.2,1.1C1418.2,1410.4,1417.9,1411.5,1417.9,1412.9z"/>
					<path class="st4" d="M1439,1405.6c1.5,0,2.7,0.4,3.7,1.2s1.4,2.1,1.4,4v9.3h-3.9v-8.3c0-1-0.2-1.8-0.5-2.3
						c-0.4-0.5-0.9-0.8-1.7-0.8c-1.2,0-2,0.4-2.4,1.2c-0.4,0.8-0.7,2-0.7,3.5v6.7h-3.9v-14.2h3l0.5,1.8h0.2c0.5-0.7,1.1-1.3,1.9-1.6
						S1438.1,1405.6,1439,1405.6z"/>
					<path class="st4" d="M1457.9,1415.8c0,1.4-0.5,2.5-1.5,3.3c-1,0.8-2.5,1.2-4.5,1.2c-1,0-1.8-0.1-2.5-0.2
						c-0.7-0.1-1.4-0.3-2.1-0.6v-3.2c0.8,0.3,1.6,0.6,2.5,0.9c0.9,0.2,1.7,0.3,2.3,0.3c0.7,0,1.3-0.1,1.6-0.3
						c0.3-0.2,0.5-0.5,0.5-0.9c0-0.2-0.1-0.5-0.2-0.7c-0.1-0.2-0.4-0.4-0.8-0.6c-0.4-0.2-1.1-0.6-2-0.9c-0.9-0.4-1.6-0.8-2.2-1.1
						c-0.6-0.4-1-0.8-1.3-1.4c-0.3-0.5-0.4-1.2-0.4-2c0-1.3,0.5-2.3,1.5-3c1-0.7,2.4-1,4.1-1c0.9,0,1.7,0.1,2.5,0.3
						c0.8,0.2,1.6,0.5,2.5,0.9l-1.2,2.8c-0.7-0.3-1.4-0.5-2-0.7s-1.3-0.3-1.9-0.3c-1.1,0-1.7,0.3-1.7,0.9c0,0.2,0.1,0.4,0.2,0.6
						c0.1,0.2,0.4,0.4,0.9,0.6s1.1,0.5,1.9,0.8c0.8,0.3,1.5,0.7,2.1,1c0.6,0.4,1,0.8,1.4,1.3
						C1457.8,1414.3,1457.9,1415,1457.9,1415.8z"/>
					<path class="st4" d="M1466.8,1405.5c1.9,0,3.4,0.4,4.4,1.2c1,0.8,1.5,2.1,1.5,3.8v9.5h-2.7l-0.8-1.9h-0.1
						c-0.6,0.8-1.2,1.3-1.9,1.7c-0.7,0.3-1.6,0.5-2.8,0.5c-1.3,0-2.3-0.4-3.1-1.1c-0.8-0.7-1.2-1.9-1.2-3.4c0-1.5,0.5-2.6,1.6-3.3
						c1.1-0.7,2.6-1.1,4.8-1.2l2.5-0.1v-0.6c0-0.7-0.2-1.3-0.6-1.6c-0.4-0.3-0.9-0.5-1.6-0.5c-0.7,0-1.4,0.1-2,0.3
						c-0.7,0.2-1.3,0.4-2,0.7l-1.3-2.6c0.7-0.4,1.6-0.7,2.5-0.9C1464.8,1405.7,1465.8,1405.5,1466.8,1405.5z M1468.8,1413.4
						l-1.5,0.1c-1.2,0-2.1,0.3-2.6,0.7s-0.7,1-0.7,1.6c0,0.6,0.2,1,0.5,1.3c0.3,0.3,0.8,0.4,1.4,0.4c0.8,0,1.5-0.2,2.1-0.7
						c0.6-0.5,0.9-1.2,0.9-2.1V1413.4z"/>
					<path class="st4" d="M1480.5,1400.3v4.6c0,0.5,0,1.1-0.1,1.6c0,0.5-0.1,0.9-0.1,1.2h0.2c0.4-0.6,0.9-1.1,1.5-1.5
						c0.6-0.4,1.5-0.6,2.5-0.6c1.6,0,2.9,0.6,3.9,1.9c1,1.2,1.5,3.1,1.5,5.5c0,2.4-0.5,4.3-1.5,5.5c-1,1.2-2.3,1.9-4,1.9
						c-1,0-1.9-0.2-2.5-0.6c-0.6-0.4-1.1-0.8-1.5-1.3h-0.3l-0.6,1.6h-3v-19.8H1480.5z M1483.3,1408.7c-1,0-1.7,0.3-2.1,0.9
						s-0.6,1.6-0.6,2.8v0.4c0,1.4,0.2,2.4,0.6,3.2c0.4,0.7,1.1,1.1,2.2,1.1c0.8,0,1.4-0.4,1.9-1.1c0.5-0.7,0.7-1.8,0.7-3.2
						s-0.2-2.4-0.7-3.1C1484.8,1409,1484.1,1408.7,1483.3,1408.7z"/>
					<path class="st4" d="M1495.1,1400.3c0.6,0,1.1,0.1,1.5,0.4c0.4,0.3,0.6,0.8,0.6,1.5c0,0.7-0.2,1.2-0.6,1.5s-0.9,0.4-1.5,0.4
						c-0.6,0-1.1-0.1-1.5-0.4c-0.4-0.3-0.6-0.8-0.6-1.5c0-0.7,0.2-1.2,0.6-1.5C1494,1400.4,1494.5,1400.3,1495.1,1400.3z
						 M1497,1405.8v14.2h-3.9v-14.2H1497z"/>
					<path class="st4" d="M1504.9,1420h-3.9v-19.8h3.9V1420z"/>
					<path class="st4" d="M1510.9,1400.3c0.6,0,1.1,0.1,1.5,0.4c0.4,0.3,0.6,0.8,0.6,1.5c0,0.7-0.2,1.2-0.6,1.5s-0.9,0.4-1.5,0.4
						c-0.6,0-1.1-0.1-1.5-0.4c-0.4-0.3-0.6-0.8-0.6-1.5c0-0.7,0.2-1.2,0.6-1.5C1509.8,1400.4,1510.3,1400.3,1510.9,1400.3z
						 M1512.8,1405.8v14.2h-3.9v-14.2H1512.8z"/>
				</g>
				<g class="st3">
					<path class="st4" d="M1176.3,1439.5c1.9,0,3.4,0.4,4.4,1.2c1,0.8,1.5,2.1,1.5,3.8v9.5h-2.7l-0.8-1.9h-0.1
						c-0.6,0.8-1.2,1.3-1.9,1.7c-0.7,0.3-1.6,0.5-2.8,0.5c-1.3,0-2.3-0.4-3.1-1.1c-0.8-0.7-1.2-1.9-1.2-3.4c0-1.5,0.5-2.6,1.6-3.3
						c1.1-0.7,2.6-1.1,4.8-1.2l2.5-0.1v-0.6c0-0.7-0.2-1.3-0.6-1.6c-0.4-0.3-0.9-0.5-1.6-0.5s-1.4,0.1-2,0.3c-0.7,0.2-1.3,0.4-2,0.7
						l-1.3-2.6c0.7-0.4,1.6-0.7,2.5-0.9C1174.4,1439.7,1175.3,1439.5,1176.3,1439.5z M1178.4,1447.4l-1.5,0.1
						c-1.2,0-2.1,0.3-2.6,0.7s-0.7,1-0.7,1.6c0,0.6,0.2,1,0.5,1.3c0.3,0.3,0.8,0.4,1.4,0.4c0.8,0,1.5-0.2,2.1-0.7
						c0.6-0.5,0.9-1.2,0.9-2.1V1447.4z"/>
					<path class="st4" d="M1190.7,1454.3c-1.6,0-2.9-0.6-3.9-1.9c-1-1.2-1.5-3.1-1.5-5.5c0-2.4,0.5-4.3,1.5-5.5c1-1.2,2.3-1.9,4-1.9
						c1,0,1.9,0.2,2.5,0.6c0.7,0.4,1.2,0.9,1.6,1.5h0.1c-0.1-0.3-0.1-0.7-0.2-1.2c-0.1-0.5-0.1-1.1-0.1-1.6v-4.6h3.9v19.8h-3
						l-0.8-1.8h-0.2c-0.4,0.6-0.9,1.1-1.5,1.5C1192.6,1454.1,1191.7,1454.3,1190.7,1454.3z M1192.1,1451.2c1.1,0,1.8-0.3,2.2-0.9
						s0.7-1.6,0.7-2.8v-0.4c0-1.4-0.2-2.4-0.6-3.2c-0.4-0.7-1.2-1.1-2.4-1.1c-0.8,0-1.5,0.4-2,1.1c-0.5,0.7-0.7,1.8-0.7,3.2
						s0.2,2.4,0.7,3.1C1190.5,1450.8,1191.2,1451.2,1192.1,1451.2z"/>
					<path class="st4" d="M1208.5,1439.6c2,0,3.5,0.6,4.7,1.7c1.1,1.1,1.7,2.7,1.7,4.8v1.9h-9.2c0,1.1,0.4,2,1,2.6
						c0.6,0.6,1.5,0.9,2.6,0.9c0.9,0,1.7-0.1,2.5-0.3c0.8-0.2,1.5-0.5,2.3-0.8v3c-0.7,0.3-1.4,0.6-2.2,0.8c-0.8,0.2-1.7,0.2-2.8,0.2
						c-1.4,0-2.7-0.3-3.8-0.8c-1.1-0.5-2-1.3-2.6-2.4c-0.6-1.1-0.9-2.4-0.9-4.1c0-1.6,0.3-3,0.8-4.1c0.6-1.1,1.3-1.9,2.4-2.5
						C1206,1439.8,1207.2,1439.6,1208.5,1439.6z M1208.5,1442.3c-0.8,0-1.4,0.2-1.9,0.7c-0.5,0.5-0.8,1.2-0.9,2.3h5.4
						c0-0.8-0.2-1.6-0.7-2.1S1209.4,1442.3,1208.5,1442.3z"/>
					<path class="st4" d="M1227.9,1449.8c0,1.4-0.5,2.5-1.5,3.3c-1,0.8-2.5,1.2-4.5,1.2c-1,0-1.8-0.1-2.5-0.2
						c-0.7-0.1-1.4-0.3-2.1-0.6v-3.2c0.8,0.3,1.6,0.6,2.5,0.9c0.9,0.2,1.7,0.3,2.3,0.3c0.7,0,1.3-0.1,1.6-0.3
						c0.3-0.2,0.5-0.5,0.5-0.9c0-0.2-0.1-0.5-0.2-0.7c-0.1-0.2-0.4-0.4-0.8-0.6c-0.4-0.2-1.1-0.6-2-0.9c-0.9-0.4-1.6-0.8-2.2-1.1
						c-0.6-0.4-1-0.8-1.3-1.4c-0.3-0.5-0.4-1.2-0.4-2c0-1.3,0.5-2.3,1.5-3c1-0.7,2.4-1,4.1-1c0.9,0,1.7,0.1,2.5,0.3
						c0.8,0.2,1.6,0.5,2.5,0.9l-1.2,2.8c-0.7-0.3-1.4-0.5-2-0.7s-1.3-0.3-1.9-0.3c-1.1,0-1.7,0.3-1.7,0.9c0,0.2,0.1,0.4,0.2,0.6
						c0.1,0.2,0.4,0.4,0.9,0.6c0.4,0.2,1.1,0.5,1.9,0.8c0.8,0.3,1.5,0.7,2.1,1c0.6,0.4,1,0.8,1.4,1.3
						C1227.8,1448.3,1227.9,1449,1227.9,1449.8z"/>
					<path class="st4" d="M1240.9,1449.8c0,1.4-0.5,2.5-1.5,3.3c-1,0.8-2.5,1.2-4.5,1.2c-1,0-1.8-0.1-2.5-0.2
						c-0.7-0.1-1.4-0.3-2.1-0.6v-3.2c0.8,0.3,1.6,0.6,2.5,0.9c0.9,0.2,1.7,0.3,2.3,0.3c0.7,0,1.3-0.1,1.6-0.3
						c0.3-0.2,0.5-0.5,0.5-0.9c0-0.2-0.1-0.5-0.2-0.7c-0.1-0.2-0.4-0.4-0.8-0.6c-0.4-0.2-1.1-0.6-2-0.9c-0.9-0.4-1.6-0.8-2.2-1.1
						c-0.6-0.4-1-0.8-1.3-1.4c-0.3-0.5-0.4-1.2-0.4-2c0-1.3,0.5-2.3,1.5-3c1-0.7,2.4-1,4.1-1c0.9,0,1.7,0.1,2.5,0.3
						c0.8,0.2,1.6,0.5,2.5,0.9l-1.2,2.8c-0.7-0.3-1.4-0.5-2-0.7s-1.3-0.3-1.9-0.3c-1.1,0-1.7,0.3-1.7,0.9c0,0.2,0.1,0.4,0.2,0.6
						c0.1,0.2,0.4,0.4,0.9,0.6c0.4,0.2,1.1,0.5,1.9,0.8c0.8,0.3,1.5,0.7,2.1,1c0.6,0.4,1,0.8,1.4,1.3
						C1240.7,1448.3,1240.9,1449,1240.9,1449.8z"/>
					<path class="st4" d="M1256.8,1446.9c0,2.4-0.6,4.2-1.9,5.5c-1.2,1.3-2.9,1.9-5.1,1.9c-1.3,0-2.5-0.3-3.5-0.9
						c-1-0.6-1.8-1.4-2.4-2.5c-0.6-1.1-0.9-2.4-0.9-4c0-2.4,0.6-4.2,1.8-5.4c1.2-1.3,2.9-1.9,5.1-1.9c1.3,0,2.5,0.3,3.5,0.9
						c1,0.6,1.8,1.4,2.4,2.5C1256.5,1444,1256.8,1445.3,1256.8,1446.9z M1247,1446.9c0,1.4,0.2,2.5,0.7,3.2c0.5,0.7,1.2,1.1,2.2,1.1
						c1,0,1.8-0.4,2.2-1.1c0.5-0.7,0.7-1.8,0.7-3.2s-0.2-2.5-0.7-3.2c-0.5-0.7-1.2-1.1-2.2-1.1c-1,0-1.8,0.4-2.2,1.1
						C1247.2,1444.4,1247,1445.5,1247,1446.9z"/>
					<path class="st4" d="M1274.6,1439.6c1.6,0,2.9,0.6,3.9,1.9c1,1.2,1.5,3.1,1.5,5.5c0,2.4-0.5,4.3-1.5,5.5
						c-1,1.2-2.3,1.9-3.9,1.9c-1,0-1.8-0.2-2.4-0.6c-0.6-0.4-1.1-0.8-1.5-1.3h-0.2c0.1,0.7,0.2,1.4,0.2,2.1v5.7h-3.9v-20.4h3.1
						l0.5,1.8h0.2c0.4-0.6,0.9-1.1,1.5-1.5C1272.8,1439.8,1273.6,1439.6,1274.6,1439.6z M1273.4,1442.7c-1,0-1.7,0.3-2.1,0.9
						c-0.4,0.6-0.6,1.6-0.6,2.8v0.4c0,1.4,0.2,2.4,0.6,3.2c0.4,0.7,1.1,1.1,2.2,1.1c0.9,0,1.5-0.4,2-1.1c0.4-0.7,0.6-1.8,0.6-3.2
						C1276,1444.1,1275.2,1442.7,1273.4,1442.7z"/>
					<path class="st4" d="M1289,1439.6c2,0,3.5,0.6,4.7,1.7c1.1,1.1,1.7,2.7,1.7,4.8v1.9h-9.2c0,1.1,0.4,2,1,2.6
						c0.6,0.6,1.5,0.9,2.6,0.9c0.9,0,1.7-0.1,2.5-0.3c0.8-0.2,1.5-0.5,2.3-0.8v3c-0.7,0.3-1.4,0.6-2.2,0.8c-0.8,0.2-1.7,0.2-2.8,0.2
						c-1.4,0-2.7-0.3-3.8-0.8c-1.1-0.5-2-1.3-2.6-2.4c-0.6-1.1-0.9-2.4-0.9-4.1c0-1.6,0.3-3,0.8-4.1c0.6-1.1,1.3-1.9,2.4-2.5
						C1286.5,1439.8,1287.7,1439.6,1289,1439.6z M1289.1,1442.3c-0.8,0-1.4,0.2-1.9,0.7c-0.5,0.5-0.8,1.2-0.9,2.3h5.4
						c0-0.8-0.2-1.6-0.7-2.1S1290,1442.3,1289.1,1442.3z"/>
					<path class="st4" d="M1306.5,1439.6c0.2,0,0.4,0,0.7,0c0.3,0,0.5,0,0.6,0.1l-0.3,3.6c-0.1,0-0.3-0.1-0.5-0.1
						c-0.2,0-0.4,0-0.6,0c-0.7,0-1.3,0.1-1.9,0.4c-0.6,0.2-1.1,0.6-1.5,1.1c-0.4,0.5-0.6,1.2-0.6,2.1v7.2h-3.9v-14.2h2.9l0.6,2.4
						h0.2c0.4-0.7,1-1.4,1.7-1.9C1304.7,1439.8,1305.5,1439.6,1306.5,1439.6z"/>
					<path class="st4" d="M1322.9,1454.3c-2.1,0-3.7-0.6-4.9-1.7c-1.2-1.2-1.7-3-1.7-5.5c0-1.7,0.3-3.1,0.9-4.2
						c0.6-1.1,1.4-1.9,2.5-2.4c1-0.5,2.3-0.8,3.6-0.8c1,0,1.8,0.1,2.5,0.3s1.3,0.4,1.9,0.7l-1.1,3c-0.6-0.2-1.2-0.4-1.7-0.6
						c-0.5-0.2-1.1-0.2-1.6-0.2c-2,0-3,1.4-3,4.3c0,1.4,0.3,2.5,0.8,3.1c0.5,0.7,1.3,1,2.2,1c0.8,0,1.5-0.1,2.2-0.3s1.2-0.5,1.8-0.9
						v3.3c-0.6,0.4-1.2,0.7-1.9,0.8C1324.7,1454.2,1323.9,1454.3,1322.9,1454.3z"/>
					<path class="st4" d="M1332.4,1434.3c0.6,0,1.1,0.1,1.5,0.4c0.4,0.3,0.6,0.8,0.6,1.5c0,0.7-0.2,1.2-0.6,1.5
						c-0.4,0.3-0.9,0.4-1.5,0.4c-0.6,0-1.1-0.1-1.5-0.4c-0.4-0.3-0.6-0.8-0.6-1.5c0-0.7,0.2-1.2,0.6-1.5
						C1331.3,1434.4,1331.8,1434.3,1332.4,1434.3z M1334.4,1439.8v14.2h-3.9v-14.2H1334.4z"/>
					<path class="st4" d="M1351.3,1446.9c0,2.4-0.6,4.2-1.9,5.5c-1.2,1.3-2.9,1.9-5.1,1.9c-1.3,0-2.5-0.3-3.5-0.9
						c-1-0.6-1.8-1.4-2.4-2.5c-0.6-1.1-0.9-2.4-0.9-4c0-2.4,0.6-4.2,1.8-5.4c1.2-1.3,2.9-1.9,5.1-1.9c1.3,0,2.5,0.3,3.5,0.9
						c1,0.6,1.8,1.4,2.4,2.5C1351,1444,1351.3,1445.3,1351.3,1446.9z M1343.8,1434.1c0.3,0.4,0.6,0.8,0.9,1.3
						c0.4,0.5,0.7,0.9,1.1,1.4c0.4,0.4,0.7,0.8,1,1.2v0.3h-2.6c-0.3-0.2-0.7-0.5-1.2-0.8c-0.4-0.3-0.9-0.7-1.4-1.1
						c-0.5-0.4-0.9-0.7-1.3-1.1c-0.4-0.3-0.7-0.6-1-0.9v-0.3H1343.8z M1341.5,1446.9c0,1.4,0.2,2.5,0.7,3.2c0.5,0.7,1.2,1.1,2.2,1.1
						c1,0,1.8-0.4,2.2-1.1c0.5-0.7,0.7-1.8,0.7-3.2s-0.2-2.5-0.7-3.2c-0.5-0.7-1.2-1.1-2.2-1.1c-1,0-1.8,0.4-2.2,1.1
						C1341.7,1444.4,1341.5,1445.5,1341.5,1446.9z"/>
					<path class="st4" d="M1367,1454.3c-2.1,0-3.7-0.6-4.9-1.7c-1.2-1.2-1.7-3-1.7-5.5c0-1.7,0.3-3.1,0.9-4.2
						c0.6-1.1,1.4-1.9,2.5-2.4c1-0.5,2.3-0.8,3.6-0.8c1,0,1.8,0.1,2.5,0.3s1.3,0.4,1.9,0.7l-1.1,3c-0.6-0.2-1.2-0.4-1.7-0.6
						c-0.5-0.2-1.1-0.2-1.6-0.2c-2,0-3,1.4-3,4.3c0,1.4,0.3,2.5,0.8,3.1c0.5,0.7,1.3,1,2.2,1c0.8,0,1.5-0.1,2.2-0.3s1.2-0.5,1.8-0.9
						v3.3c-0.6,0.4-1.2,0.7-1.9,0.8C1368.8,1454.2,1368,1454.3,1367,1454.3z"/>
					<path class="st4" d="M1378.5,1434.3v4c0,0.7,0,1.4-0.1,2s-0.1,1.1-0.1,1.3h0.2c0.5-0.7,1-1.3,1.7-1.6c0.7-0.3,1.5-0.5,2.4-0.5
						c1.5,0,2.8,0.4,3.7,1.2s1.4,2.1,1.4,4v9.3h-3.9v-8.3c0-2-0.8-3.1-2.3-3.1c-1.2,0-2,0.4-2.4,1.2c-0.4,0.8-0.7,2-0.7,3.5v6.7
						h-3.9v-19.8H1378.5z"/>
					<path class="st4" d="M1397.6,1439.6c2,0,3.5,0.6,4.7,1.7c1.1,1.1,1.7,2.7,1.7,4.8v1.9h-9.2c0,1.1,0.4,2,1,2.6
						c0.6,0.6,1.5,0.9,2.6,0.9c0.9,0,1.7-0.1,2.5-0.3c0.8-0.2,1.5-0.5,2.3-0.8v3c-0.7,0.3-1.4,0.6-2.2,0.8c-0.8,0.2-1.7,0.2-2.8,0.2
						c-1.4,0-2.7-0.3-3.8-0.8c-1.1-0.5-2-1.3-2.6-2.4c-0.6-1.1-0.9-2.4-0.9-4.1c0-1.6,0.3-3,0.8-4.1s1.3-1.9,2.4-2.5
						S1396.2,1439.6,1397.6,1439.6z M1397.6,1442.3c-0.8,0-1.4,0.2-1.9,0.7s-0.8,1.2-0.9,2.3h5.4c0-0.8-0.2-1.6-0.7-2.1
						C1399.2,1442.6,1398.5,1442.3,1397.6,1442.3z"/>
					<path class="st4" d="M1419.7,1439.5c1.9,0,3.4,0.4,4.4,1.2c1,0.8,1.5,2.1,1.5,3.8v9.5h-2.7l-0.8-1.9h-0.1
						c-0.6,0.8-1.2,1.3-1.9,1.7s-1.6,0.5-2.8,0.5c-1.3,0-2.3-0.4-3.1-1.1c-0.8-0.7-1.2-1.9-1.2-3.4c0-1.5,0.5-2.6,1.6-3.3
						c1.1-0.7,2.6-1.1,4.8-1.2l2.5-0.1v-0.6c0-0.7-0.2-1.3-0.6-1.6c-0.4-0.3-0.9-0.5-1.6-0.5s-1.4,0.1-2,0.3c-0.7,0.2-1.3,0.4-2,0.7
						l-1.3-2.6c0.7-0.4,1.6-0.7,2.5-0.9C1417.7,1439.7,1418.7,1439.5,1419.7,1439.5z M1421.7,1447.4l-1.5,0.1
						c-1.2,0-2.1,0.3-2.6,0.7s-0.7,1-0.7,1.6c0,0.6,0.2,1,0.5,1.3c0.3,0.3,0.8,0.4,1.4,0.4c0.8,0,1.5-0.2,2.1-0.7
						c0.6-0.5,0.9-1.2,0.9-2.1V1447.4z"/>
					<path class="st4" d="M1435.3,1454.3c-2.1,0-3.7-0.6-4.9-1.7c-1.2-1.2-1.7-3-1.7-5.5c0-1.7,0.3-3.1,0.9-4.2s1.4-1.9,2.5-2.4
						c1-0.5,2.3-0.8,3.6-0.8c1,0,1.8,0.1,2.5,0.3s1.3,0.4,1.9,0.7l-1.1,3c-0.6-0.2-1.2-0.4-1.7-0.6c-0.5-0.2-1.1-0.2-1.6-0.2
						c-2,0-3,1.4-3,4.3c0,1.4,0.3,2.5,0.8,3.1c0.5,0.7,1.3,1,2.2,1c0.8,0,1.5-0.1,2.2-0.3s1.2-0.5,1.8-0.9v3.3
						c-0.6,0.4-1.2,0.7-1.9,0.8C1437.1,1454.2,1436.3,1454.3,1435.3,1454.3z"/>
					<path class="st4" d="M1448.7,1454.3c-2.1,0-3.7-0.6-4.9-1.7c-1.2-1.2-1.7-3-1.7-5.5c0-1.7,0.3-3.1,0.9-4.2
						c0.6-1.1,1.4-1.9,2.5-2.4c1-0.5,2.3-0.8,3.6-0.8c1,0,1.8,0.1,2.5,0.3c0.7,0.2,1.3,0.4,1.9,0.7l-1.1,3c-0.6-0.2-1.2-0.4-1.7-0.6
						c-0.5-0.2-1.1-0.2-1.6-0.2c-2,0-3,1.4-3,4.3c0,1.4,0.3,2.5,0.8,3.1c0.5,0.7,1.3,1,2.2,1c0.8,0,1.5-0.1,2.2-0.3
						c0.6-0.2,1.2-0.5,1.8-0.9v3.3c-0.6,0.4-1.2,0.7-1.9,0.8C1450.5,1454.2,1449.7,1454.3,1448.7,1454.3z"/>
					<path class="st4" d="M1462.1,1439.5c1.9,0,3.4,0.4,4.4,1.2c1,0.8,1.5,2.1,1.5,3.8v9.5h-2.7l-0.8-1.9h-0.1
						c-0.6,0.8-1.2,1.3-1.9,1.7s-1.6,0.5-2.8,0.5c-1.3,0-2.3-0.4-3.1-1.1c-0.8-0.7-1.2-1.9-1.2-3.4c0-1.5,0.5-2.6,1.6-3.3
						c1.1-0.7,2.6-1.1,4.8-1.2l2.5-0.1v-0.6c0-0.7-0.2-1.3-0.6-1.6c-0.4-0.3-0.9-0.5-1.6-0.5s-1.4,0.1-2,0.3c-0.7,0.2-1.3,0.4-2,0.7
						l-1.3-2.6c0.7-0.4,1.6-0.7,2.5-0.9C1460.1,1439.7,1461.1,1439.5,1462.1,1439.5z M1464.2,1447.4l-1.5,0.1
						c-1.2,0-2.1,0.3-2.6,0.7s-0.7,1-0.7,1.6c0,0.6,0.2,1,0.5,1.3c0.3,0.3,0.8,0.4,1.4,0.4c0.8,0,1.5-0.2,2.1-0.7
						c0.6-0.5,0.9-1.2,0.9-2.1V1447.4z"/>
					<path class="st4" d="M1476.5,1454.3c-1.6,0-2.9-0.6-3.9-1.9c-1-1.2-1.5-3.1-1.5-5.5c0-2.4,0.5-4.3,1.5-5.5s2.3-1.9,4-1.9
						c1,0,1.9,0.2,2.5,0.6c0.7,0.4,1.2,0.9,1.6,1.5h0.1c-0.1-0.3-0.1-0.7-0.2-1.2c-0.1-0.5-0.1-1.1-0.1-1.6v-4.6h3.9v19.8h-3
						l-0.8-1.8h-0.2c-0.4,0.6-0.9,1.1-1.5,1.5C1478.3,1454.1,1477.5,1454.3,1476.5,1454.3z M1477.8,1451.2c1.1,0,1.8-0.3,2.2-0.9
						c0.4-0.6,0.7-1.6,0.7-2.8v-0.4c0-1.4-0.2-2.4-0.6-3.2c-0.4-0.7-1.2-1.1-2.4-1.1c-0.8,0-1.5,0.4-2,1.1c-0.5,0.7-0.7,1.8-0.7,3.2
						s0.2,2.4,0.7,3.1C1476.3,1450.8,1476.9,1451.2,1477.8,1451.2z"/>
					<path class="st4" d="M1496.4,1439.6c0.2,0,0.4,0,0.7,0s0.5,0,0.6,0.1l-0.3,3.6c-0.1,0-0.3-0.1-0.5-0.1c-0.2,0-0.4,0-0.6,0
						c-0.7,0-1.3,0.1-1.9,0.4c-0.6,0.2-1.1,0.6-1.5,1.1c-0.4,0.5-0.6,1.2-0.6,2.1v7.2h-3.9v-14.2h2.9l0.6,2.4h0.2
						c0.4-0.7,1-1.4,1.7-1.9C1494.6,1439.8,1495.4,1439.6,1496.4,1439.6z"/>
					<path class="st4" d="M1505.5,1439.5c1.9,0,3.4,0.4,4.4,1.2c1,0.8,1.5,2.1,1.5,3.8v9.5h-2.7l-0.8-1.9h-0.1
						c-0.6,0.8-1.2,1.3-1.9,1.7c-0.7,0.3-1.6,0.5-2.8,0.5c-1.3,0-2.3-0.4-3.1-1.1c-0.8-0.7-1.2-1.9-1.2-3.4c0-1.5,0.5-2.6,1.6-3.3
						c1.1-0.7,2.6-1.1,4.8-1.2l2.5-0.1v-0.6c0-0.7-0.2-1.3-0.6-1.6c-0.4-0.3-0.9-0.5-1.6-0.5c-0.7,0-1.4,0.1-2,0.3
						c-0.7,0.2-1.3,0.4-2,0.7l-1.3-2.6c0.7-0.4,1.6-0.7,2.5-0.9C1503.6,1439.7,1504.5,1439.5,1505.5,1439.5z M1504.9,1434.1
						c0.3,0.4,0.6,0.8,0.9,1.3c0.4,0.5,0.7,0.9,1.1,1.4c0.4,0.4,0.7,0.8,1,1.2v0.3h-2.6c-0.3-0.2-0.7-0.5-1.2-0.8
						c-0.4-0.3-0.9-0.7-1.4-1.1c-0.5-0.4-0.9-0.7-1.3-1.1c-0.4-0.3-0.7-0.6-1-0.9v-0.3H1504.9z M1507.6,1447.4l-1.5,0.1
						c-1.2,0-2.1,0.3-2.6,0.7s-0.7,1-0.7,1.6c0,0.6,0.2,1,0.5,1.3c0.3,0.3,0.8,0.4,1.4,0.4c0.8,0,1.5-0.2,2.1-0.7
						c0.6-0.5,0.9-1.2,0.9-2.1V1447.4z"/>
				</g>
				<g class="st3">
					<path class="st4" d="M1172.5,1468.3c0.6,0,1.1,0.1,1.5,0.4c0.4,0.3,0.6,0.8,0.6,1.5c0,0.7-0.2,1.2-0.6,1.5s-0.9,0.4-1.5,0.4
						c-0.6,0-1.1-0.1-1.5-0.4s-0.6-0.8-0.6-1.5c0-0.7,0.2-1.2,0.6-1.5C1171.4,1468.4,1171.9,1468.3,1172.5,1468.3z M1174.4,1473.8
						v14.2h-3.9v-14.2H1174.4z"/>
					<path class="st4" d="M1186.5,1473.6c1.5,0,2.7,0.4,3.7,1.2c0.9,0.8,1.4,2.1,1.4,4v9.3h-3.9v-8.3c0-1-0.2-1.8-0.5-2.3
						c-0.4-0.5-0.9-0.8-1.7-0.8c-1.2,0-2,0.4-2.4,1.2c-0.4,0.8-0.6,2-0.6,3.5v6.7h-3.9v-14.2h3l0.5,1.8h0.2c0.5-0.7,1.1-1.3,1.9-1.6
						C1184.8,1473.7,1185.6,1473.6,1186.5,1473.6z"/>
					<path class="st4" d="M1210.1,1476.7h-3.4v11.3h-3.9v-11.3h-2.1v-1.9l2.1-1v-1c0-1.2,0.2-2.2,0.6-2.8c0.4-0.7,1-1.1,1.7-1.4
						s1.6-0.4,2.7-0.4c0.7,0,1.4,0.1,2.1,0.2s1.1,0.3,1.5,0.4l-1,2.8c-0.3-0.1-0.6-0.2-1-0.2c-0.4-0.1-0.8-0.1-1.2-0.1
						c-0.5,0-0.9,0.2-1.2,0.5c-0.3,0.3-0.4,0.7-0.4,1.2v0.9h3.4V1476.7z"/>
					<path class="st4" d="M1225.4,1473.8v14.2h-3l-0.5-1.8h-0.2c-0.5,0.7-1.1,1.3-1.9,1.6c-0.8,0.3-1.6,0.5-2.5,0.5
						c-1.5,0-2.7-0.4-3.7-1.2c-0.9-0.8-1.4-2.1-1.4-4v-9.3h3.9v8.3c0,1,0.2,1.8,0.5,2.3c0.4,0.5,0.9,0.8,1.7,0.8
						c1.2,0,2-0.4,2.4-1.2s0.7-2,0.7-3.5v-6.7H1225.4z"/>
					<path class="st4" d="M1235.4,1485.2c0.4,0,0.8,0,1.2-0.1c0.4-0.1,0.8-0.2,1.2-0.3v2.9c-0.4,0.2-0.9,0.3-1.5,0.5s-1.3,0.2-2,0.2
						c-0.8,0-1.6-0.1-2.3-0.4c-0.7-0.3-1.2-0.8-1.6-1.4c-0.4-0.7-0.6-1.6-0.6-2.9v-6.8h-1.8v-1.6l2.1-1.3l1.1-3h2.5v3h4v2.9h-4v6.8
						c0,0.5,0.2,0.9,0.5,1.2C1234.5,1485.1,1234.9,1485.2,1235.4,1485.2z"/>
					<path class="st4" d="M1253.7,1473.8v14.2h-3l-0.5-1.8h-0.2c-0.5,0.7-1.1,1.3-1.9,1.6c-0.8,0.3-1.6,0.5-2.5,0.5
						c-1.5,0-2.7-0.4-3.7-1.2c-0.9-0.8-1.4-2.1-1.4-4v-9.3h3.9v8.3c0,1,0.2,1.8,0.5,2.3c0.4,0.5,0.9,0.8,1.7,0.8
						c1.2,0,2-0.4,2.4-1.2s0.7-2,0.7-3.5v-6.7H1253.7z"/>
					<path class="st4" d="M1265.7,1473.6c0.2,0,0.4,0,0.7,0c0.3,0,0.5,0,0.6,0.1l-0.3,3.6c-0.1,0-0.3-0.1-0.5-0.1
						c-0.2,0-0.4,0-0.6,0c-0.7,0-1.3,0.1-1.9,0.4c-0.6,0.2-1.1,0.6-1.5,1.1c-0.4,0.5-0.6,1.2-0.6,2.1v7.2h-3.9v-14.2h2.9l0.6,2.4
						h0.2c0.4-0.7,1-1.4,1.7-1.9C1263.9,1473.8,1264.8,1473.6,1265.7,1473.6z"/>
					<path class="st4" d="M1282,1480.9c0,2.4-0.6,4.2-1.9,5.5c-1.2,1.3-2.9,1.9-5.1,1.9c-1.3,0-2.5-0.3-3.5-0.9
						c-1-0.6-1.8-1.4-2.4-2.5c-0.6-1.1-0.9-2.4-0.9-4c0-2.4,0.6-4.2,1.8-5.4c1.2-1.3,2.9-1.9,5.1-1.9c1.3,0,2.5,0.3,3.5,0.9
						c1,0.6,1.8,1.4,2.4,2.5C1281.7,1478,1282,1479.3,1282,1480.9z M1272.2,1480.9c0,1.4,0.2,2.5,0.7,3.2c0.5,0.7,1.2,1.1,2.2,1.1
						c1,0,1.8-0.4,2.2-1.1c0.5-0.7,0.7-1.8,0.7-3.2s-0.2-2.5-0.7-3.2c-0.5-0.7-1.2-1.1-2.2-1.1c-1,0-1.8,0.4-2.2,1.1
						C1272.4,1478.4,1272.2,1479.5,1272.2,1480.9z"/>
					<path class="st4" d="M1284.6,1486.2c0-0.8,0.2-1.4,0.6-1.7c0.4-0.3,1-0.5,1.6-0.5c0.6,0,1.1,0.2,1.6,0.5
						c0.4,0.3,0.7,0.9,0.7,1.7c0,0.8-0.2,1.3-0.7,1.7s-1,0.5-1.6,0.5c-0.6,0-1.2-0.2-1.6-0.5S1284.6,1487,1284.6,1486.2z"/>
				</g>
			</g>
		</g>
	</g>
</g>
</svg>
