<?xml version="1.0" encoding="utf-8"?>
<svg version="1.1" id="Ebene_1" xmlns="http://www.w3.org/2000/svg" xmlns:xlink="http://www.w3.org/1999/xlink" x="0px" y="0px"
	 viewBox="0 0 35.5 44.2" style="enable-background:new 0 0 35.5 44.2;" xml:space="preserve">
<g>
	<path style="fill:#1D1D1B;" d="M35.5,0.1V23c0,13.9-15.5,21-17.7,21.1C15.8,44.1,0,37.9,0,23V0.1H35.5L35.5,0.1z"/>
	<path style="fill:#FFFFFF;" d="M35.2,0.3h-35V23c0,14.7,15.6,20.9,17.5,20.9c2.1-0.1,17.4-7.1,17.4-20.9V0.3L35.2,0.3z"/>
	<path style="fill:#FFEC00;" d="M20.4,30.7c0,0,0.3,0.6,0.5,1c0.2,0.5,0.6,0.9,0.5,1.3c-0.1,0.3-0.7,0.3-1,0.3s-0.7,0-0.9,0
		S19,33.8,19,34.2c0.1,0.5,0.4,1,0.4,0.8c0-0.2,0-0.4,0.1-0.5c0.1-0.1,0.3-0.1,0.5-0.1c0.5,0.1,1.2-0.2,1.3-0.4
		c0.1-0.2,0.1-0.2,0.2-0.3c0.2-0.2,0.1,0.2,0.7,0.2c0.2,0,0.2-0.1,0.3,0c0.1,0,0.2,0.2,0.2,0.5c0,0.3,0,0.5,0.1,0.7
		c0.1,0.2,0.2,0.4,0.2,0.5c0.1,0.2-0.1,0.4-0.2,0.4s-0.3,0-0.1,0.1c0.2,0.1,0.6,0.2,0.8,0c0.1-0.1,0.1,0,0.3-0.1
		c0.2,0,0.5-0.6,0.3-0.9c-0.2-0.4-0.5-1.1-0.9-1.3c-0.1-0.1-0.2-0.2-0.1-0.2c0.1-0.1,0.1-0.2,0.3-0.1c0.2,0.1,0.5,0.3,0.8,0.4
		c0.4,0.2,1.2,0.3,1.3,0.2c0.1,0,0.2-0.1,0.3,0s0.2,0.6,0.2,0.6c0.1,0,0.4-0.8,0-1.2c-0.1-0.1,0.1-0.2,0-0.3c-0.2-0.4-1-0.4-1.3-0.4
		c-0.3,0-0.6,0-0.8,0s-0.2,0.1-0.4,0c-0.1,0-0.2-0.1-0.1-0.2c0-0.2,0.5-0.7,0.6-0.8c0.1-0.1,0.1,0,0.3-0.1c0.2-0.1,0.3-0.3,0.2-0.4
		s-0.1-0.2,0-0.3c0.2-0.1,0.5,0,0.7,0.2c0,0,0-0.6-0.5-0.7c-0.3-0.1-0.5-0.1-0.5,0c-0.1,0.1-0.2,0.1-0.3,0c-0.1-0.1-0.2-0.1-0.4,0
		c-0.5,0.1-0.6,1.5-0.7,1.6s-0.2,0.2-0.3,0.2c-0.1,0-0.1-0.1-0.3-0.4c-0.3-0.6-0.3-0.6-0.5-1c-0.2-0.3-0.4-0.8-0.4-0.8"/>
	<path style="fill:#1D1D1B;" d="M25.2,31.2c0-0.2-0.2-0.5-0.4-0.5c-0.3-0.1-0.4-0.1-0.5,0c-0.2,0.2-0.3,0-0.5,0c-0.1,0-0.1,0-0.2,0
		c-0.4,0.1-0.5,1-0.6,1.3l0,0.2l0,0.1c-0.1,0.3-0.4,0.4-0.6,0.2l-0.1-0.1L22.2,32c-0.3-0.6-0.6-1.1-0.9-1.7l0.1,0
		c0.3,0.6,0.5,1.2,0.9,1.7l0.1,0.2l0.1,0.1c0.1,0.1,0.3,0,0.4-0.1l0-0.1l0-0.2c0.1-0.4,0.2-1.3,0.7-1.4c0.1,0,0.3-0.1,0.4,0.1
		c0,0.1,0.1,0.1,0.2,0c0.1-0.1,0.3-0.1,0.6-0.1c0.3,0.1,0.5,0.4,0.5,0.7v0.1c0,0.1-0.1,0.1-0.1,0c-0.2-0.2-0.5-0.3-0.6-0.2
		c-0.1,0-0.1,0.1,0,0.2c0.1,0.2,0,0.4-0.2,0.5l-0.1,0l-0.1,0l-0.1,0c-0.1,0.1-0.5,0.6-0.6,0.7c0,0.1,0.1,0.2,0.2,0.2
		c0.2,0,0.3-0.1,0.6-0.1h0.5c0.4,0,1.2,0,1.3,0.5c0,0.1,0,0.2,0,0.3c0.4,0.4,0.2,1.3-0.1,1.3l-0.1,0l0-0.1l0-0.2
		c0-0.1-0.1-0.3-0.1-0.3c-0.1-0.1-0.1-0.1-0.1-0.1l-0.1,0l-0.1,0c-0.1,0-1,0-1.4-0.2c-0.2-0.1-0.6-0.3-0.8-0.4c0,0-0.1,0-0.1,0
		c-0.1,0-0.1,0.1-0.1,0.1l0,0.1l0.1,0.1c0.4,0.3,0.7,0.9,0.9,1.4c0.2,0.4-0.1,1-0.3,1c-0.1,0-0.1,0-0.2,0.1c-0.3,0.2-0.7,0.1-0.9,0
		c-0.1-0.1-0.1-0.2,0-0.2c0,0,0.1,0,0.2,0c0.1,0,0.2-0.2,0.1-0.4c-0.1-0.3-0.3-0.5-0.3-0.8c0-0.1,0-0.2,0-0.4c0-0.3-0.1-0.4-0.1-0.4
		c-0.1,0-0.1,0-0.2,0c-0.3,0.1-0.5,0-0.7-0.2c-0.1,0-0.1,0.1-0.2,0.1l-0.1,0.2c-0.1,0.2-0.8,0.5-1.4,0.4c-0.2,0-0.3,0-0.4,0.1
		c-0.1,0.1-0.1,0.3-0.1,0.5c0,0,0,0.1-0.1,0.1l-0.1,0c-0.2-0.2-0.3-0.6-0.4-0.9c0-0.4,0.2-0.8,0.5-0.8c0.2,0,0.6,0,0.9,0
		c0.2,0,0.9,0,1-0.3c0.1-0.4-0.4-0.9-0.5-1.3l-0.5-1l0.1,0l0.5,1c0.2,0.4,0.6,0.9,0.5,1.3c-0.1,0.3-0.8,0.4-1.1,0.4
		c-0.3,0-0.7,0-0.9,0c-0.2,0-0.5,0.3-0.4,0.7c0,0.3,0.1,0.5,0.2,0.7l0.1,0.1c0-0.2,0-0.3,0.2-0.5c0.1-0.2,0.3-0.2,0.5-0.1
		c0.5,0.1,1.1-0.2,1.2-0.4l0.1-0.2c0,0,0.1-0.1,0.1-0.1c0.1-0.1,0.2-0.1,0.3,0c0.1,0.2,0.2,0.2,0.5,0.2l0.1,0l0.1,0c0,0,0,0,0.1,0
		c0.2,0,0.2,0.3,0.2,0.6c0,0.2,0,0.5,0,0.7c0.1,0.2,0.2,0.4,0.2,0.5c0.1,0.3-0.1,0.5-0.2,0.5c0.2,0.1,0.5,0.1,0.7,0
		c0.1-0.1,0.1-0.1,0.3-0.1c0.1,0,0.4-0.5,0.2-0.9c-0.2-0.4-0.5-1-0.9-1.3c-0.1-0.1-0.3-0.2-0.1-0.3c0,0,0.1,0,0.1-0.1
		c0.1-0.1,0.2,0,0.3,0c0.2,0.1,0.5,0.3,0.8,0.4c0.3,0.2,1.2,0.3,1.2,0.2c0.2-0.1,0.3-0.1,0.4,0.1c0.1,0.1,0.1,0.3,0.1,0.4l0,0.2
		c0.1-0.1,0.3-0.6-0.1-1c0,0,0-0.1,0-0.1c0-0.1,0-0.2,0-0.2c-0.2-0.3-0.9-0.4-1.2-0.4s-0.6,0-0.8,0c-0.1,0-0.3,0.1-0.4,0
		c-0.1,0-0.2-0.1-0.2-0.3c0.1-0.2,0.5-0.7,0.6-0.8c0.1,0,0.1,0,0.1-0.1l0.2-0.1c0.2-0.1,0.2-0.2,0.2-0.3c-0.1-0.1-0.1-0.3,0-0.4
		C24.7,30.9,25,31,25.2,31.2L25.2,31.2z"/>
	<path style="fill:#FFEC00;" d="M19,34.1c0,0,0.6-0.6,1,0.3"/>
	<path style="fill:#1D1D1B;" d="M19,34.1c0,0,0,0,0.1-0.1c0.4-0.3,0.8-0.1,1,0.4l-0.1,0c-0.2-0.4-0.5-0.5-0.8-0.3
		C19.1,34.1,19.1,34.2,19,34.1L19,34.1L19,34.1z"/>
	<path style="fill:#FFEC00;" d="M23,35.7c0,0,0.1-0.2,0.2-0.1c0.1,0,0.4,0.1,0.4,0.5"/>
	<path style="fill:#1D1D1B;" d="M23,35.6L23,35.6L23,35.6c0.1-0.1,0.2-0.2,0.3-0.1c0.2,0,0.4,0.2,0.4,0.6l-0.1,0
		c0-0.3-0.2-0.4-0.4-0.5c0,0-0.1,0-0.1,0L23,35.6L23,35.6L23,35.6z"/>
	<path style="fill:#1D1D1B;" d="M25.4,34.1L25.4,34.1c-0.1-0.3-0.2-0.7,0.2-0.7c0.1,0,0.3,0,0.4,0.1l-0.1,0.1c0,0,0,0-0.1,0
		c-0.4-0.1-0.5,0.1-0.3,0.4L25.4,34.1L25.4,34.1L25.4,34.1z"/>
	<path style="fill:#FFEC00;" d="M24.1,30.7c0,0-0.2,0.3,0,0.5c0.1,0.1,0.2,0.1,0.3,0.1"/>
	<path style="fill:#1D1D1B;" d="M24.2,30.7c-0.2,0.2,0,0.5,0.3,0.5v0.1c-0.4,0-0.6-0.4-0.4-0.7L24.2,30.7L24.2,30.7L24.2,30.7z"/>
	<path style="fill:#FFEC00;" d="M15.1,30.7c0,0-0.3,0.6-0.5,1c-0.2,0.5-0.6,0.9-0.5,1.3c0.1,0.3,0.7,0.3,1,0.3s0.7,0,0.9,0
		s0.5,0.4,0.5,0.8c-0.1,0.5-0.4,1-0.4,0.8c0-0.2,0-0.4-0.1-0.5c-0.1-0.1-0.3-0.1-0.5-0.1c-0.5,0.1-1.2-0.2-1.3-0.4
		c-0.1-0.2-0.1-0.2-0.2-0.3c-0.2-0.2-0.1,0.2-0.7,0.2c-0.2,0-0.2-0.1-0.3,0c-0.1,0-0.2,0.2-0.2,0.5c0,0.3,0,0.5-0.1,0.7
		c-0.1,0.2-0.2,0.4-0.2,0.5c-0.1,0.2,0.1,0.4,0.2,0.4c0.1,0,0.3,0,0.1,0.1c-0.2,0.1-0.6,0.2-0.8,0c-0.1-0.1-0.1,0-0.3-0.1
		c-0.2,0-0.4-0.6-0.3-0.9c0.2-0.4,0.6-1.1,0.9-1.3c0.1-0.1,0.2-0.2,0.1-0.2c-0.1-0.1-0.1-0.2-0.3-0.1c-0.2,0.1-0.6,0.3-0.8,0.4
		c-0.4,0.2-1.2,0.3-1.3,0.2c-0.1,0-0.2-0.1-0.3,0s-0.2,0.6-0.2,0.6c-0.1,0-0.4-0.8,0-1.2c0.1-0.1-0.1-0.2,0-0.3
		c0.2-0.4,1-0.4,1.3-0.4c0.3,0,0.6,0,0.8,0s0.2,0.1,0.4,0c0.1,0,0.2-0.1,0.1-0.2c-0.1-0.2-0.5-0.7-0.6-0.8c-0.1-0.1-0.1,0-0.3-0.1
		c-0.2-0.1-0.3-0.3-0.2-0.4s0.1-0.2,0-0.3c-0.2-0.1-0.5,0-0.7,0.2c0,0-0.1-0.6,0.5-0.7c0.3-0.1,0.5-0.1,0.5,0c0.1,0.1,0.2,0.1,0.3,0
		s0.2-0.1,0.4,0c0.5,0.1,0.6,1.5,0.7,1.6s0.2,0.2,0.3,0.2c0.1,0,0.1-0.1,0.3-0.4c0.3-0.6,0.3-0.6,0.5-1s0.4-0.8,0.4-0.8"/>
	<path style="fill:#1D1D1B;" d="M16.1,34.9L16.1,34.9c0.2-0.2,0.3-0.5,0.3-0.8c0-0.4-0.2-0.7-0.4-0.7c-0.2,0-0.6,0-0.9,0
		c-0.3,0-1,0-1.1-0.4c-0.1-0.4,0.4-1,0.5-1.3l0.5-1l0.1,0l-0.5,1c-0.2,0.3-0.6,0.9-0.5,1.3c0,0.2,0.8,0.3,1,0.3c0.3,0,0.7,0,0.9,0
		c0.3,0.1,0.6,0.4,0.5,0.8c0,0.3-0.2,0.7-0.4,0.9c0,0-0.2,0.1-0.2,0c0-0.2,0-0.4-0.1-0.5c-0.1-0.1-0.2-0.1-0.4-0.1
		c-0.5,0.1-1.2-0.2-1.4-0.4L14,33.9c0,0-0.1-0.1-0.1-0.1C13.6,34,13.5,34,13.2,34c-0.1,0-0.1,0-0.2,0L13,34c-0.1,0-0.1,0.1-0.1,0.4
		c0,0.3,0,0.5-0.1,0.7c-0.1,0.2-0.2,0.4-0.2,0.5c-0.1,0.2,0.1,0.3,0.1,0.4c0.1,0,0.3,0,0.2,0.1l-0.1,0.1c-0.2,0.1-0.6,0.2-0.9,0
		c-0.1-0.1-0.1,0-0.2-0.1c-0.3,0-0.5-0.6-0.3-1c0.2-0.4,0.6-1.1,0.9-1.4l0.1-0.1l0-0.1c-0.1,0-0.1-0.1-0.1-0.1
		c-0.1,0-0.8,0.4-0.9,0.4c-0.4,0.2-1.3,0.3-1.4,0.3l-0.1,0l-0.1,0c-0.2,0-0.2,0.3-0.3,0.4l-0.1,0.2l0,0.1c0,0,0,0-0.1,0
		c-0.2,0-0.4-0.9-0.1-1.3c0-0.1-0.1-0.2,0-0.3c0.2-0.4,0.9-0.5,1.3-0.5c0.3,0,0.6,0,0.8,0c0.1,0,0.2,0.1,0.3,0s0.1-0.1,0.1-0.2
		C12,32.5,11.5,32,11.4,32l-0.1,0c-0.2,0-0.6-0.3-0.4-0.5c0.1-0.1,0.1-0.2,0-0.2c-0.2-0.1-0.4,0-0.6,0.2c0,0-0.1,0-0.1,0v-0.1
		c0-0.3,0.2-0.6,0.5-0.7c0.3-0.1,0.5-0.1,0.6,0.1c0.1,0.1,0.1,0.1,0.2,0c0.1-0.1,0.3-0.1,0.4-0.1c0.4,0.1,0.6,1,0.7,1.4l0,0.2l0,0.1
		c0.1,0.1,0.3,0.2,0.4,0.1l0.1-0.1l0.1-0.2c0.3-0.6,0.3-0.6,0.5-1l0.4-0.8l0.1,0l-0.4,0.8c-0.2,0.3-0.2,0.4-0.5,1l-0.1,0.2l-0.1,0.1
		c-0.2,0.2-0.5,0.1-0.6-0.1l0-0.1l0-0.2c-0.1-0.3-0.2-1.2-0.6-1.3c-0.1,0-0.2,0-0.3,0c-0.1,0.1-0.3,0.1-0.4,0
		c-0.1-0.1-0.1-0.1-0.5,0c-0.3,0.1-0.4,0.3-0.4,0.5c0.2-0.2,0.5-0.3,0.7-0.1c0.2,0.1,0.1,0.3,0.1,0.4c-0.1,0.1,0,0.2,0.2,0.3l0.1,0
		l0.1,0l0.1,0.1c0.1,0.1,0.6,0.6,0.6,0.8c0.1,0.2-0.2,0.4-0.4,0.3c-0.1,0-0.1,0-0.2,0c-0.2,0-0.4,0-0.8,0c-0.3,0-1.4,0.1-1.2,0.6
		l0,0.1c0,0.1,0,0.1,0,0.1c-0.4,0.4-0.1,0.9-0.1,1l0-0.2c0-0.1,0.1-0.3,0.1-0.4c0.1-0.2,0.2-0.1,0.4-0.1c0.1,0,0.9-0.1,1.2-0.2
		c0.2-0.1,0.6-0.3,0.8-0.4c0.1,0,0.1,0,0.1-0.1c0.1,0,0.1,0,0.1,0c0.1,0.1,0.1,0.1,0.1,0.1l0.1,0.1c0,0,0,0.1,0,0.1
		c0,0.1-0.1,0.1-0.1,0.1l-0.1,0.1c-0.4,0.3-0.7,0.9-0.9,1.3c-0.1,0.4,0.1,0.8,0.2,0.9c0.1,0,0.2,0,0.3,0.1c0.2,0.1,0.5,0.1,0.7,0
		c-0.1,0-0.3-0.2-0.2-0.5c0-0.1,0.1-0.2,0.2-0.5c0.1-0.2,0.1-0.4,0.1-0.7c0-0.2,0-0.6,0.3-0.6l0.1,0c0.2,0.1,0.4,0,0.6-0.1
		c0.1-0.1,0.1-0.1,0.1-0.1h0.1c0.1,0,0.2,0.1,0.2,0.2l0.1,0.2c0.1,0.2,0.7,0.5,1.2,0.4c0.2,0,0.4,0,0.5,0.1
		C16.1,34.6,16.1,34.8,16.1,34.9L16.1,34.9z"/>
	<path style="fill:#FFEC00;" d="M16.5,34.1c0,0-0.6-0.6-1,0.3"/>
	<path style="fill:#1D1D1B;" d="M16.4,34.2C16.4,34.2,16.4,34.1,16.4,34.2c-0.4-0.3-0.7-0.1-0.9,0.2l-0.1,0c0.2-0.5,0.6-0.6,1-0.4
		C16.5,34,16.5,34.1,16.4,34.2L16.4,34.2L16.4,34.2z"/>
	<path style="fill:#FFEC00;" d="M12.5,35.6c0,0-0.1-0.1-0.3,0c-0.1,0-0.4,0.1-0.4,0.5"/>
	<path style="fill:#1D1D1B;" d="M12.5,35.6L12.5,35.6c-0.1,0-0.2,0-0.2,0c-0.1,0-0.3,0.1-0.4,0.5l-0.1,0c0-0.4,0.3-0.5,0.4-0.6
		c0.1,0,0.2,0,0.2,0l0.1,0l0,0L12.5,35.6L12.5,35.6z"/>
	<path style="fill:#FFEC00;" d="M10,34.1c0,0,0.3-0.5-0.1-0.6c-0.1,0-0.4,0.1-0.4,0.1"/>
	<path style="fill:#1D1D1B;" d="M10,34c0,0,0.2-0.5-0.1-0.5c-0.1,0-0.3,0.1-0.3,0.1l-0.1-0.1c0,0,0.1,0,0.1-0.1s0.2-0.1,0.3-0.1
		c0.4,0,0.3,0.4,0.2,0.6l0,0.1L10,34L10,34z"/>
	<path style="fill:#FFEC00;" d="M11.4,30.7c0,0,0.2,0.2,0,0.5c-0.1,0.1-0.2,0.1-0.3,0.1"/>
	<path style="fill:#1D1D1B;" d="M11.4,30.6L11.4,30.6c0.2,0.3,0.1,0.7-0.2,0.7l-0.1,0h-0.1v-0.1h0.1l0.1,0c0.2,0,0.2-0.4,0.1-0.5
		L11.4,30.6L11.4,30.6L11.4,30.6z"/>
	<path style="fill:#E20613;" d="M17.7,41.8c0,0-0.3-0.1-0.4-0.2s-0.1-0.2-0.1-0.4s0-0.2-0.1-0.2c-0.1,0-0.4,0.3-0.5,0.2
		s0-0.1-0.2-0.2c-0.1-0.1-0.4,0.2-0.5,0.3s-0.2,0-0.2,0c-0.2,0,0-0.2,0.1-0.5s0.4-0.6,0.8-0.9s0.4-0.5,0.4-0.8s0-0.3-0.2-0.2
		s-0.2,0.2-0.4,0.6c-0.1,0.4-0.5,0.4-1.1,0.5c-0.6,0.1-1.2,0.1-1.4,0.2s-0.1,0.2-0.2,0.2c-0.2,0-0.2-0.2-0.3-0.4
		c-0.1-0.2,0.1-0.6,0.5-0.9c0.4-0.3,1,0,1.4-0.1s0.4-0.2,0.6-0.5s0.7-0.5,0.9-0.8c0.2-0.3,0.1-0.5,0.1-0.8s0-0.2-0.2,0.1
		c-0.2,0.2-0.1,0.3-0.6,1c-0.5,0.7-1.1,0.5-1.5,0.4c-0.4-0.2-0.4-0.4-1.2-0.7c-0.8-0.3-1.2,0.1-1.6,0.5s-0.8,0.1-1,0s-0.1-0.1,0-0.2
		c0.1,0,0.2,0,0.4,0s0.2-0.3,0.5-0.7c0.3-0.5,0.6-0.6,1.3-0.8c0.7-0.2,1.7,0.8,2.9,0.4c0.6-0.2,0.9-1.2,1-2.4
		c0.1-1.2-0.4-5.1-0.4-5.4s-0.1-0.9-0.1-0.9s-0.1,0.3-0.1,0.4s-0.1,0.5-0.3,1c-0.1,0.4-0.9,1.3-0.9,1.3s-0.9,0.4-1.1-0.5
		c-0.2-1.1,0-4,0.5-5.5c0.1-0.4,0.1-2.1,0.1-2.1l0-1c0,0-0.1,0.2-0.2,0.3c-0.1,0-0.2,0-0.2,0c0,0-0.1-0.2-0.1-0.2s0,0.5,0,1.1
		c0,0.7-0.1,2.2-0.2,2.5s-0.4,0.5-0.6,0.5c-0.2,0-0.4,0-0.5-0.2c-0.1-0.1-0.1-0.2,0-0.3s0.1,0,0.1-0.1c0.1,0,0.1-0.1,0.2-0.4
		c0-0.2-0.1-3-0.1-3s-0.1,0.2-0.1,0.3s-0.2,0-0.2,0c-0.1,0-0.1-0.2-0.1-0.2s-0.1,5.2-0.3,6.5c-0.1,1.2-0.8,1.4-1,1.4
		c-0.2,0-0.5,0-0.7-0.2s-0.2-0.3-0.2-0.4s0.1,0,0.2,0c0.1,0,0.3-0.2,0.4-0.4c0.1-0.2,0.1-0.6,0.2-0.9c0-0.2-0.1-6.3-0.1-6.3
		s0,0-0.1,0.2c-0.1,0.2-0.3,0.1-0.4,0.1c-0.1-0.1-0.3-0.3-0.3-0.3s0,2.8,0,3.4s-0.2,4-0.2,5.2c-0.1,1.2-0.2,2.1-0.6,3
		c-0.3,0.8-1.1,0.8-1.4,0.6S7.5,33.2,7.5,33s0.1-0.2,0.1-0.2c0.1,0,0.2,0,0.3-0.1C8.1,32.7,8,32.6,8.2,32c0.2-0.6,0.2-7.4,0.2-7.4
		l0-3.5c0,0-0.1,0.1-0.1,0.2c-0.1,0.1-0.3,0.1-0.4,0c-0.1-0.1-0.1-0.3-0.1-0.3s-0.1,3.2-0.4,5.1c-0.2,1.1-0.7,2.8-1.3,3.2
		c-0.4,0.2-0.8,0.2-1.1,0c-0.3-0.1-0.3-0.4-0.5-0.6c-0.1-0.1,0-0.2,0.2-0.3s0.1,0.1,0.2,0.1s0.2,0,0.4-0.3c0.2-0.2,0.3-1,0.4-1.7
		C5.9,26,6.2,22,6.2,21.6c0-0.7,0-1.1,0-1.3c0,0-0.1,0.1-0.1,0.2c-0.1,0.1-0.3,0-0.4-0.1c-0.1-0.1-0.1-0.3-0.1-0.3v0.2
		c0,0.3-0.2,3.5-0.8,4.3c-0.5,0.6-1,0.6-1.4,0.4C3,24.9,3,24.7,2.9,24.5c0-0.2,0-0.1,0-0.2c0.1-0.1,0.1,0,0.2,0.1
		c0.1,0.1,0.3-0.1,0.5-0.3c0.2-0.2,0.4-2.1,0.5-2.8c0.1-0.7,0.1-2.9,0.2-3.4s0.2-1.1,0.2-1.3s-0.1-0.1-0.2,0.1
		c-0.2,0.1-0.3,0-0.4-0.1c-0.1-0.2,0-0.2-0.1-0.3s-0.4,1.3-0.5,1.5C3.2,18,3,18.3,2.7,18.5c-0.3,0.2-0.5,0.2-0.8,0
		c-0.3-0.1-0.5-0.6-0.5-0.8c0-0.2,0-0.4,0.2-0.4c0.2,0,0.1,0,0.3,0c0.2,0,0.4-0.5,0.5-0.7s0.2-1.4,0.2-1.9c0-0.6,0.1-1.4,0.2-2.1
		C2.8,12,5,7.4,5,7.4s-0.2,0-0.3,0.1C4.6,7.5,4.3,7.6,4,7.7c-0.3,0.1-0.7,0.1-1,0C2.8,7.7,2.7,7.4,2.6,7.1C2.5,6.8,2.7,6.4,2.8,6.3
		c0.1-0.1,0.2-0.1,0.3,0c0.1,0.1,0,0.2,0.1,0.3S3.3,6.9,3.7,7C4.1,7.1,4.6,6.9,5,6.7c0.4-0.2,0.7-0.7,0.6-1C5.5,5.4,5.2,5.2,4.9,5.1
		S4.5,4.6,4.5,4.3c0-0.3-0.1-0.6-0.3-0.8C4,3.4,3.8,3.5,3.5,3.6S3.1,3.8,2.8,3.8c-0.3,0-0.5-0.3-0.7-0.6S1.9,2.7,2,2.7
		c0.1-0.1,0.1,0,0.2,0c0.1,0,0.3,0.4,0.7,0.5S3.5,2.9,4,2.7C4.6,2.5,5,3,5.1,3.3s0.1,0.9,0.2,1.1c0.1,0.2,0.1,0.2,0.5,0.4
		C6.2,5,6.5,5.1,6.7,5C6.9,5,6.9,4.9,7.1,4.6c0.1-0.2,0.8-0.6,1.1-0.7C8.4,3.7,8.7,3.8,9,3.8c0.3,0,0.4,0.4,0.5,0.8
		c0.1,0.4-0.1,1.1-0.3,1.6C9.1,6.7,8.9,7.3,8.9,7.9c0,0.6,0.4,1.4,0.6,1.7s0.4,0.4,0.8,0.4s0.5-0.1,0.8-0.2C11.4,9.7,11.9,10,12,10
		c0.1,0.1,0.3,0.4,0.5,0.7c0.2,0.3,0.1,0.9-0.1,1.2c-0.2,0.4-0.4,0.6-0.5,0.7s0,0.2,0.1,0.3s0.2,0,0.3,0.1c0.1,0,0.1,0.1,0.1,0.2
		s-0.2,0.2-0.4,0.2c-0.2,0.1-0.6,0-0.8-0.2s-0.3-0.4-0.3-0.7c0-0.3,0.2-0.7,0.4-1s0.1-0.5,0-0.7s-0.4-0.2-0.8-0.1
		c-0.4,0-0.6-0.1-1.1-0.4c-0.5-0.3-0.5-0.7-0.7-1.1c-0.1-0.4,0-0.5-0.1-0.5C8.6,8.7,8.5,9.1,8.4,9.2C8.3,9.3,8.2,9.4,8.1,9.6
		C7.9,9.7,7.8,10,7.8,10.2s0,0.8,0,1.1s0.1,0.3,0.3,0.5s0.1,0.4,0.1,0.6s0.1,0.2,0.4,0.4s0.2,0.5,0.3,0.6s0.2,0.1,0.4,0.2
		c0.2,0.1,0.4,0.2,0.6,0.4c0.2,0.2,0.4,0.2,0.7,0.2c0.3,0,0.8,0.2,1.6,0.1c0.8-0.1,0.7,0,0.9,0c0.3,0,0.1,0,0.3,0.1s0.2,0.2,0.4,0.3
		s0.3,0.1,0.6,0c0.3-0.1,0.5-0.3,0.6-0.5s0.2-0.5,0.4-0.6c0.1-0.1,0.3-0.2,0.1-0.3c-0.2-0.1-0.3-0.1-0.4,0.1S15,13.5,15,13.5
		s-0.1-0.4,0.1-0.7c0.3-0.2,1.1-0.6,1.5-1s0.6-0.7,0.6-1s0.1-0.4,0-0.5c-0.2,0-0.2-0.1-0.3,0c-0.1,0.1-0.2,0.2-0.2,0.1
		c0-0.2,0.1-0.5,0.5-0.6c0.4-0.1,0.4-0.1,0.6-0.3c0.1-0.3,0.1-0.3,0.1-0.4c0-0.1-0.1-0.9-0.5-0.9c-0.3,0-0.6,0-0.9,0
		c-0.3,0-0.5,0.1-0.8,0.2c-0.2,0.1-0.5,0.3-0.7,0.4c-0.2,0.1-0.3,0.2-0.4,0.1c-0.1,0-0.2-0.1,0-0.1c0.2-0.1,0.5-0.4,0.7-0.5
		s0.5-0.3,0.7-0.3s0.9-0.1,1.2-0.1c0.6,0,0.8-0.6,0.7-0.6c-1.2-0.6-1.2-0.7-2.5-1.3c-0.1-0.1-0.5-0.3-0.6-0.3s-0.1-0.2,0-0.2
		c0.1,0,0.1,0,0.1,0s0.6-0.7,1-1.3c0.4-0.5,0.7-0.7,1.3-0.9c0.4-0.2,0.5-0.1,0.7-0.2s0.4-0.2,0.5-0.2s0.2-0.2,0.4,0
		C19.1,2.9,19.4,3,19.6,3c0.1,0,0.4-0.1,0.4-0.1s0.1,0,0.1,0.2s-0.3,0.3-0.3,0.3s-0.1,0.2,0,0.2s0.2,0.1,0.5,0.2c0.3,0,0.5,0,0.6,0
		c0.2-0.1,0.4-0.2,0.4-0.2s0.1,0,0.1,0.2c0,0.2,0.1,0.4-0.2,0.5s-0.4,0.2-0.5,0.3c-0.1,0.1-0.1,0.1-0.1,0.2C20.7,4.8,20.8,5,21,5
		c0.2,0.1,0.6,0.3,0.6,0.4c0,0.1,0.1,0.2,0.2,0.2s0.3,0,0.4,0s0.3-0.1,0.4,0s0.3,0.4,0.4,0.6s0.2,0.3,0.3,0.3c0.1,0,0.1,0,0,0.2
		c-0.1,0.1-0.2,0.2-0.4,0.1c-0.2-0.1-0.4-0.2-0.5-0.2s-0.2-0.1-0.2,0.1s0,0.5,0,0.7s0,0.3-0.1,0.4c0,0.1-0.2,0.1-0.2,0.1
		s-0.1,0.3,0,0.6s0.3,0.7,0.3,0.9c0,0.2,0.1,0.5,0.1,0.8c0,0.3,0,0.4-0.1,0.6c-0.1,0.2-0.3,0.2-0.3,0.2s0,0.1,0,0.4c0,0.2,0,0.8,0,1
		c0,0.2,0,0.5-0.1,0.5c-0.1,0.1-0.2,0.1-0.2,0.1s0.1,0.8,0.1,0.9s0,0.2,0,0.3c0,0.1-0.3,0.2-0.3,0.2l0.1,0.4c0,0,0.1-0.1,0.3-0.2
		c0.2-0.1,0.2-0.1,0.5-0.1c0.3,0,0.2-0.1,0.9,0s1.3-0.1,1.5-0.1s0.5,0,0.7-0.2c0.2-0.2,0.4-0.3,0.6-0.4c0.2-0.1,0.3-0.1,0.5-0.2
		c0.1-0.2,0.1-0.5,0.3-0.6c0.3-0.2,0.3-0.1,0.4-0.4s0-0.4,0.1-0.6c0.2-0.1,0.3-0.2,0.3-0.5c0-0.2,0-0.9,0-1.1s-0.1-0.4-0.2-0.6
		c-0.1-0.2-0.3-0.2-0.4-0.4c-0.1-0.1-0.1-0.6-0.2-0.5s0.1,0.1-0.1,0.5c-0.1,0.4-0.2,0.9-0.7,1.1c-0.5,0.3-0.7,0.4-1.1,0.4
		c-0.4,0-0.7-0.1-0.8,0.1s-0.2,0.4,0,0.7c0.2,0.3,0.5,0.8,0.5,1s0,0.6-0.3,0.7c-0.2,0.2-0.6,0.2-0.8,0.2s-0.4-0.1-0.4-0.2
		c0-0.1-0.1-0.2,0.1-0.2c0.1,0,0.2,0,0.3-0.1c0.1-0.1,0.2-0.1,0.1-0.3c-0.1-0.2-0.3-0.4-0.5-0.7c-0.2-0.4-0.4-0.9-0.1-1.2
		s0.4-0.7,0.5-0.7s0.6-0.3,0.9-0.3s0.4,0.1,0.8,0.2c0.4,0,0.6-0.1,0.8-0.4s0.6-1.1,0.6-1.7c0-0.6-0.2-1.2-0.4-1.7
		c-0.2-0.5-0.3-1.1-0.3-1.6c0.1-0.4,0.2-0.8,0.5-0.8c0.3,0,0.6-0.1,0.9,0.1c0.3,0.2,0.9,0.5,1.1,0.7c0.1,0.2,0.1,0.3,0.3,0.4
		c0.2,0.1,0.5,0,0.9-0.2s0.4-0.2,0.5-0.4c0.1-0.2,0.1-0.9,0.2-1.1s0.5-0.8,1.1-0.6c0.5,0.2,0.8,0.6,1.2,0.5c0.4-0.1,0.6-0.5,0.7-0.5
		c0.1,0,0.1-0.1,0.2,0c0.1,0.1,0.1,0.2-0.1,0.5c-0.2,0.3-0.4,0.6-0.7,0.6s-0.5-0.1-0.7-0.2c-0.3-0.1-0.4-0.2-0.6-0.1
		C31.1,3.7,31,4,31,4.3S30.8,5,30.5,5.1s-0.6,0.3-0.7,0.6c-0.1,0.3,0.3,0.8,0.6,1c0.4,0.2,0.8,0.4,1.3,0.3c0.4-0.1,0.5-0.2,0.6-0.4
		c0.1-0.2,0-0.3,0.1-0.3c0.1-0.1,0.2-0.1,0.3,0c0.1,0.1,0.3,0.5,0.2,0.8c-0.1,0.3-0.2,0.6-0.5,0.7s-0.7,0.1-1,0
		c-0.3-0.1-0.6-0.2-0.7-0.3c-0.1-0.1-0.3-0.1-0.3-0.1s2.2,4.7,2.3,5.3c0.1,0.6,0.2,1.5,0.2,2.1s0.1,1.7,0.2,1.9
		c0.1,0.3,0.3,0.7,0.5,0.7s0.1,0,0.3,0s0.2,0.2,0.2,0.4s-0.1,0.6-0.5,0.8c-0.3,0.1-0.5,0.1-0.8,0s-0.5-0.5-0.6-0.8
		C32,17.4,32,17,31.9,16.8c-0.1-0.2-0.2-0.7-0.2-0.7c-0.1,0,0,0.2-0.1,0.3s-0.3,0.1-0.4,0c-0.1-0.2-0.2-0.3-0.2-0.1
		c0,0.2,0.1,0.8,0.2,1.3c0.1,0.5,0.1,2.7,0.2,3.4c0.1,0.7,0.3,2.5,0.5,2.8c0.2,0.2,0.4,0.4,0.5,0.3s0.2-0.2,0.2-0.1
		c0,0.1,0.1,0,0,0.2c0,0.2-0.1,0.5-0.4,0.7s-0.9,0.3-1.4-0.4c-0.7-0.8-0.8-4.1-0.8-4.3v-0.2c0,0-0.1,0.2-0.1,0.3
		c-0.1,0.1-0.3,0.2-0.4,0.1c-0.1,0-0.2-0.2-0.2-0.2c0,0.2,0,0.5,0,1.3c0,0.4,0.3,4.4,0.4,5.1s0.3,1.4,0.4,1.7
		c0.2,0.2,0.2,0.3,0.4,0.3c0.1,0,0.1-0.2,0.2-0.1s0.2,0.3,0.2,0.3c-0.1,0.2-0.2,0.4-0.5,0.6s-0.6,0.2-1.1,0
		c-0.6-0.4-1.1-2.1-1.3-3.2c-0.3-1.9-0.4-5.1-0.4-5.1s0,0.2-0.1,0.3c-0.1,0.1-0.3,0.1-0.4,0c0-0.1-0.1-0.2-0.1-0.2l0,3.5
		c0,0,0,6.8,0.2,7.4c0.2,0.6,0.1,0.7,0.3,0.7s0.2,0.1,0.3,0.1s0.1,0,0.1,0.2s-0.1,0.5-0.4,0.7s-1.1,0.1-1.4-0.6
		c-0.3-0.9-0.5-1.7-0.6-3s-0.2-4.7-0.2-5.2c0-0.5,0-3.4,0-3.4s-0.2,0.2-0.3,0.3c-0.1,0.1-0.3,0.1-0.4-0.1c-0.1-0.2-0.1-0.2-0.1-0.2
		s-0.1,6.1-0.1,6.3c0,0.2,0,0.6,0.2,0.9c0.1,0.2,0.3,0.4,0.4,0.4c0.1,0,0.2-0.1,0.2,0s0,0.3-0.2,0.4c-0.2,0.1-0.5,0.2-0.7,0.2
		c-0.2,0-0.8-0.2-1-1.4S23.2,22,23.2,22s-0.1,0.2-0.1,0.2c0,0-0.2,0-0.2,0c0,0-0.1-0.3-0.1-0.3s-0.1,2.7-0.1,3
		c0,0.3,0.1,0.4,0.2,0.4c0.1,0,0.1,0,0.1,0.1c0,0.1,0,0.2,0,0.3c-0.1,0.2-0.3,0.2-0.5,0.2c-0.2,0-0.5-0.2-0.6-0.5
		c-0.1-0.3-0.2-1.8-0.2-2.5c0-0.6,0-1.1,0-1.1S21.3,22,21.3,22c0,0-0.2,0.1-0.2,0c-0.1,0-0.2-0.3-0.2-0.3l0,1c0,0-0.1,1.7,0.1,2.1
		c0.5,1.3,0.6,4.4,0.5,5.4c-0.1,1-1.1,0.5-1.1,0.5s-0.8-0.9-1-1.3c-0.1-0.4-0.2-0.9-0.3-1c0-0.1-0.1-0.4-0.1-0.4s-0.1,0.7-0.1,0.9
		s-0.5,4.2-0.4,5.4c0.1,1.2,0.4,2.2,1,2.4c1.2,0.4,2.1-0.6,2.9-0.4c0.7,0.2,1,0.3,1.3,0.8s0.2,0.7,0.5,0.7s0.3,0,0.5,0
		c0.1,0,0.2,0.1,0,0.2c-0.2,0.1-0.6,0.4-1,0c-0.5-0.4-0.9-0.8-1.6-0.5s-0.8,0.6-1.2,0.7c-0.4,0.2-1,0.3-1.5-0.4s-0.4-0.8-0.6-1
		s-0.2-0.3-0.2-0.1c0,0.2-0.1,0.5,0.1,0.8c0.2,0.3,0.6,0.5,0.9,0.8c0.2,0.2,0.2,0.4,0.6,0.5c0.4,0.1,1-0.2,1.4,0.1
		c0.4,0.3,0.6,0.7,0.5,0.9s-0.1,0.4-0.3,0.4c-0.2,0-0.1,0-0.2-0.2c-0.1-0.1-0.8-0.1-1.4-0.2s-1-0.1-1.1-0.5
		c-0.1-0.4-0.2-0.5-0.4-0.6c-0.2-0.1-0.2-0.1-0.2,0.2s0.1,0.5,0.4,0.8s0.7,0.6,0.8,0.9c0.1,0.3,0.2,0.5,0,0.5c0,0-0.1,0-0.2,0
		c0,0-0.2-0.2-0.3-0.2c-0.1-0.1-0.2,0-0.4,0.1c-0.1,0.2-0.3-0.2-0.5-0.2c-0.1,0-0.1,0.2-0.1,0.2c0,0.1,0.1,0.3-0.1,0.4
		C18.1,41.7,17.7,41.8,17.7,41.8L17.7,41.8z"/>
	<path style="fill:#FFEC00;" d="M14.3,9.9c0,0,0.4-0.3,0.6-0.4c0.9-0.4,2.6-0.6,2.8-0.6c0.7-0.1,0.9-0.6,0.9-0.9
		c0-0.3,0-0.8-0.5-1.1c-0.7-0.4-1.1-0.4-1.5-0.6c0,0,0.3,0,0.3-0.2c0-0.3-0.4-0.4-0.6-0.2c-0.1,0.1,0,0.3,0,0.3
		c-0.2-0.1-0.5-0.2-0.9-0.4c-0.2-0.1-0.6-0.4-0.7-0.4c-2.4,0.7-2.1,2.2-2,2.6C12.9,9,14,8.9,14.1,8.9c0,0,0,0-0.2-0.2
		c-0.4-0.4-0.3-0.9,0-1c0.2-0.1,0.3-0.1,0.6,0s0.5,0,0.7,0c0.2-0.1,0.4-0.2,0.6-0.2c0.2-0.1,0.3-0.2,0.6-0.2c0.3-0.1,0.7,0,0.9,0
		c0.5,0.1,0.8,0.7,0.3,1c-0.3,0.2-0.6,0.3-1.2,0.4s-1,0.2-1.5,0.4C14.4,9.4,14.3,9.9,14.3,9.9L14.3,9.9z"/>
	<path style="fill:#1D1D1B;" d="M14.4,9.7L14.4,9.7c0.2-0.1,0.3-0.2,0.4-0.2C15.3,9.2,16,9.1,16.6,9c0.6-0.1,1.1-0.1,1.2-0.1l0,0.1
		c-0.1,0-0.6,0.1-1.2,0.1c-0.6,0.1-1.3,0.2-1.8,0.4c-0.1,0-0.2,0.1-0.3,0.2L14.2,10c0,0,0-0.2,0.1-0.2c0.2-0.6,0.8-0.9,1.3-1
		c0.7-0.2,1.4-0.2,2-0.6c0.4-0.2,0.2-0.8-0.2-0.9c-0.4-0.1-0.9-0.1-1.2,0.1l-0.3,0.1c-0.5,0.2-0.7,0.4-1.3,0.3c-0.2,0-0.4-0.1-0.6,0
		c-0.2,0.1-0.3,0.5,0,0.9C14,8.7,14,8.8,14.1,8.8l0,0.1c0,0.1,0,0.1,0,0.1C14,9,12.9,9.1,12.5,8c-0.1-0.5-0.4-2,2.1-2.7
		c0,0,0,0.1,0,0.1c-2.4,0.7-2.1,2.2-2,2.6c0.2,0.8,1,0.9,1.3,0.9l-0.1-0.1c-0.4-0.4-0.3-1.1,0.3-1.1c0.4,0,0.6,0.2,1,0
		c0.2-0.1,0.4-0.2,0.6-0.2L16,7.3c0.4-0.1,0.9-0.1,1.3-0.1c0.6,0.1,0.9,0.8,0.3,1.1c-0.6,0.4-1.4,0.4-2,0.6
		C15.1,9,14.7,9.2,14.4,9.7L14.4,9.7L14.4,9.7z"/>
	<path style="fill:#FFEC00;" d="M21.9,16.1c0,0,2.5,0,5.4-1.7c3.2-1.9,4.2-4.6,4.3-4.8c0.1,0.1,0.8,1.9,1.1,2.7
		c-0.1,0.1-1.9,1.5-4.1,2.4c-4.3,1.7-6.7,1.6-6.7,1.6L21.9,16.1L21.9,16.1z"/>
	<path style="fill:#FFEC00;" d="M13.9,16.2c0,0-2.8,0-5.7-1.7C4.9,12.7,4,9.9,3.9,9.7c-0.1,0.1-0.8,1.8-1.1,2.7
		c0.1,0.1,1.9,1.6,4.1,2.4c4.3,1.7,6.9,1.7,6.9,1.7L13.9,16.2L13.9,16.2z"/>
	<path style="fill:#1D1D1B;" d="M16.6,6.4c0,0,0.3,0,0.2-0.3c0-0.2-0.5-0.4-0.6-0.2c-0.1,0.2,0,0.3,0,0.3
		C16.2,6.2,16.6,6.4,16.6,6.4L16.6,6.4z"/>
</g>
</svg>
